%TF.GenerationSoftware,KiCad,Pcbnew,7.0.8*%
%TF.CreationDate,2023-12-09T15:04:35+08:00*%
%TF.ProjectId,Brake_Light,4272616b-655f-44c6-9967-68742e6b6963,v1.5*%
%TF.SameCoordinates,Original*%
%TF.FileFunction,Paste,Top*%
%TF.FilePolarity,Positive*%
%FSLAX46Y46*%
G04 Gerber Fmt 4.6, Leading zero omitted, Abs format (unit mm)*
G04 Created by KiCad (PCBNEW 7.0.8) date 2023-12-09 15:04:35*
%MOMM*%
%LPD*%
G01*
G04 APERTURE LIST*
G04 Aperture macros list*
%AMRoundRect*
0 Rectangle with rounded corners*
0 $1 Rounding radius*
0 $2 $3 $4 $5 $6 $7 $8 $9 X,Y pos of 4 corners*
0 Add a 4 corners polygon primitive as box body*
4,1,4,$2,$3,$4,$5,$6,$7,$8,$9,$2,$3,0*
0 Add four circle primitives for the rounded corners*
1,1,$1+$1,$2,$3*
1,1,$1+$1,$4,$5*
1,1,$1+$1,$6,$7*
1,1,$1+$1,$8,$9*
0 Add four rect primitives between the rounded corners*
20,1,$1+$1,$2,$3,$4,$5,0*
20,1,$1+$1,$4,$5,$6,$7,0*
20,1,$1+$1,$6,$7,$8,$9,0*
20,1,$1+$1,$8,$9,$2,$3,0*%
G04 Aperture macros list end*
%ADD10RoundRect,0.250000X-0.262500X-0.450000X0.262500X-0.450000X0.262500X0.450000X-0.262500X0.450000X0*%
%ADD11RoundRect,0.243750X-0.243750X-0.456250X0.243750X-0.456250X0.243750X0.456250X-0.243750X0.456250X0*%
G04 APERTURE END LIST*
D10*
%TO.C,R1*%
X194584500Y-98497000D03*
X196409500Y-98497000D03*
%TD*%
D11*
%TO.C,D30*%
X54709500Y-103494000D03*
X56584500Y-103494000D03*
%TD*%
%TO.C,D9*%
X164709500Y-103494000D03*
X166584500Y-103494000D03*
%TD*%
%TO.C,D32*%
X54709500Y-93500000D03*
X56584500Y-93500000D03*
%TD*%
%TO.C,D11*%
X164709500Y-93500000D03*
X166584500Y-93500000D03*
%TD*%
D10*
%TO.C,R6*%
X79734500Y-98497000D03*
X81559500Y-98497000D03*
%TD*%
D11*
%TO.C,D10*%
X154709500Y-103494000D03*
X156584500Y-103494000D03*
%TD*%
%TO.C,D7*%
X184709500Y-103494000D03*
X186584500Y-103494000D03*
%TD*%
D10*
%TO.C,R3*%
X154734500Y-98497000D03*
X156559500Y-98497000D03*
%TD*%
D11*
%TO.C,D22*%
X104709500Y-93500000D03*
X106584500Y-93500000D03*
%TD*%
D10*
%TO.C,R5*%
X104734500Y-98497000D03*
X106559500Y-98497000D03*
%TD*%
D11*
%TO.C,D15*%
X124709500Y-93500000D03*
X126584500Y-93500000D03*
%TD*%
%TO.C,D17*%
X134709500Y-103494000D03*
X136584500Y-103494000D03*
%TD*%
%TO.C,D26*%
X94709500Y-103494000D03*
X96584500Y-103494000D03*
%TD*%
%TO.C,D2*%
X205282500Y-103690000D03*
X207157500Y-103690000D03*
%TD*%
%TO.C,D25*%
X74709500Y-93500000D03*
X76584500Y-93500000D03*
%TD*%
%TO.C,D5*%
X174709500Y-93500000D03*
X176584500Y-93500000D03*
%TD*%
%TO.C,D13*%
X144709500Y-93500000D03*
X146584500Y-93500000D03*
%TD*%
%TO.C,D29*%
X64709500Y-103494000D03*
X66584500Y-103494000D03*
%TD*%
%TO.C,D3*%
X194559500Y-93500000D03*
X196434500Y-93500000D03*
%TD*%
%TO.C,D8*%
X174709500Y-103494000D03*
X176584500Y-103494000D03*
%TD*%
%TO.C,D23*%
X94709500Y-93500000D03*
X96584500Y-93500000D03*
%TD*%
%TO.C,D12*%
X154709500Y-93500000D03*
X156584500Y-93500000D03*
%TD*%
%TO.C,D14*%
X134709500Y-93500000D03*
X136584500Y-93500000D03*
%TD*%
%TO.C,D4*%
X184709500Y-93500000D03*
X186584500Y-93500000D03*
%TD*%
%TO.C,D31*%
X64709500Y-93500000D03*
X66584500Y-93500000D03*
%TD*%
%TO.C,D20*%
X104709500Y-103494000D03*
X106584500Y-103494000D03*
%TD*%
%TO.C,D21*%
X114709500Y-93500000D03*
X116584500Y-93500000D03*
%TD*%
%TO.C,D16*%
X144709500Y-103494000D03*
X146584500Y-103494000D03*
%TD*%
%TO.C,D24*%
X84709500Y-93500000D03*
X86584500Y-93500000D03*
%TD*%
%TO.C,D19*%
X114709500Y-103494000D03*
X116584500Y-103494000D03*
%TD*%
%TO.C,D1*%
X205282500Y-92360000D03*
X207157500Y-92360000D03*
%TD*%
%TO.C,D6*%
X194559500Y-103494000D03*
X196434500Y-103494000D03*
%TD*%
%TO.C,D18*%
X124709500Y-103494000D03*
X126584500Y-103494000D03*
%TD*%
%TO.C,D28*%
X74709500Y-103494000D03*
X76584500Y-103494000D03*
%TD*%
D10*
%TO.C,R2*%
X179734500Y-98497000D03*
X181559500Y-98497000D03*
%TD*%
%TO.C,R4*%
X129734500Y-98497000D03*
X131559500Y-98497000D03*
%TD*%
%TO.C,R7*%
X54734500Y-98497000D03*
X56559500Y-98497000D03*
%TD*%
D11*
%TO.C,D27*%
X84709500Y-103494000D03*
X86584500Y-103494000D03*
%TD*%
M02*
