%TF.GenerationSoftware,KiCad,Pcbnew,7.0.8*%
%TF.CreationDate,2023-12-09T15:04:31+08:00*%
%TF.ProjectId,Brake_Light,4272616b-655f-44c6-9967-68742e6b6963,v1.5*%
%TF.SameCoordinates,Original*%
%TF.FileFunction,Drillmap*%
%TF.FilePolarity,Positive*%
%FSLAX45Y45*%
G04 Gerber Fmt 4.5, Leading zero omitted, Abs format (unit mm)*
G04 Created by KiCad (PCBNEW 7.0.8) date 2023-12-09 15:04:31*
%MOMM*%
%LPD*%
G01*
G04 APERTURE LIST*
%ADD10C,0.100000*%
%ADD11C,0.200000*%
%ADD12C,0.050000*%
G04 APERTURE END LIST*
D10*
X21999613Y-9125391D02*
G75*
G03*
X21874609Y-9000387I-125003J1D01*
G01*
X5220000Y-10350000D02*
G75*
G03*
X5220000Y-10350000I-70000J0D01*
G01*
X21920000Y-10350000D02*
G75*
G03*
X21920000Y-10350000I-70000J0D01*
G01*
X5125391Y-9000387D02*
X21874609Y-9000387D01*
X21874609Y-10499613D02*
G75*
G03*
X21999613Y-10374609I1J125003D01*
G01*
X5000387Y-10374609D02*
X5000387Y-9125391D01*
X5125391Y-9000387D02*
G75*
G03*
X5000387Y-9125391I-1J-125003D01*
G01*
X21999613Y-9125391D02*
X21999613Y-10374609D01*
X5000387Y-10374609D02*
G75*
G03*
X5125391Y-10499613I125003J-1D01*
G01*
X21920000Y-9150000D02*
G75*
G03*
X21920000Y-9150000I-70000J0D01*
G01*
X5220000Y-9150000D02*
G75*
G03*
X5220000Y-9150000I-70000J0D01*
G01*
X21874609Y-10499613D02*
X5125391Y-10499613D01*
D11*
D12*
X9318000Y-10129000D02*
X9368000Y-10179000D01*
X9368000Y-10129000D02*
X9318000Y-10179000D01*
X9322000Y-9819000D02*
X9372000Y-9869000D01*
X9372000Y-9819000D02*
X9322000Y-9869000D01*
X14842000Y-9827000D02*
X14892000Y-9877000D01*
X14892000Y-9827000D02*
X14842000Y-9877000D01*
X14842000Y-10331000D02*
X14892000Y-10381000D01*
X14892000Y-10331000D02*
X14842000Y-10381000D01*
X19054000Y-9819000D02*
X19104000Y-9869000D01*
X19104000Y-9819000D02*
X19054000Y-9869000D01*
X19795000Y-10336000D02*
X19845000Y-10386000D01*
X19845000Y-10336000D02*
X19795000Y-10386000D01*
X19850000Y-9325000D02*
X19900000Y-9375000D01*
X19900000Y-9325000D02*
X19850000Y-9375000D01*
X20050000Y-10344000D02*
X20100000Y-10394000D01*
X20100000Y-10344000D02*
X20050000Y-10394000D01*
X20224000Y-9212000D02*
X20274000Y-9262000D01*
X20274000Y-9212000D02*
X20224000Y-9262000D01*
X20885000Y-10351000D02*
X20935000Y-10401000D01*
X20935000Y-10351000D02*
X20885000Y-10401000D01*
D10*
X20667400Y-9647700D02*
G75*
G03*
X20667400Y-9647700I-50000J0D01*
G01*
X20667400Y-9897700D02*
G75*
G03*
X20667400Y-9897700I-50000J0D01*
G01*
D11*
X5256164Y-10816097D02*
X5256164Y-10616097D01*
X5256164Y-10616097D02*
X5303783Y-10616097D01*
X5303783Y-10616097D02*
X5332355Y-10625620D01*
X5332355Y-10625620D02*
X5351402Y-10644668D01*
X5351402Y-10644668D02*
X5360926Y-10663716D01*
X5360926Y-10663716D02*
X5370450Y-10701811D01*
X5370450Y-10701811D02*
X5370450Y-10730382D01*
X5370450Y-10730382D02*
X5360926Y-10768478D01*
X5360926Y-10768478D02*
X5351402Y-10787525D01*
X5351402Y-10787525D02*
X5332355Y-10806573D01*
X5332355Y-10806573D02*
X5303783Y-10816097D01*
X5303783Y-10816097D02*
X5256164Y-10816097D01*
X5456164Y-10816097D02*
X5456164Y-10682763D01*
X5456164Y-10720859D02*
X5465688Y-10701811D01*
X5465688Y-10701811D02*
X5475212Y-10692287D01*
X5475212Y-10692287D02*
X5494259Y-10682763D01*
X5494259Y-10682763D02*
X5513307Y-10682763D01*
X5579974Y-10816097D02*
X5579974Y-10682763D01*
X5579974Y-10616097D02*
X5570450Y-10625620D01*
X5570450Y-10625620D02*
X5579974Y-10635144D01*
X5579974Y-10635144D02*
X5589497Y-10625620D01*
X5589497Y-10625620D02*
X5579974Y-10616097D01*
X5579974Y-10616097D02*
X5579974Y-10635144D01*
X5703783Y-10816097D02*
X5684735Y-10806573D01*
X5684735Y-10806573D02*
X5675212Y-10787525D01*
X5675212Y-10787525D02*
X5675212Y-10616097D01*
X5808545Y-10816097D02*
X5789497Y-10806573D01*
X5789497Y-10806573D02*
X5779973Y-10787525D01*
X5779973Y-10787525D02*
X5779973Y-10616097D01*
X6037116Y-10816097D02*
X6037116Y-10616097D01*
X6037116Y-10616097D02*
X6103783Y-10758954D01*
X6103783Y-10758954D02*
X6170450Y-10616097D01*
X6170450Y-10616097D02*
X6170450Y-10816097D01*
X6351402Y-10816097D02*
X6351402Y-10711335D01*
X6351402Y-10711335D02*
X6341878Y-10692287D01*
X6341878Y-10692287D02*
X6322831Y-10682763D01*
X6322831Y-10682763D02*
X6284735Y-10682763D01*
X6284735Y-10682763D02*
X6265688Y-10692287D01*
X6351402Y-10806573D02*
X6332354Y-10816097D01*
X6332354Y-10816097D02*
X6284735Y-10816097D01*
X6284735Y-10816097D02*
X6265688Y-10806573D01*
X6265688Y-10806573D02*
X6256164Y-10787525D01*
X6256164Y-10787525D02*
X6256164Y-10768478D01*
X6256164Y-10768478D02*
X6265688Y-10749430D01*
X6265688Y-10749430D02*
X6284735Y-10739906D01*
X6284735Y-10739906D02*
X6332354Y-10739906D01*
X6332354Y-10739906D02*
X6351402Y-10730382D01*
X6446640Y-10682763D02*
X6446640Y-10882763D01*
X6446640Y-10692287D02*
X6465688Y-10682763D01*
X6465688Y-10682763D02*
X6503783Y-10682763D01*
X6503783Y-10682763D02*
X6522831Y-10692287D01*
X6522831Y-10692287D02*
X6532354Y-10701811D01*
X6532354Y-10701811D02*
X6541878Y-10720859D01*
X6541878Y-10720859D02*
X6541878Y-10778001D01*
X6541878Y-10778001D02*
X6532354Y-10797049D01*
X6532354Y-10797049D02*
X6522831Y-10806573D01*
X6522831Y-10806573D02*
X6503783Y-10816097D01*
X6503783Y-10816097D02*
X6465688Y-10816097D01*
X6465688Y-10816097D02*
X6446640Y-10806573D01*
X6627593Y-10797049D02*
X6637116Y-10806573D01*
X6637116Y-10806573D02*
X6627593Y-10816097D01*
X6627593Y-10816097D02*
X6618069Y-10806573D01*
X6618069Y-10806573D02*
X6627593Y-10797049D01*
X6627593Y-10797049D02*
X6627593Y-10816097D01*
X6627593Y-10692287D02*
X6637116Y-10701811D01*
X6637116Y-10701811D02*
X6627593Y-10711335D01*
X6627593Y-10711335D02*
X6618069Y-10701811D01*
X6618069Y-10701811D02*
X6627593Y-10692287D01*
X6627593Y-10692287D02*
X6627593Y-10711335D01*
D12*
X4945387Y-11119613D02*
X4995387Y-11169613D01*
X4995387Y-11119613D02*
X4945387Y-11169613D01*
D11*
X5294259Y-11036097D02*
X5313307Y-11036097D01*
X5313307Y-11036097D02*
X5332355Y-11045620D01*
X5332355Y-11045620D02*
X5341878Y-11055144D01*
X5341878Y-11055144D02*
X5351402Y-11074192D01*
X5351402Y-11074192D02*
X5360926Y-11112287D01*
X5360926Y-11112287D02*
X5360926Y-11159906D01*
X5360926Y-11159906D02*
X5351402Y-11198001D01*
X5351402Y-11198001D02*
X5341878Y-11217049D01*
X5341878Y-11217049D02*
X5332355Y-11226573D01*
X5332355Y-11226573D02*
X5313307Y-11236097D01*
X5313307Y-11236097D02*
X5294259Y-11236097D01*
X5294259Y-11236097D02*
X5275212Y-11226573D01*
X5275212Y-11226573D02*
X5265688Y-11217049D01*
X5265688Y-11217049D02*
X5256164Y-11198001D01*
X5256164Y-11198001D02*
X5246640Y-11159906D01*
X5246640Y-11159906D02*
X5246640Y-11112287D01*
X5246640Y-11112287D02*
X5256164Y-11074192D01*
X5256164Y-11074192D02*
X5265688Y-11055144D01*
X5265688Y-11055144D02*
X5275212Y-11045620D01*
X5275212Y-11045620D02*
X5294259Y-11036097D01*
X5446640Y-11217049D02*
X5456164Y-11226573D01*
X5456164Y-11226573D02*
X5446640Y-11236097D01*
X5446640Y-11236097D02*
X5437116Y-11226573D01*
X5437116Y-11226573D02*
X5446640Y-11217049D01*
X5446640Y-11217049D02*
X5446640Y-11236097D01*
X5637116Y-11036097D02*
X5541878Y-11036097D01*
X5541878Y-11036097D02*
X5532355Y-11131335D01*
X5532355Y-11131335D02*
X5541878Y-11121811D01*
X5541878Y-11121811D02*
X5560926Y-11112287D01*
X5560926Y-11112287D02*
X5608545Y-11112287D01*
X5608545Y-11112287D02*
X5627593Y-11121811D01*
X5627593Y-11121811D02*
X5637116Y-11131335D01*
X5637116Y-11131335D02*
X5646640Y-11150382D01*
X5646640Y-11150382D02*
X5646640Y-11198001D01*
X5646640Y-11198001D02*
X5637116Y-11217049D01*
X5637116Y-11217049D02*
X5627593Y-11226573D01*
X5627593Y-11226573D02*
X5608545Y-11236097D01*
X5608545Y-11236097D02*
X5560926Y-11236097D01*
X5560926Y-11236097D02*
X5541878Y-11226573D01*
X5541878Y-11226573D02*
X5532355Y-11217049D01*
X5770450Y-11036097D02*
X5789497Y-11036097D01*
X5789497Y-11036097D02*
X5808545Y-11045620D01*
X5808545Y-11045620D02*
X5818069Y-11055144D01*
X5818069Y-11055144D02*
X5827593Y-11074192D01*
X5827593Y-11074192D02*
X5837116Y-11112287D01*
X5837116Y-11112287D02*
X5837116Y-11159906D01*
X5837116Y-11159906D02*
X5827593Y-11198001D01*
X5827593Y-11198001D02*
X5818069Y-11217049D01*
X5818069Y-11217049D02*
X5808545Y-11226573D01*
X5808545Y-11226573D02*
X5789497Y-11236097D01*
X5789497Y-11236097D02*
X5770450Y-11236097D01*
X5770450Y-11236097D02*
X5751402Y-11226573D01*
X5751402Y-11226573D02*
X5741878Y-11217049D01*
X5741878Y-11217049D02*
X5732354Y-11198001D01*
X5732354Y-11198001D02*
X5722831Y-11159906D01*
X5722831Y-11159906D02*
X5722831Y-11112287D01*
X5722831Y-11112287D02*
X5732354Y-11074192D01*
X5732354Y-11074192D02*
X5741878Y-11055144D01*
X5741878Y-11055144D02*
X5751402Y-11045620D01*
X5751402Y-11045620D02*
X5770450Y-11036097D01*
X5960926Y-11036097D02*
X5979974Y-11036097D01*
X5979974Y-11036097D02*
X5999021Y-11045620D01*
X5999021Y-11045620D02*
X6008545Y-11055144D01*
X6008545Y-11055144D02*
X6018069Y-11074192D01*
X6018069Y-11074192D02*
X6027593Y-11112287D01*
X6027593Y-11112287D02*
X6027593Y-11159906D01*
X6027593Y-11159906D02*
X6018069Y-11198001D01*
X6018069Y-11198001D02*
X6008545Y-11217049D01*
X6008545Y-11217049D02*
X5999021Y-11226573D01*
X5999021Y-11226573D02*
X5979974Y-11236097D01*
X5979974Y-11236097D02*
X5960926Y-11236097D01*
X5960926Y-11236097D02*
X5941878Y-11226573D01*
X5941878Y-11226573D02*
X5932354Y-11217049D01*
X5932354Y-11217049D02*
X5922831Y-11198001D01*
X5922831Y-11198001D02*
X5913307Y-11159906D01*
X5913307Y-11159906D02*
X5913307Y-11112287D01*
X5913307Y-11112287D02*
X5922831Y-11074192D01*
X5922831Y-11074192D02*
X5932354Y-11055144D01*
X5932354Y-11055144D02*
X5941878Y-11045620D01*
X5941878Y-11045620D02*
X5960926Y-11036097D01*
X6113307Y-11236097D02*
X6113307Y-11102763D01*
X6113307Y-11121811D02*
X6122831Y-11112287D01*
X6122831Y-11112287D02*
X6141878Y-11102763D01*
X6141878Y-11102763D02*
X6170450Y-11102763D01*
X6170450Y-11102763D02*
X6189497Y-11112287D01*
X6189497Y-11112287D02*
X6199021Y-11131335D01*
X6199021Y-11131335D02*
X6199021Y-11236097D01*
X6199021Y-11131335D02*
X6208545Y-11112287D01*
X6208545Y-11112287D02*
X6227593Y-11102763D01*
X6227593Y-11102763D02*
X6256164Y-11102763D01*
X6256164Y-11102763D02*
X6275212Y-11112287D01*
X6275212Y-11112287D02*
X6284735Y-11131335D01*
X6284735Y-11131335D02*
X6284735Y-11236097D01*
X6379974Y-11236097D02*
X6379974Y-11102763D01*
X6379974Y-11121811D02*
X6389497Y-11112287D01*
X6389497Y-11112287D02*
X6408545Y-11102763D01*
X6408545Y-11102763D02*
X6437116Y-11102763D01*
X6437116Y-11102763D02*
X6456164Y-11112287D01*
X6456164Y-11112287D02*
X6465688Y-11131335D01*
X6465688Y-11131335D02*
X6465688Y-11236097D01*
X6465688Y-11131335D02*
X6475212Y-11112287D01*
X6475212Y-11112287D02*
X6494259Y-11102763D01*
X6494259Y-11102763D02*
X6522831Y-11102763D01*
X6522831Y-11102763D02*
X6541878Y-11112287D01*
X6541878Y-11112287D02*
X6551402Y-11131335D01*
X6551402Y-11131335D02*
X6551402Y-11236097D01*
X6941878Y-11026573D02*
X6770450Y-11283716D01*
X7199021Y-11036097D02*
X7218069Y-11036097D01*
X7218069Y-11036097D02*
X7237117Y-11045620D01*
X7237117Y-11045620D02*
X7246640Y-11055144D01*
X7246640Y-11055144D02*
X7256164Y-11074192D01*
X7256164Y-11074192D02*
X7265688Y-11112287D01*
X7265688Y-11112287D02*
X7265688Y-11159906D01*
X7265688Y-11159906D02*
X7256164Y-11198001D01*
X7256164Y-11198001D02*
X7246640Y-11217049D01*
X7246640Y-11217049D02*
X7237117Y-11226573D01*
X7237117Y-11226573D02*
X7218069Y-11236097D01*
X7218069Y-11236097D02*
X7199021Y-11236097D01*
X7199021Y-11236097D02*
X7179974Y-11226573D01*
X7179974Y-11226573D02*
X7170450Y-11217049D01*
X7170450Y-11217049D02*
X7160926Y-11198001D01*
X7160926Y-11198001D02*
X7151402Y-11159906D01*
X7151402Y-11159906D02*
X7151402Y-11112287D01*
X7151402Y-11112287D02*
X7160926Y-11074192D01*
X7160926Y-11074192D02*
X7170450Y-11055144D01*
X7170450Y-11055144D02*
X7179974Y-11045620D01*
X7179974Y-11045620D02*
X7199021Y-11036097D01*
X7351402Y-11217049D02*
X7360926Y-11226573D01*
X7360926Y-11226573D02*
X7351402Y-11236097D01*
X7351402Y-11236097D02*
X7341878Y-11226573D01*
X7341878Y-11226573D02*
X7351402Y-11217049D01*
X7351402Y-11217049D02*
X7351402Y-11236097D01*
X7484736Y-11036097D02*
X7503783Y-11036097D01*
X7503783Y-11036097D02*
X7522831Y-11045620D01*
X7522831Y-11045620D02*
X7532355Y-11055144D01*
X7532355Y-11055144D02*
X7541878Y-11074192D01*
X7541878Y-11074192D02*
X7551402Y-11112287D01*
X7551402Y-11112287D02*
X7551402Y-11159906D01*
X7551402Y-11159906D02*
X7541878Y-11198001D01*
X7541878Y-11198001D02*
X7532355Y-11217049D01*
X7532355Y-11217049D02*
X7522831Y-11226573D01*
X7522831Y-11226573D02*
X7503783Y-11236097D01*
X7503783Y-11236097D02*
X7484736Y-11236097D01*
X7484736Y-11236097D02*
X7465688Y-11226573D01*
X7465688Y-11226573D02*
X7456164Y-11217049D01*
X7456164Y-11217049D02*
X7446640Y-11198001D01*
X7446640Y-11198001D02*
X7437117Y-11159906D01*
X7437117Y-11159906D02*
X7437117Y-11112287D01*
X7437117Y-11112287D02*
X7446640Y-11074192D01*
X7446640Y-11074192D02*
X7456164Y-11055144D01*
X7456164Y-11055144D02*
X7465688Y-11045620D01*
X7465688Y-11045620D02*
X7484736Y-11036097D01*
X7741878Y-11236097D02*
X7627593Y-11236097D01*
X7684736Y-11236097D02*
X7684736Y-11036097D01*
X7684736Y-11036097D02*
X7665688Y-11064668D01*
X7665688Y-11064668D02*
X7646640Y-11083716D01*
X7646640Y-11083716D02*
X7627593Y-11093239D01*
X7837117Y-11236097D02*
X7875212Y-11236097D01*
X7875212Y-11236097D02*
X7894259Y-11226573D01*
X7894259Y-11226573D02*
X7903783Y-11217049D01*
X7903783Y-11217049D02*
X7922831Y-11188477D01*
X7922831Y-11188477D02*
X7932355Y-11150382D01*
X7932355Y-11150382D02*
X7932355Y-11074192D01*
X7932355Y-11074192D02*
X7922831Y-11055144D01*
X7922831Y-11055144D02*
X7913307Y-11045620D01*
X7913307Y-11045620D02*
X7894259Y-11036097D01*
X7894259Y-11036097D02*
X7856164Y-11036097D01*
X7856164Y-11036097D02*
X7837117Y-11045620D01*
X7837117Y-11045620D02*
X7827593Y-11055144D01*
X7827593Y-11055144D02*
X7818069Y-11074192D01*
X7818069Y-11074192D02*
X7818069Y-11121811D01*
X7818069Y-11121811D02*
X7827593Y-11140859D01*
X7827593Y-11140859D02*
X7837117Y-11150382D01*
X7837117Y-11150382D02*
X7856164Y-11159906D01*
X7856164Y-11159906D02*
X7894259Y-11159906D01*
X7894259Y-11159906D02*
X7913307Y-11150382D01*
X7913307Y-11150382D02*
X7922831Y-11140859D01*
X7922831Y-11140859D02*
X7932355Y-11121811D01*
X7999021Y-11036097D02*
X8132355Y-11036097D01*
X8132355Y-11036097D02*
X8046640Y-11236097D01*
X8199021Y-11036097D02*
X8199021Y-11074192D01*
X8275212Y-11036097D02*
X8275212Y-11074192D01*
X8570450Y-11312287D02*
X8560926Y-11302763D01*
X8560926Y-11302763D02*
X8541879Y-11274192D01*
X8541879Y-11274192D02*
X8532355Y-11255144D01*
X8532355Y-11255144D02*
X8522831Y-11226573D01*
X8522831Y-11226573D02*
X8513307Y-11178954D01*
X8513307Y-11178954D02*
X8513307Y-11140859D01*
X8513307Y-11140859D02*
X8522831Y-11093239D01*
X8522831Y-11093239D02*
X8532355Y-11064668D01*
X8532355Y-11064668D02*
X8541879Y-11045620D01*
X8541879Y-11045620D02*
X8560926Y-11017049D01*
X8560926Y-11017049D02*
X8570450Y-11007525D01*
X8751402Y-11236097D02*
X8637117Y-11236097D01*
X8694260Y-11236097D02*
X8694260Y-11036097D01*
X8694260Y-11036097D02*
X8675212Y-11064668D01*
X8675212Y-11064668D02*
X8656164Y-11083716D01*
X8656164Y-11083716D02*
X8637117Y-11093239D01*
X8875212Y-11036097D02*
X8894260Y-11036097D01*
X8894260Y-11036097D02*
X8913307Y-11045620D01*
X8913307Y-11045620D02*
X8922831Y-11055144D01*
X8922831Y-11055144D02*
X8932355Y-11074192D01*
X8932355Y-11074192D02*
X8941879Y-11112287D01*
X8941879Y-11112287D02*
X8941879Y-11159906D01*
X8941879Y-11159906D02*
X8932355Y-11198001D01*
X8932355Y-11198001D02*
X8922831Y-11217049D01*
X8922831Y-11217049D02*
X8913307Y-11226573D01*
X8913307Y-11226573D02*
X8894260Y-11236097D01*
X8894260Y-11236097D02*
X8875212Y-11236097D01*
X8875212Y-11236097D02*
X8856164Y-11226573D01*
X8856164Y-11226573D02*
X8846641Y-11217049D01*
X8846641Y-11217049D02*
X8837117Y-11198001D01*
X8837117Y-11198001D02*
X8827593Y-11159906D01*
X8827593Y-11159906D02*
X8827593Y-11112287D01*
X8827593Y-11112287D02*
X8837117Y-11074192D01*
X8837117Y-11074192D02*
X8846641Y-11055144D01*
X8846641Y-11055144D02*
X8856164Y-11045620D01*
X8856164Y-11045620D02*
X8875212Y-11036097D01*
X9179974Y-11236097D02*
X9179974Y-11036097D01*
X9265688Y-11236097D02*
X9265688Y-11131335D01*
X9265688Y-11131335D02*
X9256164Y-11112287D01*
X9256164Y-11112287D02*
X9237117Y-11102763D01*
X9237117Y-11102763D02*
X9208545Y-11102763D01*
X9208545Y-11102763D02*
X9189498Y-11112287D01*
X9189498Y-11112287D02*
X9179974Y-11121811D01*
X9389498Y-11236097D02*
X9370450Y-11226573D01*
X9370450Y-11226573D02*
X9360926Y-11217049D01*
X9360926Y-11217049D02*
X9351403Y-11198001D01*
X9351403Y-11198001D02*
X9351403Y-11140859D01*
X9351403Y-11140859D02*
X9360926Y-11121811D01*
X9360926Y-11121811D02*
X9370450Y-11112287D01*
X9370450Y-11112287D02*
X9389498Y-11102763D01*
X9389498Y-11102763D02*
X9418069Y-11102763D01*
X9418069Y-11102763D02*
X9437117Y-11112287D01*
X9437117Y-11112287D02*
X9446641Y-11121811D01*
X9446641Y-11121811D02*
X9456164Y-11140859D01*
X9456164Y-11140859D02*
X9456164Y-11198001D01*
X9456164Y-11198001D02*
X9446641Y-11217049D01*
X9446641Y-11217049D02*
X9437117Y-11226573D01*
X9437117Y-11226573D02*
X9418069Y-11236097D01*
X9418069Y-11236097D02*
X9389498Y-11236097D01*
X9570450Y-11236097D02*
X9551403Y-11226573D01*
X9551403Y-11226573D02*
X9541879Y-11207525D01*
X9541879Y-11207525D02*
X9541879Y-11036097D01*
X9722831Y-11226573D02*
X9703784Y-11236097D01*
X9703784Y-11236097D02*
X9665688Y-11236097D01*
X9665688Y-11236097D02*
X9646641Y-11226573D01*
X9646641Y-11226573D02*
X9637117Y-11207525D01*
X9637117Y-11207525D02*
X9637117Y-11131335D01*
X9637117Y-11131335D02*
X9646641Y-11112287D01*
X9646641Y-11112287D02*
X9665688Y-11102763D01*
X9665688Y-11102763D02*
X9703784Y-11102763D01*
X9703784Y-11102763D02*
X9722831Y-11112287D01*
X9722831Y-11112287D02*
X9732355Y-11131335D01*
X9732355Y-11131335D02*
X9732355Y-11150382D01*
X9732355Y-11150382D02*
X9637117Y-11169430D01*
X9808545Y-11226573D02*
X9827593Y-11236097D01*
X9827593Y-11236097D02*
X9865688Y-11236097D01*
X9865688Y-11236097D02*
X9884736Y-11226573D01*
X9884736Y-11226573D02*
X9894260Y-11207525D01*
X9894260Y-11207525D02*
X9894260Y-11198001D01*
X9894260Y-11198001D02*
X9884736Y-11178954D01*
X9884736Y-11178954D02*
X9865688Y-11169430D01*
X9865688Y-11169430D02*
X9837117Y-11169430D01*
X9837117Y-11169430D02*
X9818069Y-11159906D01*
X9818069Y-11159906D02*
X9808545Y-11140859D01*
X9808545Y-11140859D02*
X9808545Y-11131335D01*
X9808545Y-11131335D02*
X9818069Y-11112287D01*
X9818069Y-11112287D02*
X9837117Y-11102763D01*
X9837117Y-11102763D02*
X9865688Y-11102763D01*
X9865688Y-11102763D02*
X9884736Y-11112287D01*
X9960926Y-11312287D02*
X9970450Y-11302763D01*
X9970450Y-11302763D02*
X9989498Y-11274192D01*
X9989498Y-11274192D02*
X9999022Y-11255144D01*
X9999022Y-11255144D02*
X10008545Y-11226573D01*
X10008545Y-11226573D02*
X10018069Y-11178954D01*
X10018069Y-11178954D02*
X10018069Y-11140859D01*
X10018069Y-11140859D02*
X10008545Y-11093239D01*
X10008545Y-11093239D02*
X9999022Y-11064668D01*
X9999022Y-11064668D02*
X9989498Y-11045620D01*
X9989498Y-11045620D02*
X9970450Y-11017049D01*
X9970450Y-11017049D02*
X9960926Y-11007525D01*
D10*
X4995387Y-11408613D02*
G75*
G03*
X4995387Y-11408613I-50000J0D01*
G01*
D11*
X5360926Y-11500097D02*
X5246640Y-11500097D01*
X5303783Y-11500097D02*
X5303783Y-11300097D01*
X5303783Y-11300097D02*
X5284735Y-11328668D01*
X5284735Y-11328668D02*
X5265688Y-11347716D01*
X5265688Y-11347716D02*
X5246640Y-11357239D01*
X5446640Y-11481049D02*
X5456164Y-11490573D01*
X5456164Y-11490573D02*
X5446640Y-11500097D01*
X5446640Y-11500097D02*
X5437116Y-11490573D01*
X5437116Y-11490573D02*
X5446640Y-11481049D01*
X5446640Y-11481049D02*
X5446640Y-11500097D01*
X5579974Y-11300097D02*
X5599021Y-11300097D01*
X5599021Y-11300097D02*
X5618069Y-11309620D01*
X5618069Y-11309620D02*
X5627593Y-11319144D01*
X5627593Y-11319144D02*
X5637116Y-11338192D01*
X5637116Y-11338192D02*
X5646640Y-11376287D01*
X5646640Y-11376287D02*
X5646640Y-11423906D01*
X5646640Y-11423906D02*
X5637116Y-11462001D01*
X5637116Y-11462001D02*
X5627593Y-11481049D01*
X5627593Y-11481049D02*
X5618069Y-11490573D01*
X5618069Y-11490573D02*
X5599021Y-11500097D01*
X5599021Y-11500097D02*
X5579974Y-11500097D01*
X5579974Y-11500097D02*
X5560926Y-11490573D01*
X5560926Y-11490573D02*
X5551402Y-11481049D01*
X5551402Y-11481049D02*
X5541878Y-11462001D01*
X5541878Y-11462001D02*
X5532355Y-11423906D01*
X5532355Y-11423906D02*
X5532355Y-11376287D01*
X5532355Y-11376287D02*
X5541878Y-11338192D01*
X5541878Y-11338192D02*
X5551402Y-11319144D01*
X5551402Y-11319144D02*
X5560926Y-11309620D01*
X5560926Y-11309620D02*
X5579974Y-11300097D01*
X5770450Y-11300097D02*
X5789497Y-11300097D01*
X5789497Y-11300097D02*
X5808545Y-11309620D01*
X5808545Y-11309620D02*
X5818069Y-11319144D01*
X5818069Y-11319144D02*
X5827593Y-11338192D01*
X5827593Y-11338192D02*
X5837116Y-11376287D01*
X5837116Y-11376287D02*
X5837116Y-11423906D01*
X5837116Y-11423906D02*
X5827593Y-11462001D01*
X5827593Y-11462001D02*
X5818069Y-11481049D01*
X5818069Y-11481049D02*
X5808545Y-11490573D01*
X5808545Y-11490573D02*
X5789497Y-11500097D01*
X5789497Y-11500097D02*
X5770450Y-11500097D01*
X5770450Y-11500097D02*
X5751402Y-11490573D01*
X5751402Y-11490573D02*
X5741878Y-11481049D01*
X5741878Y-11481049D02*
X5732354Y-11462001D01*
X5732354Y-11462001D02*
X5722831Y-11423906D01*
X5722831Y-11423906D02*
X5722831Y-11376287D01*
X5722831Y-11376287D02*
X5732354Y-11338192D01*
X5732354Y-11338192D02*
X5741878Y-11319144D01*
X5741878Y-11319144D02*
X5751402Y-11309620D01*
X5751402Y-11309620D02*
X5770450Y-11300097D01*
X5960926Y-11300097D02*
X5979974Y-11300097D01*
X5979974Y-11300097D02*
X5999021Y-11309620D01*
X5999021Y-11309620D02*
X6008545Y-11319144D01*
X6008545Y-11319144D02*
X6018069Y-11338192D01*
X6018069Y-11338192D02*
X6027593Y-11376287D01*
X6027593Y-11376287D02*
X6027593Y-11423906D01*
X6027593Y-11423906D02*
X6018069Y-11462001D01*
X6018069Y-11462001D02*
X6008545Y-11481049D01*
X6008545Y-11481049D02*
X5999021Y-11490573D01*
X5999021Y-11490573D02*
X5979974Y-11500097D01*
X5979974Y-11500097D02*
X5960926Y-11500097D01*
X5960926Y-11500097D02*
X5941878Y-11490573D01*
X5941878Y-11490573D02*
X5932354Y-11481049D01*
X5932354Y-11481049D02*
X5922831Y-11462001D01*
X5922831Y-11462001D02*
X5913307Y-11423906D01*
X5913307Y-11423906D02*
X5913307Y-11376287D01*
X5913307Y-11376287D02*
X5922831Y-11338192D01*
X5922831Y-11338192D02*
X5932354Y-11319144D01*
X5932354Y-11319144D02*
X5941878Y-11309620D01*
X5941878Y-11309620D02*
X5960926Y-11300097D01*
X6113307Y-11500097D02*
X6113307Y-11366763D01*
X6113307Y-11385811D02*
X6122831Y-11376287D01*
X6122831Y-11376287D02*
X6141878Y-11366763D01*
X6141878Y-11366763D02*
X6170450Y-11366763D01*
X6170450Y-11366763D02*
X6189497Y-11376287D01*
X6189497Y-11376287D02*
X6199021Y-11395335D01*
X6199021Y-11395335D02*
X6199021Y-11500097D01*
X6199021Y-11395335D02*
X6208545Y-11376287D01*
X6208545Y-11376287D02*
X6227593Y-11366763D01*
X6227593Y-11366763D02*
X6256164Y-11366763D01*
X6256164Y-11366763D02*
X6275212Y-11376287D01*
X6275212Y-11376287D02*
X6284735Y-11395335D01*
X6284735Y-11395335D02*
X6284735Y-11500097D01*
X6379974Y-11500097D02*
X6379974Y-11366763D01*
X6379974Y-11385811D02*
X6389497Y-11376287D01*
X6389497Y-11376287D02*
X6408545Y-11366763D01*
X6408545Y-11366763D02*
X6437116Y-11366763D01*
X6437116Y-11366763D02*
X6456164Y-11376287D01*
X6456164Y-11376287D02*
X6465688Y-11395335D01*
X6465688Y-11395335D02*
X6465688Y-11500097D01*
X6465688Y-11395335D02*
X6475212Y-11376287D01*
X6475212Y-11376287D02*
X6494259Y-11366763D01*
X6494259Y-11366763D02*
X6522831Y-11366763D01*
X6522831Y-11366763D02*
X6541878Y-11376287D01*
X6541878Y-11376287D02*
X6551402Y-11395335D01*
X6551402Y-11395335D02*
X6551402Y-11500097D01*
X6941878Y-11290573D02*
X6770450Y-11547716D01*
X7199021Y-11300097D02*
X7218069Y-11300097D01*
X7218069Y-11300097D02*
X7237117Y-11309620D01*
X7237117Y-11309620D02*
X7246640Y-11319144D01*
X7246640Y-11319144D02*
X7256164Y-11338192D01*
X7256164Y-11338192D02*
X7265688Y-11376287D01*
X7265688Y-11376287D02*
X7265688Y-11423906D01*
X7265688Y-11423906D02*
X7256164Y-11462001D01*
X7256164Y-11462001D02*
X7246640Y-11481049D01*
X7246640Y-11481049D02*
X7237117Y-11490573D01*
X7237117Y-11490573D02*
X7218069Y-11500097D01*
X7218069Y-11500097D02*
X7199021Y-11500097D01*
X7199021Y-11500097D02*
X7179974Y-11490573D01*
X7179974Y-11490573D02*
X7170450Y-11481049D01*
X7170450Y-11481049D02*
X7160926Y-11462001D01*
X7160926Y-11462001D02*
X7151402Y-11423906D01*
X7151402Y-11423906D02*
X7151402Y-11376287D01*
X7151402Y-11376287D02*
X7160926Y-11338192D01*
X7160926Y-11338192D02*
X7170450Y-11319144D01*
X7170450Y-11319144D02*
X7179974Y-11309620D01*
X7179974Y-11309620D02*
X7199021Y-11300097D01*
X7351402Y-11481049D02*
X7360926Y-11490573D01*
X7360926Y-11490573D02*
X7351402Y-11500097D01*
X7351402Y-11500097D02*
X7341878Y-11490573D01*
X7341878Y-11490573D02*
X7351402Y-11481049D01*
X7351402Y-11481049D02*
X7351402Y-11500097D01*
X7484736Y-11300097D02*
X7503783Y-11300097D01*
X7503783Y-11300097D02*
X7522831Y-11309620D01*
X7522831Y-11309620D02*
X7532355Y-11319144D01*
X7532355Y-11319144D02*
X7541878Y-11338192D01*
X7541878Y-11338192D02*
X7551402Y-11376287D01*
X7551402Y-11376287D02*
X7551402Y-11423906D01*
X7551402Y-11423906D02*
X7541878Y-11462001D01*
X7541878Y-11462001D02*
X7532355Y-11481049D01*
X7532355Y-11481049D02*
X7522831Y-11490573D01*
X7522831Y-11490573D02*
X7503783Y-11500097D01*
X7503783Y-11500097D02*
X7484736Y-11500097D01*
X7484736Y-11500097D02*
X7465688Y-11490573D01*
X7465688Y-11490573D02*
X7456164Y-11481049D01*
X7456164Y-11481049D02*
X7446640Y-11462001D01*
X7446640Y-11462001D02*
X7437117Y-11423906D01*
X7437117Y-11423906D02*
X7437117Y-11376287D01*
X7437117Y-11376287D02*
X7446640Y-11338192D01*
X7446640Y-11338192D02*
X7456164Y-11319144D01*
X7456164Y-11319144D02*
X7465688Y-11309620D01*
X7465688Y-11309620D02*
X7484736Y-11300097D01*
X7618069Y-11300097D02*
X7741878Y-11300097D01*
X7741878Y-11300097D02*
X7675212Y-11376287D01*
X7675212Y-11376287D02*
X7703783Y-11376287D01*
X7703783Y-11376287D02*
X7722831Y-11385811D01*
X7722831Y-11385811D02*
X7732355Y-11395335D01*
X7732355Y-11395335D02*
X7741878Y-11414382D01*
X7741878Y-11414382D02*
X7741878Y-11462001D01*
X7741878Y-11462001D02*
X7732355Y-11481049D01*
X7732355Y-11481049D02*
X7722831Y-11490573D01*
X7722831Y-11490573D02*
X7703783Y-11500097D01*
X7703783Y-11500097D02*
X7646640Y-11500097D01*
X7646640Y-11500097D02*
X7627593Y-11490573D01*
X7627593Y-11490573D02*
X7618069Y-11481049D01*
X7837117Y-11500097D02*
X7875212Y-11500097D01*
X7875212Y-11500097D02*
X7894259Y-11490573D01*
X7894259Y-11490573D02*
X7903783Y-11481049D01*
X7903783Y-11481049D02*
X7922831Y-11452477D01*
X7922831Y-11452477D02*
X7932355Y-11414382D01*
X7932355Y-11414382D02*
X7932355Y-11338192D01*
X7932355Y-11338192D02*
X7922831Y-11319144D01*
X7922831Y-11319144D02*
X7913307Y-11309620D01*
X7913307Y-11309620D02*
X7894259Y-11300097D01*
X7894259Y-11300097D02*
X7856164Y-11300097D01*
X7856164Y-11300097D02*
X7837117Y-11309620D01*
X7837117Y-11309620D02*
X7827593Y-11319144D01*
X7827593Y-11319144D02*
X7818069Y-11338192D01*
X7818069Y-11338192D02*
X7818069Y-11385811D01*
X7818069Y-11385811D02*
X7827593Y-11404858D01*
X7827593Y-11404858D02*
X7837117Y-11414382D01*
X7837117Y-11414382D02*
X7856164Y-11423906D01*
X7856164Y-11423906D02*
X7894259Y-11423906D01*
X7894259Y-11423906D02*
X7913307Y-11414382D01*
X7913307Y-11414382D02*
X7922831Y-11404858D01*
X7922831Y-11404858D02*
X7932355Y-11385811D01*
X8103783Y-11366763D02*
X8103783Y-11500097D01*
X8056164Y-11290573D02*
X8008545Y-11433430D01*
X8008545Y-11433430D02*
X8132355Y-11433430D01*
X8199021Y-11300097D02*
X8199021Y-11338192D01*
X8275212Y-11300097D02*
X8275212Y-11338192D01*
X8570450Y-11576287D02*
X8560926Y-11566763D01*
X8560926Y-11566763D02*
X8541879Y-11538192D01*
X8541879Y-11538192D02*
X8532355Y-11519144D01*
X8532355Y-11519144D02*
X8522831Y-11490573D01*
X8522831Y-11490573D02*
X8513307Y-11442954D01*
X8513307Y-11442954D02*
X8513307Y-11404858D01*
X8513307Y-11404858D02*
X8522831Y-11357239D01*
X8522831Y-11357239D02*
X8532355Y-11328668D01*
X8532355Y-11328668D02*
X8541879Y-11309620D01*
X8541879Y-11309620D02*
X8560926Y-11281049D01*
X8560926Y-11281049D02*
X8570450Y-11271525D01*
X8637117Y-11319144D02*
X8646641Y-11309620D01*
X8646641Y-11309620D02*
X8665688Y-11300097D01*
X8665688Y-11300097D02*
X8713307Y-11300097D01*
X8713307Y-11300097D02*
X8732355Y-11309620D01*
X8732355Y-11309620D02*
X8741879Y-11319144D01*
X8741879Y-11319144D02*
X8751402Y-11338192D01*
X8751402Y-11338192D02*
X8751402Y-11357239D01*
X8751402Y-11357239D02*
X8741879Y-11385811D01*
X8741879Y-11385811D02*
X8627593Y-11500097D01*
X8627593Y-11500097D02*
X8751402Y-11500097D01*
X8989498Y-11500097D02*
X8989498Y-11300097D01*
X9075212Y-11500097D02*
X9075212Y-11395335D01*
X9075212Y-11395335D02*
X9065688Y-11376287D01*
X9065688Y-11376287D02*
X9046641Y-11366763D01*
X9046641Y-11366763D02*
X9018069Y-11366763D01*
X9018069Y-11366763D02*
X8999022Y-11376287D01*
X8999022Y-11376287D02*
X8989498Y-11385811D01*
X9199022Y-11500097D02*
X9179974Y-11490573D01*
X9179974Y-11490573D02*
X9170450Y-11481049D01*
X9170450Y-11481049D02*
X9160926Y-11462001D01*
X9160926Y-11462001D02*
X9160926Y-11404858D01*
X9160926Y-11404858D02*
X9170450Y-11385811D01*
X9170450Y-11385811D02*
X9179974Y-11376287D01*
X9179974Y-11376287D02*
X9199022Y-11366763D01*
X9199022Y-11366763D02*
X9227593Y-11366763D01*
X9227593Y-11366763D02*
X9246641Y-11376287D01*
X9246641Y-11376287D02*
X9256164Y-11385811D01*
X9256164Y-11385811D02*
X9265688Y-11404858D01*
X9265688Y-11404858D02*
X9265688Y-11462001D01*
X9265688Y-11462001D02*
X9256164Y-11481049D01*
X9256164Y-11481049D02*
X9246641Y-11490573D01*
X9246641Y-11490573D02*
X9227593Y-11500097D01*
X9227593Y-11500097D02*
X9199022Y-11500097D01*
X9379974Y-11500097D02*
X9360926Y-11490573D01*
X9360926Y-11490573D02*
X9351403Y-11471525D01*
X9351403Y-11471525D02*
X9351403Y-11300097D01*
X9532355Y-11490573D02*
X9513307Y-11500097D01*
X9513307Y-11500097D02*
X9475212Y-11500097D01*
X9475212Y-11500097D02*
X9456164Y-11490573D01*
X9456164Y-11490573D02*
X9446641Y-11471525D01*
X9446641Y-11471525D02*
X9446641Y-11395335D01*
X9446641Y-11395335D02*
X9456164Y-11376287D01*
X9456164Y-11376287D02*
X9475212Y-11366763D01*
X9475212Y-11366763D02*
X9513307Y-11366763D01*
X9513307Y-11366763D02*
X9532355Y-11376287D01*
X9532355Y-11376287D02*
X9541879Y-11395335D01*
X9541879Y-11395335D02*
X9541879Y-11414382D01*
X9541879Y-11414382D02*
X9446641Y-11433430D01*
X9618069Y-11490573D02*
X9637117Y-11500097D01*
X9637117Y-11500097D02*
X9675212Y-11500097D01*
X9675212Y-11500097D02*
X9694260Y-11490573D01*
X9694260Y-11490573D02*
X9703784Y-11471525D01*
X9703784Y-11471525D02*
X9703784Y-11462001D01*
X9703784Y-11462001D02*
X9694260Y-11442954D01*
X9694260Y-11442954D02*
X9675212Y-11433430D01*
X9675212Y-11433430D02*
X9646641Y-11433430D01*
X9646641Y-11433430D02*
X9627593Y-11423906D01*
X9627593Y-11423906D02*
X9618069Y-11404858D01*
X9618069Y-11404858D02*
X9618069Y-11395335D01*
X9618069Y-11395335D02*
X9627593Y-11376287D01*
X9627593Y-11376287D02*
X9646641Y-11366763D01*
X9646641Y-11366763D02*
X9675212Y-11366763D01*
X9675212Y-11366763D02*
X9694260Y-11376287D01*
X9770450Y-11576287D02*
X9779974Y-11566763D01*
X9779974Y-11566763D02*
X9799022Y-11538192D01*
X9799022Y-11538192D02*
X9808545Y-11519144D01*
X9808545Y-11519144D02*
X9818069Y-11490573D01*
X9818069Y-11490573D02*
X9827593Y-11442954D01*
X9827593Y-11442954D02*
X9827593Y-11404858D01*
X9827593Y-11404858D02*
X9818069Y-11357239D01*
X9818069Y-11357239D02*
X9808545Y-11328668D01*
X9808545Y-11328668D02*
X9799022Y-11309620D01*
X9799022Y-11309620D02*
X9779974Y-11281049D01*
X9779974Y-11281049D02*
X9770450Y-11271525D01*
M02*
