%TF.GenerationSoftware,KiCad,Pcbnew,7.0.8*%
%TF.CreationDate,2024-01-28T00:28:55+08:00*%
%TF.ProjectId,Brake_Light,4272616b-655f-44c6-9967-68742e6b6963,v1.5*%
%TF.SameCoordinates,Original*%
%TF.FileFunction,Legend,Bot*%
%TF.FilePolarity,Positive*%
%FSLAX46Y46*%
G04 Gerber Fmt 4.6, Leading zero omitted, Abs format (unit mm)*
G04 Created by KiCad (PCBNEW 7.0.8) date 2024-01-28 00:28:55*
%MOMM*%
%LPD*%
G01*
G04 APERTURE LIST*
%ADD10C,0.150000*%
%ADD11C,0.120000*%
G04 APERTURE END LIST*
D10*
X202078819Y-97393666D02*
X202793104Y-97393666D01*
X202793104Y-97393666D02*
X202935961Y-97346047D01*
X202935961Y-97346047D02*
X203031200Y-97250809D01*
X203031200Y-97250809D02*
X203078819Y-97107952D01*
X203078819Y-97107952D02*
X203078819Y-97012714D01*
X203078819Y-98393666D02*
X203078819Y-97822238D01*
X203078819Y-98107952D02*
X202078819Y-98107952D01*
X202078819Y-98107952D02*
X202221676Y-98012714D01*
X202221676Y-98012714D02*
X202316914Y-97917476D01*
X202316914Y-97917476D02*
X202364533Y-97822238D01*
D11*
%TO.C,J1*%
X203424000Y-93627000D02*
X204674000Y-93627000D01*
X209684000Y-93917000D02*
X209684000Y-101537000D01*
X203714000Y-93917000D02*
X209684000Y-93917000D01*
X205974000Y-93927000D02*
X205974000Y-94677000D01*
X204474000Y-93927000D02*
X204474000Y-95727000D01*
X203724000Y-93927000D02*
X204474000Y-93927000D01*
X208924000Y-94677000D02*
X208924000Y-97727000D01*
X205974000Y-94677000D02*
X208924000Y-94677000D01*
X203424000Y-94877000D02*
X203424000Y-93627000D01*
X204474000Y-95727000D02*
X203724000Y-95727000D01*
X203724000Y-95727000D02*
X203724000Y-93927000D01*
X204474000Y-97227000D02*
X204474000Y-98227000D01*
X203724000Y-97227000D02*
X204474000Y-97227000D01*
X204474000Y-98227000D02*
X203724000Y-98227000D01*
X203724000Y-98227000D02*
X203724000Y-97227000D01*
X204474000Y-99727000D02*
X204474000Y-101527000D01*
X203724000Y-99727000D02*
X204474000Y-99727000D01*
X208924000Y-100777000D02*
X208924000Y-97727000D01*
X205974000Y-100777000D02*
X208924000Y-100777000D01*
X205974000Y-101527000D02*
X205974000Y-100777000D01*
X204474000Y-101527000D02*
X203724000Y-101527000D01*
X203724000Y-101527000D02*
X203724000Y-99727000D01*
X209684000Y-101537000D02*
X203714000Y-101537000D01*
X203714000Y-101537000D02*
X203714000Y-93917000D01*
%TD*%
M02*
