%TF.GenerationSoftware,KiCad,Pcbnew,7.0.8*%
%TF.CreationDate,2024-01-28T00:28:55+08:00*%
%TF.ProjectId,Brake_Light,4272616b-655f-44c6-9967-68742e6b6963,v1.5*%
%TF.SameCoordinates,Original*%
%TF.FileFunction,Copper,L1,Top*%
%TF.FilePolarity,Positive*%
%FSLAX46Y46*%
G04 Gerber Fmt 4.6, Leading zero omitted, Abs format (unit mm)*
G04 Created by KiCad (PCBNEW 7.0.8) date 2024-01-28 00:28:55*
%MOMM*%
%LPD*%
G01*
G04 APERTURE LIST*
G04 Aperture macros list*
%AMRoundRect*
0 Rectangle with rounded corners*
0 $1 Rounding radius*
0 $2 $3 $4 $5 $6 $7 $8 $9 X,Y pos of 4 corners*
0 Add a 4 corners polygon primitive as box body*
4,1,4,$2,$3,$4,$5,$6,$7,$8,$9,$2,$3,0*
0 Add four circle primitives for the rounded corners*
1,1,$1+$1,$2,$3*
1,1,$1+$1,$4,$5*
1,1,$1+$1,$6,$7*
1,1,$1+$1,$8,$9*
0 Add four rect primitives between the rounded corners*
20,1,$1+$1,$2,$3,$4,$5,0*
20,1,$1+$1,$4,$5,$6,$7,0*
20,1,$1+$1,$6,$7,$8,$9,0*
20,1,$1+$1,$8,$9,$2,$3,0*%
G04 Aperture macros list end*
%TA.AperFunction,NonConductor*%
%ADD10C,0.200000*%
%TD*%
%TA.AperFunction,SMDPad,CuDef*%
%ADD11RoundRect,0.250000X-0.262500X-0.450000X0.262500X-0.450000X0.262500X0.450000X-0.262500X0.450000X0*%
%TD*%
%TA.AperFunction,SMDPad,CuDef*%
%ADD12RoundRect,0.243750X-0.243750X-0.456250X0.243750X-0.456250X0.243750X0.456250X-0.243750X0.456250X0*%
%TD*%
%TA.AperFunction,SMDPad,CuDef*%
%ADD13RoundRect,0.150000X-0.587500X-0.150000X0.587500X-0.150000X0.587500X0.150000X-0.587500X0.150000X0*%
%TD*%
%TA.AperFunction,ComponentPad*%
%ADD14RoundRect,0.250000X-0.750000X0.600000X-0.750000X-0.600000X0.750000X-0.600000X0.750000X0.600000X0*%
%TD*%
%TA.AperFunction,ComponentPad*%
%ADD15O,2.000000X1.700000*%
%TD*%
%TA.AperFunction,ViaPad*%
%ADD16C,0.800000*%
%TD*%
%TA.AperFunction,ViaPad*%
%ADD17C,1.000000*%
%TD*%
%TA.AperFunction,Conductor*%
%ADD18C,1.016000*%
%TD*%
%TA.AperFunction,Conductor*%
%ADD19C,0.254000*%
%TD*%
G04 APERTURE END LIST*
D10*
X167132000Y-122995000D02*
X177038000Y-122995000D01*
X172085000Y-118042000D02*
X172085000Y-127948000D01*
D11*
%TO.P,R1,1*%
%TO.N,Net-(Q1-S)*%
X194584500Y-98497000D03*
%TO.P,R1,2*%
%TO.N,Net-(D1-A)*%
X196409500Y-98497000D03*
%TD*%
D12*
%TO.P,D30,1,K*%
%TO.N,/GND*%
X54709500Y-103494000D03*
%TO.P,D30,2,A*%
%TO.N,Net-(D29-K)*%
X56584500Y-103494000D03*
%TD*%
%TO.P,D9,1,K*%
%TO.N,Net-(D10-A)*%
X164709500Y-103494000D03*
%TO.P,D9,2,A*%
%TO.N,Net-(D8-K)*%
X166584500Y-103494000D03*
%TD*%
%TO.P,D32,1,K*%
%TO.N,/GND*%
X54709500Y-93500000D03*
%TO.P,D32,2,A*%
%TO.N,Net-(D31-K)*%
X56584500Y-93500000D03*
%TD*%
%TO.P,D11,1,K*%
%TO.N,Net-(D11-K)*%
X164709500Y-93500000D03*
%TO.P,D11,2,A*%
%TO.N,Net-(D11-A)*%
X166584500Y-93500000D03*
%TD*%
D11*
%TO.P,R6,1*%
%TO.N,Net-(Q1-S)*%
X79734500Y-98497000D03*
%TO.P,R6,2*%
%TO.N,Net-(D26-A)*%
X81559500Y-98497000D03*
%TD*%
D12*
%TO.P,D10,1,K*%
%TO.N,/GND*%
X154709500Y-103494000D03*
%TO.P,D10,2,A*%
%TO.N,Net-(D10-A)*%
X156584500Y-103494000D03*
%TD*%
%TO.P,D7,1,K*%
%TO.N,Net-(D7-K)*%
X184709500Y-103494000D03*
%TO.P,D7,2,A*%
%TO.N,Net-(D6-K)*%
X186584500Y-103494000D03*
%TD*%
D11*
%TO.P,R3,1*%
%TO.N,Net-(Q1-S)*%
X154734500Y-98497000D03*
%TO.P,R3,2*%
%TO.N,Net-(D11-A)*%
X156559500Y-98497000D03*
%TD*%
D12*
%TO.P,D22,1,K*%
%TO.N,Net-(D22-K)*%
X104709500Y-93500000D03*
%TO.P,D22,2,A*%
%TO.N,Net-(D21-K)*%
X106584500Y-93500000D03*
%TD*%
D11*
%TO.P,R5,1*%
%TO.N,Net-(Q1-S)*%
X104734500Y-98497000D03*
%TO.P,R5,2*%
%TO.N,Net-(D21-A)*%
X106559500Y-98497000D03*
%TD*%
D12*
%TO.P,D15,1,K*%
%TO.N,/GND*%
X124709500Y-93500000D03*
%TO.P,D15,2,A*%
%TO.N,Net-(D14-K)*%
X126584500Y-93500000D03*
%TD*%
%TO.P,D17,1,K*%
%TO.N,Net-(D17-K)*%
X134709500Y-103494000D03*
%TO.P,D17,2,A*%
%TO.N,Net-(D16-K)*%
X136584500Y-103494000D03*
%TD*%
%TO.P,D26,1,K*%
%TO.N,Net-(D26-K)*%
X94709500Y-103494000D03*
%TO.P,D26,2,A*%
%TO.N,Net-(D26-A)*%
X96584500Y-103494000D03*
%TD*%
%TO.P,D2,1,K*%
%TO.N,Net-(D2-K)*%
X205282500Y-103690000D03*
%TO.P,D2,2,A*%
%TO.N,Net-(D1-K)*%
X207157500Y-103690000D03*
%TD*%
%TO.P,D25,1,K*%
%TO.N,/GND*%
X74709500Y-93500000D03*
%TO.P,D25,2,A*%
%TO.N,Net-(D24-K)*%
X76584500Y-93500000D03*
%TD*%
%TO.P,D5,1,K*%
%TO.N,/GND*%
X174709500Y-93500000D03*
%TO.P,D5,2,A*%
%TO.N,Net-(D4-K)*%
X176584500Y-93500000D03*
%TD*%
%TO.P,D13,1,K*%
%TO.N,Net-(D13-K)*%
X144709500Y-93500000D03*
%TO.P,D13,2,A*%
%TO.N,Net-(D12-K)*%
X146584500Y-93500000D03*
%TD*%
%TO.P,D29,1,K*%
%TO.N,Net-(D29-K)*%
X64709500Y-103494000D03*
%TO.P,D29,2,A*%
%TO.N,Net-(D28-K)*%
X66584500Y-103494000D03*
%TD*%
%TO.P,D3,1,K*%
%TO.N,Net-(D3-K)*%
X194559500Y-93500000D03*
%TO.P,D3,2,A*%
%TO.N,Net-(D2-K)*%
X196434500Y-93500000D03*
%TD*%
%TO.P,D8,1,K*%
%TO.N,Net-(D8-K)*%
X174709500Y-103494000D03*
%TO.P,D8,2,A*%
%TO.N,Net-(D7-K)*%
X176584500Y-103494000D03*
%TD*%
%TO.P,D23,1,K*%
%TO.N,Net-(D23-K)*%
X94709500Y-93500000D03*
%TO.P,D23,2,A*%
%TO.N,Net-(D22-K)*%
X96584500Y-93500000D03*
%TD*%
%TO.P,D12,1,K*%
%TO.N,Net-(D12-K)*%
X154709500Y-93500000D03*
%TO.P,D12,2,A*%
%TO.N,Net-(D11-K)*%
X156584500Y-93500000D03*
%TD*%
%TO.P,D14,1,K*%
%TO.N,Net-(D14-K)*%
X134709500Y-93500000D03*
%TO.P,D14,2,A*%
%TO.N,Net-(D13-K)*%
X136584500Y-93500000D03*
%TD*%
%TO.P,D4,1,K*%
%TO.N,Net-(D4-K)*%
X184709500Y-93500000D03*
%TO.P,D4,2,A*%
%TO.N,Net-(D3-K)*%
X186584500Y-93500000D03*
%TD*%
%TO.P,D31,1,K*%
%TO.N,Net-(D31-K)*%
X64709500Y-93500000D03*
%TO.P,D31,2,A*%
%TO.N,Net-(D31-A)*%
X66584500Y-93500000D03*
%TD*%
%TO.P,D20,1,K*%
%TO.N,/GND*%
X104709500Y-103494000D03*
%TO.P,D20,2,A*%
%TO.N,Net-(D19-K)*%
X106584500Y-103494000D03*
%TD*%
%TO.P,D21,1,K*%
%TO.N,Net-(D21-K)*%
X114709500Y-93500000D03*
%TO.P,D21,2,A*%
%TO.N,Net-(D21-A)*%
X116584500Y-93500000D03*
%TD*%
%TO.P,D16,1,K*%
%TO.N,Net-(D16-K)*%
X144709500Y-103494000D03*
%TO.P,D16,2,A*%
%TO.N,Net-(D16-A)*%
X146584500Y-103494000D03*
%TD*%
%TO.P,D24,1,K*%
%TO.N,Net-(D24-K)*%
X84709500Y-93500000D03*
%TO.P,D24,2,A*%
%TO.N,Net-(D23-K)*%
X86584500Y-93500000D03*
%TD*%
%TO.P,D19,1,K*%
%TO.N,Net-(D19-K)*%
X114709500Y-103494000D03*
%TO.P,D19,2,A*%
%TO.N,Net-(D18-K)*%
X116584500Y-103494000D03*
%TD*%
%TO.P,D1,1,K*%
%TO.N,Net-(D1-K)*%
X205282500Y-92360000D03*
%TO.P,D1,2,A*%
%TO.N,Net-(D1-A)*%
X207157500Y-92360000D03*
%TD*%
%TO.P,D6,1,K*%
%TO.N,Net-(D6-K)*%
X194559500Y-103494000D03*
%TO.P,D6,2,A*%
%TO.N,Net-(D6-A)*%
X196434500Y-103494000D03*
%TD*%
%TO.P,D18,1,K*%
%TO.N,Net-(D18-K)*%
X124709500Y-103494000D03*
%TO.P,D18,2,A*%
%TO.N,Net-(D17-K)*%
X126584500Y-103494000D03*
%TD*%
%TO.P,D28,1,K*%
%TO.N,Net-(D28-K)*%
X74709500Y-103494000D03*
%TO.P,D28,2,A*%
%TO.N,Net-(D27-K)*%
X76584500Y-103494000D03*
%TD*%
D11*
%TO.P,R2,1*%
%TO.N,Net-(Q1-S)*%
X179734500Y-98497000D03*
%TO.P,R2,2*%
%TO.N,Net-(D6-A)*%
X181559500Y-98497000D03*
%TD*%
D13*
%TO.P,Q1,1,G*%
%TO.N,/GND*%
X212545000Y-96940000D03*
%TO.P,Q1,2,S*%
%TO.N,Net-(Q1-S)*%
X212545000Y-98840000D03*
%TO.P,Q1,3,D*%
%TO.N,/Vcc*%
X214420000Y-97890000D03*
%TD*%
D11*
%TO.P,R4,1*%
%TO.N,Net-(Q1-S)*%
X129734500Y-98497000D03*
%TO.P,R4,2*%
%TO.N,Net-(D16-A)*%
X131559500Y-98497000D03*
%TD*%
%TO.P,R7,1*%
%TO.N,Net-(Q1-S)*%
X54734500Y-98497000D03*
%TO.P,R7,2*%
%TO.N,Net-(D31-A)*%
X56559500Y-98497000D03*
%TD*%
D12*
%TO.P,D27,1,K*%
%TO.N,Net-(D27-K)*%
X84709500Y-103494000D03*
%TO.P,D27,2,A*%
%TO.N,Net-(D26-K)*%
X86584500Y-103494000D03*
%TD*%
D14*
%TO.P,J1,1,Pin_1*%
%TO.N,/GND*%
X206174000Y-96477000D03*
D15*
%TO.P,J1,2,Pin_2*%
%TO.N,/Vcc*%
X206174000Y-98977000D03*
%TD*%
D16*
%TO.N,Net-(D1-K)*%
X201740000Y-92350000D03*
X208710000Y-103700000D03*
%TO.N,Net-(D2-K)*%
X200460000Y-92190000D03*
X203500000Y-103620000D03*
D17*
%TO.N,Net-(D6-A)*%
X190790000Y-98440000D03*
X198200000Y-103610000D03*
%TO.N,Net-(D16-A)*%
X148670000Y-103560000D03*
X148670000Y-98520000D03*
%TO.N,Net-(D26-A)*%
X93430000Y-101540000D03*
X93470000Y-98440000D03*
D16*
%TO.N,/Vcc*%
X212280000Y-102160000D03*
X208910000Y-98790000D03*
%TD*%
D18*
%TO.N,Net-(D1-K)*%
X201750000Y-92360000D02*
X201740000Y-92350000D01*
X207157500Y-103690000D02*
X208700000Y-103690000D01*
X205272500Y-92370000D02*
X205282500Y-92360000D01*
X205282500Y-92360000D02*
X201750000Y-92360000D01*
X208700000Y-103690000D02*
X208710000Y-103700000D01*
%TO.N,Net-(D1-A)*%
X207157500Y-93060000D02*
X206449500Y-93768000D01*
X206449500Y-93768000D02*
X201138500Y-93768000D01*
X201138500Y-93768000D02*
X196409500Y-98497000D01*
X207157500Y-92360000D02*
X207157500Y-93060000D01*
%TO.N,Net-(D3-K)*%
X186584500Y-93500000D02*
X194559500Y-93500000D01*
%TO.N,Net-(D2-K)*%
X200400000Y-92250000D02*
X200460000Y-92190000D01*
X205212500Y-103620000D02*
X205282500Y-103690000D01*
X197684500Y-92250000D02*
X198530000Y-92250000D01*
X196434500Y-93500000D02*
X197684500Y-92250000D01*
X198530000Y-92250000D02*
X200400000Y-92250000D01*
X203500000Y-103620000D02*
X205212500Y-103620000D01*
%TO.N,Net-(D4-K)*%
X176584500Y-93500000D02*
X184709500Y-93500000D01*
%TO.N,Net-(D6-K)*%
X194559500Y-103494000D02*
X186584500Y-103494000D01*
%TO.N,Net-(D7-K)*%
X184709500Y-103494000D02*
X176584500Y-103494000D01*
%TO.N,Net-(D6-A)*%
X198200000Y-103610000D02*
X196550500Y-103610000D01*
X196550500Y-103610000D02*
X196434500Y-103494000D01*
X190733000Y-98497000D02*
X190790000Y-98440000D01*
X181559500Y-98497000D02*
X190733000Y-98497000D01*
%TO.N,Net-(D10-A)*%
X164709500Y-103494000D02*
X156584500Y-103494000D01*
%TO.N,Net-(D8-K)*%
X174709500Y-103494000D02*
X166584500Y-103494000D01*
%TO.N,Net-(D11-K)*%
X156584500Y-93500000D02*
X164709500Y-93500000D01*
%TO.N,Net-(D11-A)*%
X156559500Y-98497000D02*
X162287500Y-98497000D01*
X166584500Y-94200000D02*
X166584500Y-93500000D01*
X162287500Y-98497000D02*
X166584500Y-94200000D01*
%TO.N,Net-(D13-K)*%
X136584500Y-93500000D02*
X144709500Y-93500000D01*
%TO.N,Net-(D12-K)*%
X146584500Y-93500000D02*
X154709500Y-93500000D01*
%TO.N,Net-(D14-K)*%
X126584500Y-93500000D02*
X134709500Y-93500000D01*
%TO.N,Net-(D16-K)*%
X144709500Y-103494000D02*
X136584500Y-103494000D01*
%TO.N,Net-(D17-K)*%
X134709500Y-103494000D02*
X126584500Y-103494000D01*
%TO.N,Net-(D16-A)*%
X148647000Y-98497000D02*
X148670000Y-98520000D01*
D19*
X146558000Y-103467500D02*
X146584500Y-103494000D01*
D18*
X148670000Y-103560000D02*
X146650500Y-103560000D01*
X146610000Y-103468500D02*
X146584500Y-103494000D01*
X131559500Y-98497000D02*
X148647000Y-98497000D01*
X146650500Y-103560000D02*
X146584500Y-103494000D01*
%TO.N,Net-(D19-K)*%
X114709500Y-103494000D02*
X106584500Y-103494000D01*
%TO.N,Net-(D18-K)*%
X124709500Y-103494000D02*
X116584500Y-103494000D01*
%TO.N,Net-(D21-K)*%
X106584500Y-93500000D02*
X114709500Y-93500000D01*
%TO.N,Net-(D21-A)*%
X111758478Y-98497000D02*
X116584500Y-93670978D01*
X116584500Y-93670978D02*
X116584500Y-93500000D01*
X106559500Y-98497000D02*
X111758478Y-98497000D01*
%TO.N,Net-(D23-K)*%
X86584500Y-93500000D02*
X94709500Y-93500000D01*
%TO.N,Net-(D22-K)*%
X96584500Y-93500000D02*
X104709500Y-93500000D01*
%TO.N,Net-(D24-K)*%
X76584500Y-93500000D02*
X84709500Y-93500000D01*
%TO.N,Net-(D26-K)*%
X94709500Y-103494000D02*
X86584500Y-103494000D01*
%TO.N,Net-(D27-K)*%
X84709500Y-103494000D02*
X76584500Y-103494000D01*
%TO.N,Net-(D26-A)*%
X93413000Y-98497000D02*
X93470000Y-98440000D01*
X95330500Y-101540000D02*
X96584500Y-102794000D01*
X93430000Y-101540000D02*
X95330500Y-101540000D01*
D19*
X96520000Y-103429500D02*
X96584500Y-103494000D01*
D18*
X96584500Y-102794000D02*
X96584500Y-103494000D01*
X81559500Y-98497000D02*
X93413000Y-98497000D01*
%TO.N,Net-(D29-K)*%
X64709500Y-103494000D02*
X56584500Y-103494000D01*
%TO.N,Net-(D28-K)*%
X74709500Y-103494000D02*
X66584500Y-103494000D01*
%TO.N,/Vcc*%
X208910000Y-98790000D02*
X206361000Y-98790000D01*
X206378818Y-98977000D02*
X206174000Y-98977000D01*
X214420000Y-100020000D02*
X212280000Y-102160000D01*
X206361000Y-98790000D02*
X206174000Y-98977000D01*
X214420000Y-97890000D02*
X214420000Y-100020000D01*
%TO.N,Net-(D31-K)*%
X56584500Y-93500000D02*
X64709500Y-93500000D01*
%TO.N,Net-(D31-A)*%
X62287500Y-98497000D02*
X66584500Y-94200000D01*
X66584500Y-94200000D02*
X66584500Y-93500000D01*
X56559500Y-98497000D02*
X62287500Y-98497000D01*
%TO.N,Net-(Q1-S)*%
X129734500Y-99074500D02*
X129734500Y-98497000D01*
X179734500Y-98739318D02*
X179734500Y-98497000D01*
X154734500Y-99197000D02*
X154734500Y-98497000D01*
X104734500Y-98497000D02*
X103326500Y-99905000D01*
X128326500Y-99905000D02*
X105442500Y-99905000D01*
X212545000Y-98840000D02*
X210850000Y-100535000D01*
X103326500Y-99905000D02*
X80900182Y-99905000D01*
X196380182Y-100535000D02*
X194584500Y-98739318D01*
X78326500Y-99905000D02*
X55900182Y-99905000D01*
X130565000Y-99905000D02*
X129734500Y-99074500D01*
X80900182Y-99905000D02*
X79734500Y-98739318D01*
X154734500Y-98497000D02*
X153326500Y-99905000D01*
X54734500Y-98739318D02*
X54734500Y-98497000D01*
X193176500Y-99905000D02*
X180900182Y-99905000D01*
X129734500Y-98497000D02*
X128326500Y-99905000D01*
X55900182Y-99905000D02*
X54734500Y-98739318D01*
X105442500Y-99905000D02*
X104734500Y-99197000D01*
X155442500Y-99905000D02*
X154734500Y-99197000D01*
X79734500Y-98497000D02*
X78326500Y-99905000D01*
X194584500Y-98497000D02*
X193176500Y-99905000D01*
X178326500Y-99905000D02*
X155442500Y-99905000D01*
X104734500Y-99197000D02*
X104734500Y-98497000D01*
X79734500Y-98739318D02*
X79734500Y-98497000D01*
X153326500Y-99905000D02*
X130565000Y-99905000D01*
X180900182Y-99905000D02*
X179734500Y-98739318D01*
X210850000Y-100535000D02*
X196380182Y-100535000D01*
X179734500Y-98497000D02*
X178326500Y-99905000D01*
X194584500Y-98739318D02*
X194584500Y-98497000D01*
%TD*%
%TA.AperFunction,Conductor*%
%TO.N,/Vcc*%
G36*
X205247521Y-98654782D02*
G01*
X206169773Y-98975184D01*
X206176463Y-98981136D01*
X206176912Y-98982193D01*
X206472731Y-99785564D01*
X206472374Y-99794512D01*
X206465795Y-99800586D01*
X206465733Y-99800609D01*
X206396115Y-99825802D01*
X206392134Y-99826500D01*
X204785121Y-99826500D01*
X204776848Y-99823073D01*
X204773421Y-99814800D01*
X204773421Y-99400352D01*
X204775195Y-99394157D01*
X205233757Y-98659638D01*
X205241045Y-98654436D01*
X205247521Y-98654782D01*
G37*
%TD.AperFunction*%
%TD*%
%TA.AperFunction,Conductor*%
%TO.N,/GND*%
G36*
X216211252Y-90191279D02*
G01*
X216257119Y-90243985D01*
X216268435Y-90295875D01*
X216252488Y-104668844D01*
X216232729Y-104735861D01*
X216179874Y-104781557D01*
X216129011Y-104792705D01*
X212030000Y-104810000D01*
X209267759Y-104810000D01*
X209200720Y-104790315D01*
X209154965Y-104737511D01*
X209145021Y-104668353D01*
X209174046Y-104604797D01*
X209209306Y-104576642D01*
X209266182Y-104546241D01*
X209273003Y-104542595D01*
X209426568Y-104416568D01*
X209552595Y-104263003D01*
X209600700Y-104173004D01*
X209646238Y-104087809D01*
X209646238Y-104087808D01*
X209646241Y-104087803D01*
X209703908Y-103897701D01*
X209723380Y-103700000D01*
X209703908Y-103502299D01*
X209646241Y-103312196D01*
X209646239Y-103312193D01*
X209646239Y-103312191D01*
X209552598Y-103137002D01*
X209552594Y-103136995D01*
X209458148Y-103021913D01*
X209450310Y-103014076D01*
X209446222Y-103009565D01*
X209416568Y-102973431D01*
X209263005Y-102847405D01*
X209262998Y-102847401D01*
X209087807Y-102753760D01*
X209061724Y-102745847D01*
X208897698Y-102696090D01*
X208724245Y-102679007D01*
X208700000Y-102676620D01*
X208699999Y-102676620D01*
X208653482Y-102681201D01*
X208647402Y-102681500D01*
X207952891Y-102681500D01*
X207885852Y-102661815D01*
X207871699Y-102650410D01*
X207871666Y-102650452D01*
X207865999Y-102645971D01*
X207717933Y-102554642D01*
X207717927Y-102554639D01*
X207717925Y-102554638D01*
X207697301Y-102547804D01*
X207552776Y-102499913D01*
X207450855Y-102489500D01*
X207450848Y-102489500D01*
X206864152Y-102489500D01*
X206864144Y-102489500D01*
X206762223Y-102499913D01*
X206597077Y-102554637D01*
X206597066Y-102554642D01*
X206449000Y-102645971D01*
X206448996Y-102645974D01*
X206325974Y-102768996D01*
X206325971Y-102769000D01*
X206325538Y-102769703D01*
X206325114Y-102770083D01*
X206321493Y-102774664D01*
X206320710Y-102774045D01*
X206273590Y-102816428D01*
X206204628Y-102827649D01*
X206140546Y-102799806D01*
X206118657Y-102774544D01*
X206118507Y-102774664D01*
X206115859Y-102771315D01*
X206114462Y-102769703D01*
X206114028Y-102769000D01*
X206114025Y-102768996D01*
X205991003Y-102645974D01*
X205990999Y-102645971D01*
X205842933Y-102554642D01*
X205842927Y-102554639D01*
X205842925Y-102554638D01*
X205822301Y-102547804D01*
X205677776Y-102499913D01*
X205575855Y-102489500D01*
X205575848Y-102489500D01*
X204989152Y-102489500D01*
X204989144Y-102489500D01*
X204887223Y-102499913D01*
X204722077Y-102554637D01*
X204722070Y-102554640D01*
X204676636Y-102582664D01*
X204659818Y-102593038D01*
X204594722Y-102611500D01*
X203450453Y-102611500D01*
X203413883Y-102615101D01*
X203302300Y-102626091D01*
X203112191Y-102683760D01*
X202937001Y-102777401D01*
X202936994Y-102777405D01*
X202783431Y-102903431D01*
X202657405Y-103056994D01*
X202657401Y-103057001D01*
X202563760Y-103232191D01*
X202506091Y-103422300D01*
X202486620Y-103620000D01*
X202506091Y-103817699D01*
X202563760Y-104007808D01*
X202657401Y-104182998D01*
X202657405Y-104183005D01*
X202783431Y-104336568D01*
X202936994Y-104462594D01*
X202937001Y-104462598D01*
X203112191Y-104556239D01*
X203112193Y-104556239D01*
X203112196Y-104556241D01*
X203148784Y-104567339D01*
X203207222Y-104605637D01*
X203235678Y-104669449D01*
X203225118Y-104738516D01*
X203178894Y-104790910D01*
X203112788Y-104810000D01*
X198554247Y-104810000D01*
X198487208Y-104790315D01*
X198441453Y-104737511D01*
X198431509Y-104668353D01*
X198460534Y-104604797D01*
X198518251Y-104567339D01*
X198587804Y-104546241D01*
X198594624Y-104542596D01*
X198681348Y-104496241D01*
X198763004Y-104452595D01*
X198916568Y-104326568D01*
X199042595Y-104173004D01*
X199135145Y-103999855D01*
X199136239Y-103997808D01*
X199136239Y-103997807D01*
X199136241Y-103997804D01*
X199193908Y-103807701D01*
X199213380Y-103610000D01*
X199193908Y-103412299D01*
X199136241Y-103222196D01*
X199136239Y-103222193D01*
X199136239Y-103222191D01*
X199042598Y-103047001D01*
X199042594Y-103046994D01*
X198916568Y-102893431D01*
X198763005Y-102767405D01*
X198762998Y-102767401D01*
X198587808Y-102673760D01*
X198492752Y-102644925D01*
X198397701Y-102616092D01*
X198397699Y-102616091D01*
X198397701Y-102616091D01*
X198283336Y-102604827D01*
X198249547Y-102601500D01*
X198249544Y-102601500D01*
X197345891Y-102601500D01*
X197278852Y-102581815D01*
X197258210Y-102565181D01*
X197143003Y-102449974D01*
X197142999Y-102449971D01*
X196994933Y-102358642D01*
X196994927Y-102358639D01*
X196994925Y-102358638D01*
X196992097Y-102357701D01*
X196829776Y-102303913D01*
X196727855Y-102293500D01*
X196727848Y-102293500D01*
X196141152Y-102293500D01*
X196141144Y-102293500D01*
X196039223Y-102303913D01*
X195874077Y-102358637D01*
X195874066Y-102358642D01*
X195726000Y-102449971D01*
X195725996Y-102449974D01*
X195602974Y-102572996D01*
X195602971Y-102573000D01*
X195602538Y-102573703D01*
X195602114Y-102574083D01*
X195598493Y-102578664D01*
X195597710Y-102578045D01*
X195550590Y-102620428D01*
X195481628Y-102631649D01*
X195417546Y-102603806D01*
X195395657Y-102578544D01*
X195395507Y-102578664D01*
X195392859Y-102575315D01*
X195391462Y-102573703D01*
X195391028Y-102573000D01*
X195391025Y-102572996D01*
X195268003Y-102449974D01*
X195267999Y-102449971D01*
X195119933Y-102358642D01*
X195119927Y-102358639D01*
X195119925Y-102358638D01*
X195117097Y-102357701D01*
X194954776Y-102303913D01*
X194852855Y-102293500D01*
X194852848Y-102293500D01*
X194266152Y-102293500D01*
X194266144Y-102293500D01*
X194164223Y-102303913D01*
X193999077Y-102358637D01*
X193999066Y-102358642D01*
X193851000Y-102449971D01*
X193845334Y-102454452D01*
X193844369Y-102453232D01*
X193790467Y-102482666D01*
X193764109Y-102485500D01*
X187379891Y-102485500D01*
X187312852Y-102465815D01*
X187298699Y-102454410D01*
X187298666Y-102454452D01*
X187292999Y-102449971D01*
X187144933Y-102358642D01*
X187144927Y-102358639D01*
X187144925Y-102358638D01*
X187142097Y-102357701D01*
X186979776Y-102303913D01*
X186877855Y-102293500D01*
X186877848Y-102293500D01*
X186291152Y-102293500D01*
X186291144Y-102293500D01*
X186189223Y-102303913D01*
X186024077Y-102358637D01*
X186024066Y-102358642D01*
X185876000Y-102449971D01*
X185875996Y-102449974D01*
X185752974Y-102572996D01*
X185752971Y-102573000D01*
X185752538Y-102573703D01*
X185752114Y-102574083D01*
X185748493Y-102578664D01*
X185747710Y-102578045D01*
X185700590Y-102620428D01*
X185631628Y-102631649D01*
X185567546Y-102603806D01*
X185545657Y-102578544D01*
X185545507Y-102578664D01*
X185542859Y-102575315D01*
X185541462Y-102573703D01*
X185541028Y-102573000D01*
X185541025Y-102572996D01*
X185418003Y-102449974D01*
X185417999Y-102449971D01*
X185269933Y-102358642D01*
X185269927Y-102358639D01*
X185269925Y-102358638D01*
X185267097Y-102357701D01*
X185104776Y-102303913D01*
X185002855Y-102293500D01*
X185002848Y-102293500D01*
X184416152Y-102293500D01*
X184416144Y-102293500D01*
X184314223Y-102303913D01*
X184149077Y-102358637D01*
X184149066Y-102358642D01*
X184001000Y-102449971D01*
X183995334Y-102454452D01*
X183994369Y-102453232D01*
X183940467Y-102482666D01*
X183914109Y-102485500D01*
X177379891Y-102485500D01*
X177312852Y-102465815D01*
X177298699Y-102454410D01*
X177298666Y-102454452D01*
X177292999Y-102449971D01*
X177144933Y-102358642D01*
X177144927Y-102358639D01*
X177144925Y-102358638D01*
X177142097Y-102357701D01*
X176979776Y-102303913D01*
X176877855Y-102293500D01*
X176877848Y-102293500D01*
X176291152Y-102293500D01*
X176291144Y-102293500D01*
X176189223Y-102303913D01*
X176024077Y-102358637D01*
X176024066Y-102358642D01*
X175876000Y-102449971D01*
X175875996Y-102449974D01*
X175752974Y-102572996D01*
X175752971Y-102573000D01*
X175752538Y-102573703D01*
X175752114Y-102574083D01*
X175748493Y-102578664D01*
X175747710Y-102578045D01*
X175700590Y-102620428D01*
X175631628Y-102631649D01*
X175567546Y-102603806D01*
X175545657Y-102578544D01*
X175545507Y-102578664D01*
X175542859Y-102575315D01*
X175541462Y-102573703D01*
X175541028Y-102573000D01*
X175541025Y-102572996D01*
X175418003Y-102449974D01*
X175417999Y-102449971D01*
X175269933Y-102358642D01*
X175269927Y-102358639D01*
X175269925Y-102358638D01*
X175267097Y-102357701D01*
X175104776Y-102303913D01*
X175002855Y-102293500D01*
X175002848Y-102293500D01*
X174416152Y-102293500D01*
X174416144Y-102293500D01*
X174314223Y-102303913D01*
X174149077Y-102358637D01*
X174149066Y-102358642D01*
X174001000Y-102449971D01*
X173995334Y-102454452D01*
X173994369Y-102453232D01*
X173940467Y-102482666D01*
X173914109Y-102485500D01*
X167379891Y-102485500D01*
X167312852Y-102465815D01*
X167298699Y-102454410D01*
X167298666Y-102454452D01*
X167292999Y-102449971D01*
X167144933Y-102358642D01*
X167144927Y-102358639D01*
X167144925Y-102358638D01*
X167142097Y-102357701D01*
X166979776Y-102303913D01*
X166877855Y-102293500D01*
X166877848Y-102293500D01*
X166291152Y-102293500D01*
X166291144Y-102293500D01*
X166189223Y-102303913D01*
X166024077Y-102358637D01*
X166024066Y-102358642D01*
X165876000Y-102449971D01*
X165875996Y-102449974D01*
X165752974Y-102572996D01*
X165752971Y-102573000D01*
X165752538Y-102573703D01*
X165752114Y-102574083D01*
X165748493Y-102578664D01*
X165747710Y-102578045D01*
X165700590Y-102620428D01*
X165631628Y-102631649D01*
X165567546Y-102603806D01*
X165545657Y-102578544D01*
X165545507Y-102578664D01*
X165542859Y-102575315D01*
X165541462Y-102573703D01*
X165541028Y-102573000D01*
X165541025Y-102572996D01*
X165418003Y-102449974D01*
X165417999Y-102449971D01*
X165269933Y-102358642D01*
X165269927Y-102358639D01*
X165269925Y-102358638D01*
X165267097Y-102357701D01*
X165104776Y-102303913D01*
X165002855Y-102293500D01*
X165002848Y-102293500D01*
X164416152Y-102293500D01*
X164416144Y-102293500D01*
X164314223Y-102303913D01*
X164149077Y-102358637D01*
X164149066Y-102358642D01*
X164001000Y-102449971D01*
X163995334Y-102454452D01*
X163994369Y-102453232D01*
X163940467Y-102482666D01*
X163914109Y-102485500D01*
X157379891Y-102485500D01*
X157312852Y-102465815D01*
X157298699Y-102454410D01*
X157298666Y-102454452D01*
X157292999Y-102449971D01*
X157144933Y-102358642D01*
X157144927Y-102358639D01*
X157144925Y-102358638D01*
X157142097Y-102357701D01*
X156979776Y-102303913D01*
X156877855Y-102293500D01*
X156877848Y-102293500D01*
X156291152Y-102293500D01*
X156291144Y-102293500D01*
X156189223Y-102303913D01*
X156024077Y-102358637D01*
X156024066Y-102358642D01*
X155876000Y-102449971D01*
X155875996Y-102449974D01*
X155752974Y-102572996D01*
X155752971Y-102573000D01*
X155661642Y-102721066D01*
X155661637Y-102721077D01*
X155606913Y-102886223D01*
X155596500Y-102988144D01*
X155596500Y-103258429D01*
X155591769Y-103290324D01*
X155591780Y-103290327D01*
X155591736Y-103290543D01*
X155591162Y-103294420D01*
X155590591Y-103296299D01*
X155571120Y-103494000D01*
X155590591Y-103691697D01*
X155590591Y-103691699D01*
X155590592Y-103691701D01*
X155591161Y-103693578D01*
X155591736Y-103697456D01*
X155591780Y-103697674D01*
X155591769Y-103697676D01*
X155596500Y-103729571D01*
X155596500Y-103999855D01*
X155606913Y-104101776D01*
X155661637Y-104266922D01*
X155661642Y-104266933D01*
X155752971Y-104414999D01*
X155752974Y-104415003D01*
X155875996Y-104538025D01*
X155876000Y-104538028D01*
X155944795Y-104580462D01*
X155991520Y-104632410D01*
X156002741Y-104701372D01*
X155974898Y-104765454D01*
X155916829Y-104804310D01*
X155879698Y-104810000D01*
X148791633Y-104810000D01*
X148724594Y-104790315D01*
X148678839Y-104737511D01*
X148668895Y-104668353D01*
X148697920Y-104604797D01*
X148756698Y-104567023D01*
X148779477Y-104562597D01*
X148867701Y-104553908D01*
X149057804Y-104496241D01*
X149120752Y-104462595D01*
X149209790Y-104415003D01*
X149233004Y-104402595D01*
X149386568Y-104276568D01*
X149512595Y-104123004D01*
X149606241Y-103947804D01*
X149663908Y-103757701D01*
X149683380Y-103560000D01*
X149663908Y-103362299D01*
X149606241Y-103172196D01*
X149606239Y-103172193D01*
X149606239Y-103172191D01*
X149512598Y-102997001D01*
X149512594Y-102996994D01*
X149386568Y-102843431D01*
X149233005Y-102717405D01*
X149232998Y-102717401D01*
X149057808Y-102623760D01*
X148909145Y-102578664D01*
X148867701Y-102566092D01*
X148867699Y-102566091D01*
X148867701Y-102566091D01*
X148751397Y-102554637D01*
X148719547Y-102551500D01*
X148719544Y-102551500D01*
X147445891Y-102551500D01*
X147378852Y-102531815D01*
X147358210Y-102515181D01*
X147293003Y-102449974D01*
X147292999Y-102449971D01*
X147144933Y-102358642D01*
X147144927Y-102358639D01*
X147144925Y-102358638D01*
X147142097Y-102357701D01*
X146979776Y-102303913D01*
X146877855Y-102293500D01*
X146877848Y-102293500D01*
X146291152Y-102293500D01*
X146291144Y-102293500D01*
X146189223Y-102303913D01*
X146024077Y-102358637D01*
X146024066Y-102358642D01*
X145876000Y-102449971D01*
X145875996Y-102449974D01*
X145752974Y-102572996D01*
X145752971Y-102573000D01*
X145752538Y-102573703D01*
X145752114Y-102574083D01*
X145748493Y-102578664D01*
X145747710Y-102578045D01*
X145700590Y-102620428D01*
X145631628Y-102631649D01*
X145567546Y-102603806D01*
X145545657Y-102578544D01*
X145545507Y-102578664D01*
X145542859Y-102575315D01*
X145541462Y-102573703D01*
X145541028Y-102573000D01*
X145541025Y-102572996D01*
X145418003Y-102449974D01*
X145417999Y-102449971D01*
X145269933Y-102358642D01*
X145269927Y-102358639D01*
X145269925Y-102358638D01*
X145267097Y-102357701D01*
X145104776Y-102303913D01*
X145002855Y-102293500D01*
X145002848Y-102293500D01*
X144416152Y-102293500D01*
X144416144Y-102293500D01*
X144314223Y-102303913D01*
X144149077Y-102358637D01*
X144149066Y-102358642D01*
X144001000Y-102449971D01*
X143995334Y-102454452D01*
X143994369Y-102453232D01*
X143940467Y-102482666D01*
X143914109Y-102485500D01*
X137379891Y-102485500D01*
X137312852Y-102465815D01*
X137298699Y-102454410D01*
X137298666Y-102454452D01*
X137292999Y-102449971D01*
X137144933Y-102358642D01*
X137144927Y-102358639D01*
X137144925Y-102358638D01*
X137142097Y-102357701D01*
X136979776Y-102303913D01*
X136877855Y-102293500D01*
X136877848Y-102293500D01*
X136291152Y-102293500D01*
X136291144Y-102293500D01*
X136189223Y-102303913D01*
X136024077Y-102358637D01*
X136024066Y-102358642D01*
X135876000Y-102449971D01*
X135875996Y-102449974D01*
X135752974Y-102572996D01*
X135752971Y-102573000D01*
X135752538Y-102573703D01*
X135752114Y-102574083D01*
X135748493Y-102578664D01*
X135747710Y-102578045D01*
X135700590Y-102620428D01*
X135631628Y-102631649D01*
X135567546Y-102603806D01*
X135545657Y-102578544D01*
X135545507Y-102578664D01*
X135542859Y-102575315D01*
X135541462Y-102573703D01*
X135541028Y-102573000D01*
X135541025Y-102572996D01*
X135418003Y-102449974D01*
X135417999Y-102449971D01*
X135269933Y-102358642D01*
X135269927Y-102358639D01*
X135269925Y-102358638D01*
X135267097Y-102357701D01*
X135104776Y-102303913D01*
X135002855Y-102293500D01*
X135002848Y-102293500D01*
X134416152Y-102293500D01*
X134416144Y-102293500D01*
X134314223Y-102303913D01*
X134149077Y-102358637D01*
X134149066Y-102358642D01*
X134001000Y-102449971D01*
X133995334Y-102454452D01*
X133994369Y-102453232D01*
X133940467Y-102482666D01*
X133914109Y-102485500D01*
X127379891Y-102485500D01*
X127312852Y-102465815D01*
X127298699Y-102454410D01*
X127298666Y-102454452D01*
X127292999Y-102449971D01*
X127144933Y-102358642D01*
X127144927Y-102358639D01*
X127144925Y-102358638D01*
X127142097Y-102357701D01*
X126979776Y-102303913D01*
X126877855Y-102293500D01*
X126877848Y-102293500D01*
X126291152Y-102293500D01*
X126291144Y-102293500D01*
X126189223Y-102303913D01*
X126024077Y-102358637D01*
X126024066Y-102358642D01*
X125876000Y-102449971D01*
X125875996Y-102449974D01*
X125752974Y-102572996D01*
X125752971Y-102573000D01*
X125752538Y-102573703D01*
X125752114Y-102574083D01*
X125748493Y-102578664D01*
X125747710Y-102578045D01*
X125700590Y-102620428D01*
X125631628Y-102631649D01*
X125567546Y-102603806D01*
X125545657Y-102578544D01*
X125545507Y-102578664D01*
X125542859Y-102575315D01*
X125541462Y-102573703D01*
X125541028Y-102573000D01*
X125541025Y-102572996D01*
X125418003Y-102449974D01*
X125417999Y-102449971D01*
X125269933Y-102358642D01*
X125269927Y-102358639D01*
X125269925Y-102358638D01*
X125267097Y-102357701D01*
X125104776Y-102303913D01*
X125002855Y-102293500D01*
X125002848Y-102293500D01*
X124416152Y-102293500D01*
X124416144Y-102293500D01*
X124314223Y-102303913D01*
X124149077Y-102358637D01*
X124149066Y-102358642D01*
X124001000Y-102449971D01*
X123995334Y-102454452D01*
X123994369Y-102453232D01*
X123940467Y-102482666D01*
X123914109Y-102485500D01*
X117379891Y-102485500D01*
X117312852Y-102465815D01*
X117298699Y-102454410D01*
X117298666Y-102454452D01*
X117292999Y-102449971D01*
X117144933Y-102358642D01*
X117144927Y-102358639D01*
X117144925Y-102358638D01*
X117142097Y-102357701D01*
X116979776Y-102303913D01*
X116877855Y-102293500D01*
X116877848Y-102293500D01*
X116291152Y-102293500D01*
X116291144Y-102293500D01*
X116189223Y-102303913D01*
X116024077Y-102358637D01*
X116024066Y-102358642D01*
X115876000Y-102449971D01*
X115875996Y-102449974D01*
X115752974Y-102572996D01*
X115752971Y-102573000D01*
X115752538Y-102573703D01*
X115752114Y-102574083D01*
X115748493Y-102578664D01*
X115747710Y-102578045D01*
X115700590Y-102620428D01*
X115631628Y-102631649D01*
X115567546Y-102603806D01*
X115545657Y-102578544D01*
X115545507Y-102578664D01*
X115542859Y-102575315D01*
X115541462Y-102573703D01*
X115541028Y-102573000D01*
X115541025Y-102572996D01*
X115418003Y-102449974D01*
X115417999Y-102449971D01*
X115269933Y-102358642D01*
X115269927Y-102358639D01*
X115269925Y-102358638D01*
X115267097Y-102357701D01*
X115104776Y-102303913D01*
X115002855Y-102293500D01*
X115002848Y-102293500D01*
X114416152Y-102293500D01*
X114416144Y-102293500D01*
X114314223Y-102303913D01*
X114149077Y-102358637D01*
X114149066Y-102358642D01*
X114001000Y-102449971D01*
X113995334Y-102454452D01*
X113994369Y-102453232D01*
X113940467Y-102482666D01*
X113914109Y-102485500D01*
X107379891Y-102485500D01*
X107312852Y-102465815D01*
X107298699Y-102454410D01*
X107298666Y-102454452D01*
X107292999Y-102449971D01*
X107144933Y-102358642D01*
X107144927Y-102358639D01*
X107144925Y-102358638D01*
X107142097Y-102357701D01*
X106979776Y-102303913D01*
X106877855Y-102293500D01*
X106877848Y-102293500D01*
X106291152Y-102293500D01*
X106291144Y-102293500D01*
X106189223Y-102303913D01*
X106024077Y-102358637D01*
X106024066Y-102358642D01*
X105876000Y-102449971D01*
X105875996Y-102449974D01*
X105752974Y-102572996D01*
X105752971Y-102573000D01*
X105661642Y-102721066D01*
X105661637Y-102721077D01*
X105606913Y-102886223D01*
X105596500Y-102988144D01*
X105596500Y-103258429D01*
X105591769Y-103290324D01*
X105591780Y-103290327D01*
X105591736Y-103290543D01*
X105591162Y-103294420D01*
X105590591Y-103296299D01*
X105571120Y-103494000D01*
X105590591Y-103691697D01*
X105590591Y-103691699D01*
X105590592Y-103691701D01*
X105591161Y-103693578D01*
X105591736Y-103697456D01*
X105591780Y-103697674D01*
X105591769Y-103697676D01*
X105596500Y-103729571D01*
X105596500Y-103999855D01*
X105606913Y-104101776D01*
X105661637Y-104266922D01*
X105661642Y-104266933D01*
X105752971Y-104414999D01*
X105752974Y-104415003D01*
X105875996Y-104538025D01*
X105876000Y-104538028D01*
X105944795Y-104580462D01*
X105991520Y-104632410D01*
X106002741Y-104701372D01*
X105974898Y-104765454D01*
X105916829Y-104804310D01*
X105879698Y-104810000D01*
X97289302Y-104810000D01*
X97222263Y-104790315D01*
X97176508Y-104737511D01*
X97166564Y-104668353D01*
X97195589Y-104604797D01*
X97224205Y-104580462D01*
X97279684Y-104546241D01*
X97293003Y-104538026D01*
X97416026Y-104415003D01*
X97507362Y-104266925D01*
X97562087Y-104101775D01*
X97572500Y-103999848D01*
X97572500Y-103729571D01*
X97577230Y-103697676D01*
X97577220Y-103697674D01*
X97577263Y-103697456D01*
X97577838Y-103693578D01*
X97578408Y-103691701D01*
X97593000Y-103543547D01*
X97593000Y-102846597D01*
X97593299Y-102840517D01*
X97595671Y-102816428D01*
X97597880Y-102794000D01*
X97578409Y-102596299D01*
X97521184Y-102407659D01*
X97520820Y-102406343D01*
X97427098Y-102231001D01*
X97427094Y-102230994D01*
X97301068Y-102077432D01*
X97264932Y-102047776D01*
X97260430Y-102043696D01*
X96341915Y-101125181D01*
X96308430Y-101063858D01*
X96313414Y-100994166D01*
X96355286Y-100938233D01*
X96420750Y-100913816D01*
X96429596Y-100913500D01*
X103273902Y-100913500D01*
X103279982Y-100913799D01*
X103294011Y-100915180D01*
X103326500Y-100918380D01*
X103524201Y-100898909D01*
X103714304Y-100841241D01*
X103747622Y-100823432D01*
X103889504Y-100747595D01*
X104043068Y-100621568D01*
X104072738Y-100585413D01*
X104076788Y-100580944D01*
X104296821Y-100360911D01*
X104358141Y-100327429D01*
X104427833Y-100332413D01*
X104472180Y-100360914D01*
X104692196Y-100580930D01*
X104696276Y-100585432D01*
X104725929Y-100621565D01*
X104725930Y-100621566D01*
X104725932Y-100621568D01*
X104861348Y-100732701D01*
X104879496Y-100747595D01*
X104879498Y-100747596D01*
X104879502Y-100747599D01*
X105054691Y-100841239D01*
X105054693Y-100841239D01*
X105054696Y-100841241D01*
X105244799Y-100898908D01*
X105244798Y-100898908D01*
X105262524Y-100900653D01*
X105442500Y-100918380D01*
X105476422Y-100915038D01*
X105489015Y-100913799D01*
X105495096Y-100913500D01*
X128273902Y-100913500D01*
X128279982Y-100913799D01*
X128294011Y-100915180D01*
X128326500Y-100918380D01*
X128524201Y-100898909D01*
X128714304Y-100841241D01*
X128747622Y-100823432D01*
X128889504Y-100747595D01*
X129043068Y-100621568D01*
X129072738Y-100585413D01*
X129076788Y-100580944D01*
X129358071Y-100299661D01*
X129419391Y-100266179D01*
X129489083Y-100271163D01*
X129533430Y-100299664D01*
X129814696Y-100580930D01*
X129818776Y-100585432D01*
X129848429Y-100621565D01*
X129848430Y-100621566D01*
X129848432Y-100621568D01*
X129983848Y-100732701D01*
X130001996Y-100747595D01*
X130001998Y-100747596D01*
X130002002Y-100747599D01*
X130177191Y-100841239D01*
X130177193Y-100841239D01*
X130177196Y-100841241D01*
X130367299Y-100898908D01*
X130367298Y-100898908D01*
X130385024Y-100900653D01*
X130565000Y-100918380D01*
X130598922Y-100915038D01*
X130611515Y-100913799D01*
X130617596Y-100913500D01*
X153273902Y-100913500D01*
X153279982Y-100913799D01*
X153294011Y-100915180D01*
X153326500Y-100918380D01*
X153524201Y-100898909D01*
X153714304Y-100841241D01*
X153747622Y-100823432D01*
X153889504Y-100747595D01*
X154043068Y-100621568D01*
X154072738Y-100585413D01*
X154076788Y-100580944D01*
X154296821Y-100360911D01*
X154358141Y-100327429D01*
X154427833Y-100332413D01*
X154472180Y-100360914D01*
X154692196Y-100580930D01*
X154696276Y-100585432D01*
X154725929Y-100621565D01*
X154725930Y-100621566D01*
X154725932Y-100621568D01*
X154861348Y-100732701D01*
X154879496Y-100747595D01*
X154879498Y-100747596D01*
X154879502Y-100747599D01*
X155054691Y-100841239D01*
X155054693Y-100841239D01*
X155054696Y-100841241D01*
X155244799Y-100898908D01*
X155244798Y-100898908D01*
X155262524Y-100900653D01*
X155442500Y-100918380D01*
X155476422Y-100915038D01*
X155489015Y-100913799D01*
X155495096Y-100913500D01*
X178273902Y-100913500D01*
X178279982Y-100913799D01*
X178294011Y-100915180D01*
X178326500Y-100918380D01*
X178524201Y-100898909D01*
X178714304Y-100841241D01*
X178747622Y-100823432D01*
X178889504Y-100747595D01*
X179043068Y-100621568D01*
X179072738Y-100585413D01*
X179076788Y-100580944D01*
X179525663Y-100132070D01*
X179586982Y-100098588D01*
X179656674Y-100103572D01*
X179701021Y-100132073D01*
X180149878Y-100580930D01*
X180153958Y-100585432D01*
X180183611Y-100621565D01*
X180183612Y-100621566D01*
X180183614Y-100621568D01*
X180319030Y-100732701D01*
X180337178Y-100747595D01*
X180337180Y-100747596D01*
X180337184Y-100747599D01*
X180512373Y-100841239D01*
X180512375Y-100841239D01*
X180512378Y-100841241D01*
X180702481Y-100898908D01*
X180702480Y-100898908D01*
X180720206Y-100900653D01*
X180900182Y-100918380D01*
X180934104Y-100915038D01*
X180946697Y-100913799D01*
X180952778Y-100913500D01*
X193123902Y-100913500D01*
X193129982Y-100913799D01*
X193144011Y-100915180D01*
X193176500Y-100918380D01*
X193374201Y-100898909D01*
X193564304Y-100841241D01*
X193597622Y-100823432D01*
X193739504Y-100747595D01*
X193893068Y-100621568D01*
X193922738Y-100585413D01*
X193926788Y-100580944D01*
X194375663Y-100132070D01*
X194436982Y-100098588D01*
X194506674Y-100103572D01*
X194551021Y-100132073D01*
X195629878Y-101210930D01*
X195633956Y-101215430D01*
X195663614Y-101251568D01*
X195817178Y-101377595D01*
X195992378Y-101471241D01*
X196004863Y-101475028D01*
X196036624Y-101484662D01*
X196182477Y-101528908D01*
X196182481Y-101528909D01*
X196380182Y-101548380D01*
X196413664Y-101545082D01*
X196426700Y-101543799D01*
X196432780Y-101543500D01*
X210797402Y-101543500D01*
X210803482Y-101543799D01*
X210817511Y-101545180D01*
X210850000Y-101548380D01*
X211047701Y-101528909D01*
X211237804Y-101471241D01*
X211250833Y-101464276D01*
X211319233Y-101450031D01*
X211384478Y-101475028D01*
X211425852Y-101531331D01*
X211430218Y-101601064D01*
X211418649Y-101632084D01*
X211343758Y-101772196D01*
X211286091Y-101962296D01*
X211266620Y-102160000D01*
X211286091Y-102357703D01*
X211343759Y-102547805D01*
X211437401Y-102722997D01*
X211437406Y-102723004D01*
X211563431Y-102876568D01*
X211666617Y-102961249D01*
X211716997Y-103002595D01*
X211717000Y-103002596D01*
X211717002Y-103002598D01*
X211818770Y-103056994D01*
X211892196Y-103096241D01*
X212082299Y-103153909D01*
X212280000Y-103173380D01*
X212477701Y-103153909D01*
X212667804Y-103096241D01*
X212843003Y-103002595D01*
X212958082Y-102908152D01*
X215095944Y-100770288D01*
X215100413Y-100766238D01*
X215136568Y-100736568D01*
X215262595Y-100583004D01*
X215356241Y-100407804D01*
X215413909Y-100217701D01*
X215433380Y-100020000D01*
X215428799Y-99973481D01*
X215428500Y-99967401D01*
X215428500Y-98590308D01*
X215448185Y-98523269D01*
X215464814Y-98502631D01*
X215525581Y-98441865D01*
X215609244Y-98300398D01*
X215655098Y-98142569D01*
X215658000Y-98105694D01*
X215658000Y-97674306D01*
X215657757Y-97671223D01*
X215655453Y-97641937D01*
X215655098Y-97637431D01*
X215651922Y-97626500D01*
X215609245Y-97479606D01*
X215609244Y-97479603D01*
X215609244Y-97479602D01*
X215525581Y-97338135D01*
X215525579Y-97338133D01*
X215525576Y-97338129D01*
X215409370Y-97221923D01*
X215409362Y-97221917D01*
X215267896Y-97138255D01*
X215267893Y-97138254D01*
X215110073Y-97092402D01*
X215110067Y-97092401D01*
X215081262Y-97090134D01*
X215073196Y-97089500D01*
X215073944Y-97089529D01*
X215007730Y-97067225D01*
X215000151Y-97061477D01*
X214983006Y-97047406D01*
X214983002Y-97047403D01*
X214807808Y-96953760D01*
X214712752Y-96924925D01*
X214617701Y-96896092D01*
X214617699Y-96896091D01*
X214617701Y-96896091D01*
X214420000Y-96876620D01*
X214222300Y-96896091D01*
X214032191Y-96953760D01*
X213856997Y-97047403D01*
X213856994Y-97047405D01*
X213839846Y-97061479D01*
X213775535Y-97088791D01*
X213766058Y-97089529D01*
X213766810Y-97089499D01*
X213729933Y-97092401D01*
X213729926Y-97092402D01*
X213572106Y-97138254D01*
X213572103Y-97138255D01*
X213430637Y-97221917D01*
X213430629Y-97221923D01*
X213314423Y-97338129D01*
X213314417Y-97338137D01*
X213230755Y-97479603D01*
X213230754Y-97479606D01*
X213184902Y-97637426D01*
X213184901Y-97637432D01*
X213182000Y-97674304D01*
X213182000Y-97830075D01*
X213162315Y-97897114D01*
X213109511Y-97942869D01*
X213040353Y-97952813D01*
X212999547Y-97939433D01*
X212932805Y-97903759D01*
X212742703Y-97846091D01*
X212545000Y-97826620D01*
X212347296Y-97846091D01*
X212157194Y-97903759D01*
X211982002Y-97997401D01*
X211981995Y-97997405D01*
X211964847Y-98011479D01*
X211900536Y-98038791D01*
X211891056Y-98039529D01*
X211891803Y-98039500D01*
X211884286Y-98040091D01*
X211854932Y-98042401D01*
X211854926Y-98042402D01*
X211697106Y-98088254D01*
X211697103Y-98088255D01*
X211555637Y-98171917D01*
X211555629Y-98171923D01*
X211439423Y-98288129D01*
X211439417Y-98288137D01*
X211355755Y-98429603D01*
X211355754Y-98429606D01*
X211309902Y-98587426D01*
X211309901Y-98587431D01*
X211308243Y-98608508D01*
X211283358Y-98673796D01*
X211272306Y-98686459D01*
X210468585Y-99490181D01*
X210407262Y-99523666D01*
X210380904Y-99526500D01*
X209866741Y-99526500D01*
X209799702Y-99506815D01*
X209753947Y-99454011D01*
X209744003Y-99384853D01*
X209757383Y-99344047D01*
X209846239Y-99177808D01*
X209846239Y-99177807D01*
X209846241Y-99177804D01*
X209903908Y-98987701D01*
X209923380Y-98790000D01*
X209903908Y-98592299D01*
X209846241Y-98402196D01*
X209846239Y-98402193D01*
X209846239Y-98402191D01*
X209752598Y-98227001D01*
X209752594Y-98226994D01*
X209626568Y-98073431D01*
X209473005Y-97947405D01*
X209472998Y-97947401D01*
X209297808Y-97853760D01*
X209182958Y-97818921D01*
X209107701Y-97796092D01*
X209107699Y-97796091D01*
X209107701Y-97796091D01*
X208993336Y-97784827D01*
X208959547Y-97781500D01*
X208959544Y-97781500D01*
X206983288Y-97781500D01*
X206930883Y-97769882D01*
X206840355Y-97727668D01*
X206787663Y-97703097D01*
X206787659Y-97703096D01*
X206787655Y-97703094D01*
X206559413Y-97641938D01*
X206559403Y-97641936D01*
X206382966Y-97626500D01*
X205965034Y-97626500D01*
X205788596Y-97641936D01*
X205788586Y-97641938D01*
X205560344Y-97703094D01*
X205560335Y-97703098D01*
X205346171Y-97802964D01*
X205346169Y-97802965D01*
X205152597Y-97938505D01*
X204985506Y-98105597D01*
X204985501Y-98105604D01*
X204849965Y-98299168D01*
X204849963Y-98299172D01*
X204814886Y-98374392D01*
X204806906Y-98387938D01*
X204807302Y-98388186D01*
X204346395Y-99126459D01*
X204289228Y-99254994D01*
X204287453Y-99261192D01*
X204275824Y-99344047D01*
X204270097Y-99384853D01*
X204267921Y-99400353D01*
X204267921Y-99402500D01*
X204267723Y-99403171D01*
X204267619Y-99404672D01*
X204267289Y-99404649D01*
X204248236Y-99469539D01*
X204195432Y-99515294D01*
X204143921Y-99526500D01*
X197418517Y-99526500D01*
X197351478Y-99506815D01*
X197305723Y-99454011D01*
X197295779Y-99384853D01*
X197312977Y-99337405D01*
X197356814Y-99266334D01*
X197411999Y-99099797D01*
X197422500Y-98997009D01*
X197422499Y-98961595D01*
X197442182Y-98894558D01*
X197458813Y-98873919D01*
X201519915Y-94812819D01*
X201581238Y-94779334D01*
X201607596Y-94776500D01*
X206396902Y-94776500D01*
X206402982Y-94776799D01*
X206417011Y-94778180D01*
X206449500Y-94781380D01*
X206647201Y-94761909D01*
X206837304Y-94704241D01*
X206863784Y-94690087D01*
X207012504Y-94610595D01*
X207166068Y-94484568D01*
X207195738Y-94448413D01*
X207199788Y-94443944D01*
X207833444Y-93810288D01*
X207837913Y-93806238D01*
X207874068Y-93776568D01*
X208000095Y-93623004D01*
X208085243Y-93463703D01*
X208093739Y-93447808D01*
X208093739Y-93447807D01*
X208093741Y-93447804D01*
X208151408Y-93257701D01*
X208166000Y-93109547D01*
X208170880Y-93060000D01*
X208166299Y-93013483D01*
X208166000Y-93007403D01*
X208166000Y-92310456D01*
X208151408Y-92162299D01*
X208150838Y-92160420D01*
X208150263Y-92156543D01*
X208150220Y-92156327D01*
X208150230Y-92156324D01*
X208145500Y-92124429D01*
X208145500Y-91854157D01*
X208145499Y-91854144D01*
X208142529Y-91825074D01*
X208135087Y-91752225D01*
X208080362Y-91587075D01*
X208080358Y-91587069D01*
X208080357Y-91587066D01*
X207989028Y-91439000D01*
X207989025Y-91438996D01*
X207866003Y-91315974D01*
X207865999Y-91315971D01*
X207717933Y-91224642D01*
X207717927Y-91224639D01*
X207717925Y-91224638D01*
X207717922Y-91224637D01*
X207552776Y-91169913D01*
X207450855Y-91159500D01*
X207450848Y-91159500D01*
X206864152Y-91159500D01*
X206864144Y-91159500D01*
X206762223Y-91169913D01*
X206597077Y-91224637D01*
X206597066Y-91224642D01*
X206449000Y-91315971D01*
X206448996Y-91315974D01*
X206325974Y-91438996D01*
X206325971Y-91439000D01*
X206325538Y-91439703D01*
X206325114Y-91440083D01*
X206321493Y-91444664D01*
X206320710Y-91444045D01*
X206273590Y-91486428D01*
X206204628Y-91497649D01*
X206140546Y-91469806D01*
X206118657Y-91444544D01*
X206118507Y-91444664D01*
X206115859Y-91441315D01*
X206114462Y-91439703D01*
X206114028Y-91439000D01*
X206114025Y-91438996D01*
X205991003Y-91315974D01*
X205990999Y-91315971D01*
X205842933Y-91224642D01*
X205842927Y-91224639D01*
X205842925Y-91224638D01*
X205842922Y-91224637D01*
X205677776Y-91169913D01*
X205575855Y-91159500D01*
X205575848Y-91159500D01*
X204989152Y-91159500D01*
X204989144Y-91159500D01*
X204887223Y-91169913D01*
X204722077Y-91224637D01*
X204722066Y-91224642D01*
X204574000Y-91315971D01*
X204568334Y-91320452D01*
X204567369Y-91319232D01*
X204513467Y-91348666D01*
X204487109Y-91351500D01*
X201894134Y-91351500D01*
X201888054Y-91351201D01*
X201740000Y-91336620D01*
X201542296Y-91356091D01*
X201352196Y-91413758D01*
X201274875Y-91455087D01*
X201206473Y-91469328D01*
X201141229Y-91444327D01*
X201137758Y-91441581D01*
X201023005Y-91347405D01*
X201022998Y-91347401D01*
X200847805Y-91253759D01*
X200657703Y-91196091D01*
X200460000Y-91176620D01*
X200262297Y-91196091D01*
X200130212Y-91236160D01*
X200094216Y-91241500D01*
X197737098Y-91241500D01*
X197731018Y-91241201D01*
X197684500Y-91236620D01*
X197486798Y-91256091D01*
X197376667Y-91289500D01*
X197296691Y-91313760D01*
X197121501Y-91407401D01*
X197121494Y-91407405D01*
X196967931Y-91533432D01*
X196938275Y-91569567D01*
X196934187Y-91574077D01*
X196245085Y-92263181D01*
X196183762Y-92296666D01*
X196157404Y-92299500D01*
X196141144Y-92299500D01*
X196039223Y-92309913D01*
X195874077Y-92364637D01*
X195874066Y-92364642D01*
X195726000Y-92455971D01*
X195725996Y-92455974D01*
X195602974Y-92578996D01*
X195602971Y-92579000D01*
X195602538Y-92579703D01*
X195602114Y-92580083D01*
X195598493Y-92584664D01*
X195597710Y-92584045D01*
X195550590Y-92626428D01*
X195481628Y-92637649D01*
X195417546Y-92609806D01*
X195395657Y-92584544D01*
X195395507Y-92584664D01*
X195392859Y-92581315D01*
X195391462Y-92579703D01*
X195391028Y-92579000D01*
X195391025Y-92578996D01*
X195268003Y-92455974D01*
X195267999Y-92455971D01*
X195119933Y-92364642D01*
X195119927Y-92364639D01*
X195119925Y-92364638D01*
X195119922Y-92364637D01*
X194954776Y-92309913D01*
X194852855Y-92299500D01*
X194852848Y-92299500D01*
X194266152Y-92299500D01*
X194266144Y-92299500D01*
X194164223Y-92309913D01*
X193999077Y-92364637D01*
X193999066Y-92364642D01*
X193851000Y-92455971D01*
X193845334Y-92460452D01*
X193844369Y-92459232D01*
X193790467Y-92488666D01*
X193764109Y-92491500D01*
X187379891Y-92491500D01*
X187312852Y-92471815D01*
X187298699Y-92460410D01*
X187298666Y-92460452D01*
X187292999Y-92455971D01*
X187144933Y-92364642D01*
X187144927Y-92364639D01*
X187144925Y-92364638D01*
X187144922Y-92364637D01*
X186979776Y-92309913D01*
X186877855Y-92299500D01*
X186877848Y-92299500D01*
X186291152Y-92299500D01*
X186291144Y-92299500D01*
X186189223Y-92309913D01*
X186024077Y-92364637D01*
X186024066Y-92364642D01*
X185876000Y-92455971D01*
X185875996Y-92455974D01*
X185752974Y-92578996D01*
X185752971Y-92579000D01*
X185752538Y-92579703D01*
X185752114Y-92580083D01*
X185748493Y-92584664D01*
X185747710Y-92584045D01*
X185700590Y-92626428D01*
X185631628Y-92637649D01*
X185567546Y-92609806D01*
X185545657Y-92584544D01*
X185545507Y-92584664D01*
X185542859Y-92581315D01*
X185541462Y-92579703D01*
X185541028Y-92579000D01*
X185541025Y-92578996D01*
X185418003Y-92455974D01*
X185417999Y-92455971D01*
X185269933Y-92364642D01*
X185269927Y-92364639D01*
X185269925Y-92364638D01*
X185269922Y-92364637D01*
X185104776Y-92309913D01*
X185002855Y-92299500D01*
X185002848Y-92299500D01*
X184416152Y-92299500D01*
X184416144Y-92299500D01*
X184314223Y-92309913D01*
X184149077Y-92364637D01*
X184149066Y-92364642D01*
X184001000Y-92455971D01*
X183995334Y-92460452D01*
X183994369Y-92459232D01*
X183940467Y-92488666D01*
X183914109Y-92491500D01*
X177379891Y-92491500D01*
X177312852Y-92471815D01*
X177298699Y-92460410D01*
X177298666Y-92460452D01*
X177292999Y-92455971D01*
X177144933Y-92364642D01*
X177144927Y-92364639D01*
X177144925Y-92364638D01*
X177144922Y-92364637D01*
X176979776Y-92309913D01*
X176877855Y-92299500D01*
X176877848Y-92299500D01*
X176291152Y-92299500D01*
X176291144Y-92299500D01*
X176189223Y-92309913D01*
X176024077Y-92364637D01*
X176024066Y-92364642D01*
X175876000Y-92455971D01*
X175875996Y-92455974D01*
X175752974Y-92578996D01*
X175752971Y-92579000D01*
X175661642Y-92727066D01*
X175661637Y-92727077D01*
X175606913Y-92892223D01*
X175596500Y-92994144D01*
X175596500Y-93264429D01*
X175591769Y-93296324D01*
X175591780Y-93296327D01*
X175591736Y-93296543D01*
X175591162Y-93300420D01*
X175590591Y-93302299D01*
X175571120Y-93500000D01*
X175590591Y-93697697D01*
X175590591Y-93697699D01*
X175590592Y-93697701D01*
X175591161Y-93699578D01*
X175591736Y-93703456D01*
X175591780Y-93703674D01*
X175591769Y-93703676D01*
X175596500Y-93735571D01*
X175596500Y-94005855D01*
X175606913Y-94107776D01*
X175661637Y-94272922D01*
X175661642Y-94272933D01*
X175752971Y-94420999D01*
X175752974Y-94421003D01*
X175875996Y-94544025D01*
X175876000Y-94544028D01*
X176024066Y-94635357D01*
X176024069Y-94635358D01*
X176024075Y-94635362D01*
X176189225Y-94690087D01*
X176291152Y-94700500D01*
X176291157Y-94700500D01*
X176877843Y-94700500D01*
X176877848Y-94700500D01*
X176979775Y-94690087D01*
X177144925Y-94635362D01*
X177293003Y-94544026D01*
X177293008Y-94544020D01*
X177298666Y-94539548D01*
X177299630Y-94540767D01*
X177353533Y-94511334D01*
X177379891Y-94508500D01*
X183914109Y-94508500D01*
X183981148Y-94528185D01*
X183995300Y-94539589D01*
X183995334Y-94539548D01*
X184001000Y-94544028D01*
X184149066Y-94635357D01*
X184149069Y-94635358D01*
X184149075Y-94635362D01*
X184314225Y-94690087D01*
X184416152Y-94700500D01*
X184416157Y-94700500D01*
X185002843Y-94700500D01*
X185002848Y-94700500D01*
X185104775Y-94690087D01*
X185269925Y-94635362D01*
X185418003Y-94544026D01*
X185541026Y-94421003D01*
X185541458Y-94420301D01*
X185541881Y-94419921D01*
X185545507Y-94415336D01*
X185546290Y-94415955D01*
X185593402Y-94373575D01*
X185662364Y-94362349D01*
X185726448Y-94390188D01*
X185748342Y-94415455D01*
X185748493Y-94415336D01*
X185751143Y-94418687D01*
X185752540Y-94420299D01*
X185752972Y-94420999D01*
X185752975Y-94421004D01*
X185875996Y-94544025D01*
X185876000Y-94544028D01*
X186024066Y-94635357D01*
X186024069Y-94635358D01*
X186024075Y-94635362D01*
X186189225Y-94690087D01*
X186291152Y-94700500D01*
X186291157Y-94700500D01*
X186877843Y-94700500D01*
X186877848Y-94700500D01*
X186979775Y-94690087D01*
X187144925Y-94635362D01*
X187293003Y-94544026D01*
X187293008Y-94544020D01*
X187298666Y-94539548D01*
X187299630Y-94540767D01*
X187353533Y-94511334D01*
X187379891Y-94508500D01*
X193764109Y-94508500D01*
X193831148Y-94528185D01*
X193845300Y-94539589D01*
X193845334Y-94539548D01*
X193851000Y-94544028D01*
X193999066Y-94635357D01*
X193999069Y-94635358D01*
X193999075Y-94635362D01*
X194164225Y-94690087D01*
X194266152Y-94700500D01*
X194266157Y-94700500D01*
X194852843Y-94700500D01*
X194852848Y-94700500D01*
X194954775Y-94690087D01*
X195119925Y-94635362D01*
X195268003Y-94544026D01*
X195391026Y-94421003D01*
X195391458Y-94420301D01*
X195391881Y-94419921D01*
X195395507Y-94415336D01*
X195396290Y-94415955D01*
X195443402Y-94373575D01*
X195512364Y-94362349D01*
X195576448Y-94390188D01*
X195598342Y-94415455D01*
X195598493Y-94415336D01*
X195601143Y-94418687D01*
X195602540Y-94420299D01*
X195602972Y-94420999D01*
X195602975Y-94421004D01*
X195725996Y-94544025D01*
X195726000Y-94544028D01*
X195874066Y-94635357D01*
X195874069Y-94635358D01*
X195874075Y-94635362D01*
X196039225Y-94690087D01*
X196141152Y-94700500D01*
X196141157Y-94700500D01*
X196727843Y-94700500D01*
X196727848Y-94700500D01*
X196829775Y-94690087D01*
X196994925Y-94635362D01*
X197143003Y-94544026D01*
X197266026Y-94421003D01*
X197357362Y-94272925D01*
X197412087Y-94107775D01*
X197422500Y-94005848D01*
X197422500Y-93989596D01*
X197442185Y-93922557D01*
X197458819Y-93901915D01*
X198065915Y-93294819D01*
X198127238Y-93261334D01*
X198153596Y-93258500D01*
X198480453Y-93258500D01*
X199922404Y-93258500D01*
X199989443Y-93278185D01*
X200035198Y-93330989D01*
X200045142Y-93400147D01*
X200016117Y-93463703D01*
X200010085Y-93470181D01*
X196220083Y-97260181D01*
X196158760Y-97293666D01*
X196132405Y-97296500D01*
X196097000Y-97296500D01*
X196096980Y-97296501D01*
X195994203Y-97307000D01*
X195994200Y-97307001D01*
X195827668Y-97362185D01*
X195827663Y-97362187D01*
X195678342Y-97454289D01*
X195584681Y-97547951D01*
X195523358Y-97581436D01*
X195453666Y-97576452D01*
X195409319Y-97547951D01*
X195315657Y-97454289D01*
X195315656Y-97454288D01*
X195166334Y-97362186D01*
X194999797Y-97307001D01*
X194999795Y-97307000D01*
X194897010Y-97296500D01*
X194271998Y-97296500D01*
X194271980Y-97296501D01*
X194169203Y-97307000D01*
X194169200Y-97307001D01*
X194002668Y-97362185D01*
X194002663Y-97362187D01*
X193853342Y-97454289D01*
X193729289Y-97578342D01*
X193637187Y-97727663D01*
X193637186Y-97727666D01*
X193582001Y-97894203D01*
X193582001Y-97894204D01*
X193582000Y-97894204D01*
X193571500Y-97996983D01*
X193571500Y-98032403D01*
X193551815Y-98099442D01*
X193535181Y-98120084D01*
X192795085Y-98860181D01*
X192733762Y-98893666D01*
X192707404Y-98896500D01*
X191872597Y-98896500D01*
X191805558Y-98876815D01*
X191759803Y-98824011D01*
X191749859Y-98754853D01*
X191753936Y-98736505D01*
X191753937Y-98736502D01*
X191783908Y-98637701D01*
X191803380Y-98440000D01*
X191783908Y-98242299D01*
X191726241Y-98052197D01*
X191726238Y-98052193D01*
X191726238Y-98052190D01*
X191632596Y-97876998D01*
X191632593Y-97876995D01*
X191603806Y-97841918D01*
X191586704Y-97821078D01*
X191506568Y-97723431D01*
X191353004Y-97597406D01*
X191353001Y-97597403D01*
X191177809Y-97503761D01*
X191177803Y-97503759D01*
X190987701Y-97446092D01*
X190987699Y-97446091D01*
X190987697Y-97446091D01*
X190790000Y-97426620D01*
X190592300Y-97446091D01*
X190470098Y-97483161D01*
X190434103Y-97488500D01*
X182376230Y-97488500D01*
X182309191Y-97468815D01*
X182296475Y-97458568D01*
X182296319Y-97458766D01*
X182290658Y-97454290D01*
X182290656Y-97454288D01*
X182141334Y-97362186D01*
X181974797Y-97307001D01*
X181974795Y-97307000D01*
X181872010Y-97296500D01*
X181246998Y-97296500D01*
X181246980Y-97296501D01*
X181144203Y-97307000D01*
X181144200Y-97307001D01*
X180977668Y-97362185D01*
X180977663Y-97362187D01*
X180828342Y-97454289D01*
X180734681Y-97547951D01*
X180673358Y-97581436D01*
X180603666Y-97576452D01*
X180559319Y-97547951D01*
X180465657Y-97454289D01*
X180465656Y-97454288D01*
X180316334Y-97362186D01*
X180149797Y-97307001D01*
X180149795Y-97307000D01*
X180047010Y-97296500D01*
X179421998Y-97296500D01*
X179421980Y-97296501D01*
X179319203Y-97307000D01*
X179319200Y-97307001D01*
X179152668Y-97362185D01*
X179152663Y-97362187D01*
X179003342Y-97454289D01*
X178879289Y-97578342D01*
X178787187Y-97727663D01*
X178787186Y-97727666D01*
X178732001Y-97894203D01*
X178732001Y-97894204D01*
X178732000Y-97894204D01*
X178721500Y-97996983D01*
X178721500Y-98032403D01*
X178701815Y-98099442D01*
X178685181Y-98120084D01*
X177945085Y-98860181D01*
X177883762Y-98893666D01*
X177857404Y-98896500D01*
X163613596Y-98896500D01*
X163546557Y-98876815D01*
X163500802Y-98824011D01*
X163490858Y-98754853D01*
X163519883Y-98691297D01*
X163525915Y-98684819D01*
X164137303Y-98073431D01*
X167260444Y-94950288D01*
X167264913Y-94946238D01*
X167301068Y-94916568D01*
X167427095Y-94763004D01*
X167495321Y-94635362D01*
X167520739Y-94587808D01*
X167520739Y-94587807D01*
X167520741Y-94587804D01*
X167563732Y-94446082D01*
X167578409Y-94397700D01*
X167597880Y-94200000D01*
X167593299Y-94153481D01*
X167593000Y-94147401D01*
X167593000Y-93450456D01*
X167578408Y-93302299D01*
X167577838Y-93300420D01*
X167577263Y-93296543D01*
X167577220Y-93296327D01*
X167577230Y-93296324D01*
X167572500Y-93264429D01*
X167572500Y-92994157D01*
X167572499Y-92994144D01*
X167562087Y-92892225D01*
X167507362Y-92727075D01*
X167507358Y-92727069D01*
X167507357Y-92727066D01*
X167416028Y-92579000D01*
X167416025Y-92578996D01*
X167293003Y-92455974D01*
X167292999Y-92455971D01*
X167144933Y-92364642D01*
X167144927Y-92364639D01*
X167144925Y-92364638D01*
X167144922Y-92364637D01*
X166979776Y-92309913D01*
X166877855Y-92299500D01*
X166877848Y-92299500D01*
X166291152Y-92299500D01*
X166291144Y-92299500D01*
X166189223Y-92309913D01*
X166024077Y-92364637D01*
X166024066Y-92364642D01*
X165876000Y-92455971D01*
X165875996Y-92455974D01*
X165752974Y-92578996D01*
X165752971Y-92579000D01*
X165752538Y-92579703D01*
X165752114Y-92580083D01*
X165748493Y-92584664D01*
X165747710Y-92584045D01*
X165700590Y-92626428D01*
X165631628Y-92637649D01*
X165567546Y-92609806D01*
X165545657Y-92584544D01*
X165545507Y-92584664D01*
X165542859Y-92581315D01*
X165541462Y-92579703D01*
X165541028Y-92579000D01*
X165541025Y-92578996D01*
X165418003Y-92455974D01*
X165417999Y-92455971D01*
X165269933Y-92364642D01*
X165269927Y-92364639D01*
X165269925Y-92364638D01*
X165269922Y-92364637D01*
X165104776Y-92309913D01*
X165002855Y-92299500D01*
X165002848Y-92299500D01*
X164416152Y-92299500D01*
X164416144Y-92299500D01*
X164314223Y-92309913D01*
X164149077Y-92364637D01*
X164149066Y-92364642D01*
X164001000Y-92455971D01*
X163995334Y-92460452D01*
X163994369Y-92459232D01*
X163940467Y-92488666D01*
X163914109Y-92491500D01*
X157379891Y-92491500D01*
X157312852Y-92471815D01*
X157298699Y-92460410D01*
X157298666Y-92460452D01*
X157292999Y-92455971D01*
X157144933Y-92364642D01*
X157144927Y-92364639D01*
X157144925Y-92364638D01*
X157144922Y-92364637D01*
X156979776Y-92309913D01*
X156877855Y-92299500D01*
X156877848Y-92299500D01*
X156291152Y-92299500D01*
X156291144Y-92299500D01*
X156189223Y-92309913D01*
X156024077Y-92364637D01*
X156024066Y-92364642D01*
X155876000Y-92455971D01*
X155875996Y-92455974D01*
X155752974Y-92578996D01*
X155752971Y-92579000D01*
X155752538Y-92579703D01*
X155752114Y-92580083D01*
X155748493Y-92584664D01*
X155747710Y-92584045D01*
X155700590Y-92626428D01*
X155631628Y-92637649D01*
X155567546Y-92609806D01*
X155545657Y-92584544D01*
X155545507Y-92584664D01*
X155542859Y-92581315D01*
X155541462Y-92579703D01*
X155541028Y-92579000D01*
X155541025Y-92578996D01*
X155418003Y-92455974D01*
X155417999Y-92455971D01*
X155269933Y-92364642D01*
X155269927Y-92364639D01*
X155269925Y-92364638D01*
X155269922Y-92364637D01*
X155104776Y-92309913D01*
X155002855Y-92299500D01*
X155002848Y-92299500D01*
X154416152Y-92299500D01*
X154416144Y-92299500D01*
X154314223Y-92309913D01*
X154149077Y-92364637D01*
X154149066Y-92364642D01*
X154001000Y-92455971D01*
X153995334Y-92460452D01*
X153994369Y-92459232D01*
X153940467Y-92488666D01*
X153914109Y-92491500D01*
X147379891Y-92491500D01*
X147312852Y-92471815D01*
X147298699Y-92460410D01*
X147298666Y-92460452D01*
X147292999Y-92455971D01*
X147144933Y-92364642D01*
X147144927Y-92364639D01*
X147144925Y-92364638D01*
X147144922Y-92364637D01*
X146979776Y-92309913D01*
X146877855Y-92299500D01*
X146877848Y-92299500D01*
X146291152Y-92299500D01*
X146291144Y-92299500D01*
X146189223Y-92309913D01*
X146024077Y-92364637D01*
X146024066Y-92364642D01*
X145876000Y-92455971D01*
X145875996Y-92455974D01*
X145752974Y-92578996D01*
X145752971Y-92579000D01*
X145752538Y-92579703D01*
X145752114Y-92580083D01*
X145748493Y-92584664D01*
X145747710Y-92584045D01*
X145700590Y-92626428D01*
X145631628Y-92637649D01*
X145567546Y-92609806D01*
X145545657Y-92584544D01*
X145545507Y-92584664D01*
X145542859Y-92581315D01*
X145541462Y-92579703D01*
X145541028Y-92579000D01*
X145541025Y-92578996D01*
X145418003Y-92455974D01*
X145417999Y-92455971D01*
X145269933Y-92364642D01*
X145269927Y-92364639D01*
X145269925Y-92364638D01*
X145269922Y-92364637D01*
X145104776Y-92309913D01*
X145002855Y-92299500D01*
X145002848Y-92299500D01*
X144416152Y-92299500D01*
X144416144Y-92299500D01*
X144314223Y-92309913D01*
X144149077Y-92364637D01*
X144149066Y-92364642D01*
X144001000Y-92455971D01*
X143995334Y-92460452D01*
X143994369Y-92459232D01*
X143940467Y-92488666D01*
X143914109Y-92491500D01*
X137379891Y-92491500D01*
X137312852Y-92471815D01*
X137298699Y-92460410D01*
X137298666Y-92460452D01*
X137292999Y-92455971D01*
X137144933Y-92364642D01*
X137144927Y-92364639D01*
X137144925Y-92364638D01*
X137144922Y-92364637D01*
X136979776Y-92309913D01*
X136877855Y-92299500D01*
X136877848Y-92299500D01*
X136291152Y-92299500D01*
X136291144Y-92299500D01*
X136189223Y-92309913D01*
X136024077Y-92364637D01*
X136024066Y-92364642D01*
X135876000Y-92455971D01*
X135875996Y-92455974D01*
X135752974Y-92578996D01*
X135752971Y-92579000D01*
X135752538Y-92579703D01*
X135752114Y-92580083D01*
X135748493Y-92584664D01*
X135747710Y-92584045D01*
X135700590Y-92626428D01*
X135631628Y-92637649D01*
X135567546Y-92609806D01*
X135545657Y-92584544D01*
X135545507Y-92584664D01*
X135542859Y-92581315D01*
X135541462Y-92579703D01*
X135541028Y-92579000D01*
X135541025Y-92578996D01*
X135418003Y-92455974D01*
X135417999Y-92455971D01*
X135269933Y-92364642D01*
X135269927Y-92364639D01*
X135269925Y-92364638D01*
X135269922Y-92364637D01*
X135104776Y-92309913D01*
X135002855Y-92299500D01*
X135002848Y-92299500D01*
X134416152Y-92299500D01*
X134416144Y-92299500D01*
X134314223Y-92309913D01*
X134149077Y-92364637D01*
X134149066Y-92364642D01*
X134001000Y-92455971D01*
X133995334Y-92460452D01*
X133994369Y-92459232D01*
X133940467Y-92488666D01*
X133914109Y-92491500D01*
X127379891Y-92491500D01*
X127312852Y-92471815D01*
X127298699Y-92460410D01*
X127298666Y-92460452D01*
X127292999Y-92455971D01*
X127144933Y-92364642D01*
X127144927Y-92364639D01*
X127144925Y-92364638D01*
X127144922Y-92364637D01*
X126979776Y-92309913D01*
X126877855Y-92299500D01*
X126877848Y-92299500D01*
X126291152Y-92299500D01*
X126291144Y-92299500D01*
X126189223Y-92309913D01*
X126024077Y-92364637D01*
X126024066Y-92364642D01*
X125876000Y-92455971D01*
X125875996Y-92455974D01*
X125752974Y-92578996D01*
X125752971Y-92579000D01*
X125661642Y-92727066D01*
X125661637Y-92727077D01*
X125606913Y-92892223D01*
X125596500Y-92994144D01*
X125596500Y-93264429D01*
X125591769Y-93296324D01*
X125591780Y-93296327D01*
X125591736Y-93296543D01*
X125591162Y-93300420D01*
X125590591Y-93302299D01*
X125571120Y-93500000D01*
X125590591Y-93697697D01*
X125590591Y-93697699D01*
X125590592Y-93697701D01*
X125591161Y-93699578D01*
X125591736Y-93703456D01*
X125591780Y-93703674D01*
X125591769Y-93703676D01*
X125596500Y-93735571D01*
X125596500Y-94005855D01*
X125606913Y-94107776D01*
X125661637Y-94272922D01*
X125661642Y-94272933D01*
X125752971Y-94420999D01*
X125752974Y-94421003D01*
X125875996Y-94544025D01*
X125876000Y-94544028D01*
X126024066Y-94635357D01*
X126024069Y-94635358D01*
X126024075Y-94635362D01*
X126189225Y-94690087D01*
X126291152Y-94700500D01*
X126291157Y-94700500D01*
X126877843Y-94700500D01*
X126877848Y-94700500D01*
X126979775Y-94690087D01*
X127144925Y-94635362D01*
X127293003Y-94544026D01*
X127293008Y-94544020D01*
X127298666Y-94539548D01*
X127299630Y-94540767D01*
X127353533Y-94511334D01*
X127379891Y-94508500D01*
X133914109Y-94508500D01*
X133981148Y-94528185D01*
X133995300Y-94539589D01*
X133995334Y-94539548D01*
X134001000Y-94544028D01*
X134149066Y-94635357D01*
X134149069Y-94635358D01*
X134149075Y-94635362D01*
X134314225Y-94690087D01*
X134416152Y-94700500D01*
X134416157Y-94700500D01*
X135002843Y-94700500D01*
X135002848Y-94700500D01*
X135104775Y-94690087D01*
X135269925Y-94635362D01*
X135418003Y-94544026D01*
X135541026Y-94421003D01*
X135541458Y-94420301D01*
X135541881Y-94419921D01*
X135545507Y-94415336D01*
X135546290Y-94415955D01*
X135593402Y-94373575D01*
X135662364Y-94362349D01*
X135726448Y-94390188D01*
X135748342Y-94415455D01*
X135748493Y-94415336D01*
X135751143Y-94418687D01*
X135752540Y-94420299D01*
X135752972Y-94420999D01*
X135752975Y-94421004D01*
X135875996Y-94544025D01*
X135876000Y-94544028D01*
X136024066Y-94635357D01*
X136024069Y-94635358D01*
X136024075Y-94635362D01*
X136189225Y-94690087D01*
X136291152Y-94700500D01*
X136291157Y-94700500D01*
X136877843Y-94700500D01*
X136877848Y-94700500D01*
X136979775Y-94690087D01*
X137144925Y-94635362D01*
X137293003Y-94544026D01*
X137293008Y-94544020D01*
X137298666Y-94539548D01*
X137299630Y-94540767D01*
X137353533Y-94511334D01*
X137379891Y-94508500D01*
X143914109Y-94508500D01*
X143981148Y-94528185D01*
X143995300Y-94539589D01*
X143995334Y-94539548D01*
X144001000Y-94544028D01*
X144149066Y-94635357D01*
X144149069Y-94635358D01*
X144149075Y-94635362D01*
X144314225Y-94690087D01*
X144416152Y-94700500D01*
X144416157Y-94700500D01*
X145002843Y-94700500D01*
X145002848Y-94700500D01*
X145104775Y-94690087D01*
X145269925Y-94635362D01*
X145418003Y-94544026D01*
X145541026Y-94421003D01*
X145541458Y-94420301D01*
X145541881Y-94419921D01*
X145545507Y-94415336D01*
X145546290Y-94415955D01*
X145593402Y-94373575D01*
X145662364Y-94362349D01*
X145726448Y-94390188D01*
X145748342Y-94415455D01*
X145748493Y-94415336D01*
X145751143Y-94418687D01*
X145752540Y-94420299D01*
X145752972Y-94420999D01*
X145752975Y-94421004D01*
X145875996Y-94544025D01*
X145876000Y-94544028D01*
X146024066Y-94635357D01*
X146024069Y-94635358D01*
X146024075Y-94635362D01*
X146189225Y-94690087D01*
X146291152Y-94700500D01*
X146291157Y-94700500D01*
X146877843Y-94700500D01*
X146877848Y-94700500D01*
X146979775Y-94690087D01*
X147144925Y-94635362D01*
X147293003Y-94544026D01*
X147293008Y-94544020D01*
X147298666Y-94539548D01*
X147299630Y-94540767D01*
X147353533Y-94511334D01*
X147379891Y-94508500D01*
X153914109Y-94508500D01*
X153981148Y-94528185D01*
X153995300Y-94539589D01*
X153995334Y-94539548D01*
X154001000Y-94544028D01*
X154149066Y-94635357D01*
X154149069Y-94635358D01*
X154149075Y-94635362D01*
X154314225Y-94690087D01*
X154416152Y-94700500D01*
X154416157Y-94700500D01*
X155002843Y-94700500D01*
X155002848Y-94700500D01*
X155104775Y-94690087D01*
X155269925Y-94635362D01*
X155418003Y-94544026D01*
X155541026Y-94421003D01*
X155541458Y-94420301D01*
X155541881Y-94419921D01*
X155545507Y-94415336D01*
X155546290Y-94415955D01*
X155593402Y-94373575D01*
X155662364Y-94362349D01*
X155726448Y-94390188D01*
X155748342Y-94415455D01*
X155748493Y-94415336D01*
X155751143Y-94418687D01*
X155752540Y-94420299D01*
X155752972Y-94420999D01*
X155752975Y-94421004D01*
X155875996Y-94544025D01*
X155876000Y-94544028D01*
X156024066Y-94635357D01*
X156024069Y-94635358D01*
X156024075Y-94635362D01*
X156189225Y-94690087D01*
X156291152Y-94700500D01*
X156291157Y-94700500D01*
X156877843Y-94700500D01*
X156877848Y-94700500D01*
X156979775Y-94690087D01*
X157144925Y-94635362D01*
X157293003Y-94544026D01*
X157293008Y-94544020D01*
X157298666Y-94539548D01*
X157299630Y-94540767D01*
X157353533Y-94511334D01*
X157379891Y-94508500D01*
X163914109Y-94508500D01*
X163981148Y-94528185D01*
X163995300Y-94539589D01*
X163995334Y-94539548D01*
X164001000Y-94544028D01*
X164149066Y-94635357D01*
X164149069Y-94635358D01*
X164149075Y-94635362D01*
X164314225Y-94690087D01*
X164375774Y-94696374D01*
X164440464Y-94722769D01*
X164480616Y-94779949D01*
X164483480Y-94849760D01*
X164450852Y-94907413D01*
X161906085Y-97452181D01*
X161844762Y-97485666D01*
X161818404Y-97488500D01*
X157376230Y-97488500D01*
X157309191Y-97468815D01*
X157296475Y-97458568D01*
X157296319Y-97458766D01*
X157290658Y-97454290D01*
X157290656Y-97454288D01*
X157141334Y-97362186D01*
X156974797Y-97307001D01*
X156974795Y-97307000D01*
X156872010Y-97296500D01*
X156246998Y-97296500D01*
X156246980Y-97296501D01*
X156144203Y-97307000D01*
X156144200Y-97307001D01*
X155977668Y-97362185D01*
X155977663Y-97362187D01*
X155828342Y-97454289D01*
X155734681Y-97547951D01*
X155673358Y-97581436D01*
X155603666Y-97576452D01*
X155559319Y-97547951D01*
X155465657Y-97454289D01*
X155465656Y-97454288D01*
X155316334Y-97362186D01*
X155149797Y-97307001D01*
X155149795Y-97307000D01*
X155047010Y-97296500D01*
X154421998Y-97296500D01*
X154421980Y-97296501D01*
X154319203Y-97307000D01*
X154319200Y-97307001D01*
X154152668Y-97362185D01*
X154152663Y-97362187D01*
X154003342Y-97454289D01*
X153879289Y-97578342D01*
X153787187Y-97727663D01*
X153787186Y-97727666D01*
X153732001Y-97894203D01*
X153732001Y-97894204D01*
X153732000Y-97894204D01*
X153721500Y-97996983D01*
X153721500Y-98032403D01*
X153701815Y-98099442D01*
X153685181Y-98120084D01*
X152945085Y-98860181D01*
X152883762Y-98893666D01*
X152857404Y-98896500D01*
X149776865Y-98896500D01*
X149709826Y-98876815D01*
X149664071Y-98824011D01*
X149654127Y-98754853D01*
X149658203Y-98736510D01*
X149663909Y-98717701D01*
X149683380Y-98520000D01*
X149663909Y-98322299D01*
X149606241Y-98132197D01*
X149606240Y-98132195D01*
X149512598Y-97957002D01*
X149512594Y-97956995D01*
X149418148Y-97841913D01*
X149397312Y-97821078D01*
X149393221Y-97816565D01*
X149363569Y-97780432D01*
X149210005Y-97654405D01*
X149209998Y-97654401D01*
X149034805Y-97560759D01*
X148844703Y-97503091D01*
X148712900Y-97490110D01*
X148647000Y-97483620D01*
X148646999Y-97483620D01*
X148600482Y-97488201D01*
X148594402Y-97488500D01*
X132376230Y-97488500D01*
X132309191Y-97468815D01*
X132296475Y-97458568D01*
X132296319Y-97458766D01*
X132290658Y-97454290D01*
X132290656Y-97454288D01*
X132141334Y-97362186D01*
X131974797Y-97307001D01*
X131974795Y-97307000D01*
X131872010Y-97296500D01*
X131246998Y-97296500D01*
X131246980Y-97296501D01*
X131144203Y-97307000D01*
X131144200Y-97307001D01*
X130977668Y-97362185D01*
X130977663Y-97362187D01*
X130828342Y-97454289D01*
X130734681Y-97547951D01*
X130673358Y-97581436D01*
X130603666Y-97576452D01*
X130559319Y-97547951D01*
X130465657Y-97454289D01*
X130465656Y-97454288D01*
X130316334Y-97362186D01*
X130149797Y-97307001D01*
X130149795Y-97307000D01*
X130047010Y-97296500D01*
X129421998Y-97296500D01*
X129421980Y-97296501D01*
X129319203Y-97307000D01*
X129319200Y-97307001D01*
X129152668Y-97362185D01*
X129152663Y-97362187D01*
X129003342Y-97454289D01*
X128879289Y-97578342D01*
X128787187Y-97727663D01*
X128787186Y-97727666D01*
X128732001Y-97894203D01*
X128732001Y-97894204D01*
X128732000Y-97894204D01*
X128721500Y-97996983D01*
X128721500Y-98032403D01*
X128701815Y-98099442D01*
X128685181Y-98120084D01*
X127945085Y-98860181D01*
X127883762Y-98893666D01*
X127857404Y-98896500D01*
X113084574Y-98896500D01*
X113017535Y-98876815D01*
X112971780Y-98824011D01*
X112961836Y-98754853D01*
X112990861Y-98691297D01*
X112996893Y-98684819D01*
X113978618Y-97703094D01*
X116976718Y-94704992D01*
X117025390Y-94674971D01*
X117144925Y-94635362D01*
X117293003Y-94544026D01*
X117416026Y-94421003D01*
X117507362Y-94272925D01*
X117562087Y-94107775D01*
X117572500Y-94005848D01*
X117572500Y-93906551D01*
X117577231Y-93874650D01*
X117577221Y-93874648D01*
X117577263Y-93874432D01*
X117577838Y-93870560D01*
X117578409Y-93868679D01*
X117597880Y-93670978D01*
X117593299Y-93624459D01*
X117593000Y-93618379D01*
X117593000Y-93450456D01*
X117578408Y-93302299D01*
X117577838Y-93300420D01*
X117577263Y-93296543D01*
X117577220Y-93296327D01*
X117577230Y-93296324D01*
X117572500Y-93264429D01*
X117572500Y-92994157D01*
X117572499Y-92994144D01*
X117562087Y-92892225D01*
X117507362Y-92727075D01*
X117507358Y-92727069D01*
X117507357Y-92727066D01*
X117416028Y-92579000D01*
X117416025Y-92578996D01*
X117293003Y-92455974D01*
X117292999Y-92455971D01*
X117144933Y-92364642D01*
X117144927Y-92364639D01*
X117144925Y-92364638D01*
X117144922Y-92364637D01*
X116979776Y-92309913D01*
X116877855Y-92299500D01*
X116877848Y-92299500D01*
X116291152Y-92299500D01*
X116291144Y-92299500D01*
X116189223Y-92309913D01*
X116024077Y-92364637D01*
X116024066Y-92364642D01*
X115876000Y-92455971D01*
X115875996Y-92455974D01*
X115752974Y-92578996D01*
X115752971Y-92579000D01*
X115752538Y-92579703D01*
X115752114Y-92580083D01*
X115748493Y-92584664D01*
X115747710Y-92584045D01*
X115700590Y-92626428D01*
X115631628Y-92637649D01*
X115567546Y-92609806D01*
X115545657Y-92584544D01*
X115545507Y-92584664D01*
X115542859Y-92581315D01*
X115541462Y-92579703D01*
X115541028Y-92579000D01*
X115541025Y-92578996D01*
X115418003Y-92455974D01*
X115417999Y-92455971D01*
X115269933Y-92364642D01*
X115269927Y-92364639D01*
X115269925Y-92364638D01*
X115269922Y-92364637D01*
X115104776Y-92309913D01*
X115002855Y-92299500D01*
X115002848Y-92299500D01*
X114416152Y-92299500D01*
X114416144Y-92299500D01*
X114314223Y-92309913D01*
X114149077Y-92364637D01*
X114149066Y-92364642D01*
X114001000Y-92455971D01*
X113995334Y-92460452D01*
X113994369Y-92459232D01*
X113940467Y-92488666D01*
X113914109Y-92491500D01*
X107379891Y-92491500D01*
X107312852Y-92471815D01*
X107298699Y-92460410D01*
X107298666Y-92460452D01*
X107292999Y-92455971D01*
X107144933Y-92364642D01*
X107144927Y-92364639D01*
X107144925Y-92364638D01*
X107144922Y-92364637D01*
X106979776Y-92309913D01*
X106877855Y-92299500D01*
X106877848Y-92299500D01*
X106291152Y-92299500D01*
X106291144Y-92299500D01*
X106189223Y-92309913D01*
X106024077Y-92364637D01*
X106024066Y-92364642D01*
X105876000Y-92455971D01*
X105875996Y-92455974D01*
X105752974Y-92578996D01*
X105752971Y-92579000D01*
X105752538Y-92579703D01*
X105752114Y-92580083D01*
X105748493Y-92584664D01*
X105747710Y-92584045D01*
X105700590Y-92626428D01*
X105631628Y-92637649D01*
X105567546Y-92609806D01*
X105545657Y-92584544D01*
X105545507Y-92584664D01*
X105542859Y-92581315D01*
X105541462Y-92579703D01*
X105541028Y-92579000D01*
X105541025Y-92578996D01*
X105418003Y-92455974D01*
X105417999Y-92455971D01*
X105269933Y-92364642D01*
X105269927Y-92364639D01*
X105269925Y-92364638D01*
X105269922Y-92364637D01*
X105104776Y-92309913D01*
X105002855Y-92299500D01*
X105002848Y-92299500D01*
X104416152Y-92299500D01*
X104416144Y-92299500D01*
X104314223Y-92309913D01*
X104149077Y-92364637D01*
X104149066Y-92364642D01*
X104001000Y-92455971D01*
X103995334Y-92460452D01*
X103994369Y-92459232D01*
X103940467Y-92488666D01*
X103914109Y-92491500D01*
X97379891Y-92491500D01*
X97312852Y-92471815D01*
X97298699Y-92460410D01*
X97298666Y-92460452D01*
X97292999Y-92455971D01*
X97144933Y-92364642D01*
X97144927Y-92364639D01*
X97144925Y-92364638D01*
X97144922Y-92364637D01*
X96979776Y-92309913D01*
X96877855Y-92299500D01*
X96877848Y-92299500D01*
X96291152Y-92299500D01*
X96291144Y-92299500D01*
X96189223Y-92309913D01*
X96024077Y-92364637D01*
X96024066Y-92364642D01*
X95876000Y-92455971D01*
X95875996Y-92455974D01*
X95752974Y-92578996D01*
X95752971Y-92579000D01*
X95752538Y-92579703D01*
X95752114Y-92580083D01*
X95748493Y-92584664D01*
X95747710Y-92584045D01*
X95700590Y-92626428D01*
X95631628Y-92637649D01*
X95567546Y-92609806D01*
X95545657Y-92584544D01*
X95545507Y-92584664D01*
X95542859Y-92581315D01*
X95541462Y-92579703D01*
X95541028Y-92579000D01*
X95541025Y-92578996D01*
X95418003Y-92455974D01*
X95417999Y-92455971D01*
X95269933Y-92364642D01*
X95269927Y-92364639D01*
X95269925Y-92364638D01*
X95269922Y-92364637D01*
X95104776Y-92309913D01*
X95002855Y-92299500D01*
X95002848Y-92299500D01*
X94416152Y-92299500D01*
X94416144Y-92299500D01*
X94314223Y-92309913D01*
X94149077Y-92364637D01*
X94149066Y-92364642D01*
X94001000Y-92455971D01*
X93995334Y-92460452D01*
X93994369Y-92459232D01*
X93940467Y-92488666D01*
X93914109Y-92491500D01*
X87379891Y-92491500D01*
X87312852Y-92471815D01*
X87298699Y-92460410D01*
X87298666Y-92460452D01*
X87292999Y-92455971D01*
X87144933Y-92364642D01*
X87144927Y-92364639D01*
X87144925Y-92364638D01*
X87144922Y-92364637D01*
X86979776Y-92309913D01*
X86877855Y-92299500D01*
X86877848Y-92299500D01*
X86291152Y-92299500D01*
X86291144Y-92299500D01*
X86189223Y-92309913D01*
X86024077Y-92364637D01*
X86024066Y-92364642D01*
X85876000Y-92455971D01*
X85875996Y-92455974D01*
X85752974Y-92578996D01*
X85752971Y-92579000D01*
X85752538Y-92579703D01*
X85752114Y-92580083D01*
X85748493Y-92584664D01*
X85747710Y-92584045D01*
X85700590Y-92626428D01*
X85631628Y-92637649D01*
X85567546Y-92609806D01*
X85545657Y-92584544D01*
X85545507Y-92584664D01*
X85542859Y-92581315D01*
X85541462Y-92579703D01*
X85541028Y-92579000D01*
X85541025Y-92578996D01*
X85418003Y-92455974D01*
X85417999Y-92455971D01*
X85269933Y-92364642D01*
X85269927Y-92364639D01*
X85269925Y-92364638D01*
X85269922Y-92364637D01*
X85104776Y-92309913D01*
X85002855Y-92299500D01*
X85002848Y-92299500D01*
X84416152Y-92299500D01*
X84416144Y-92299500D01*
X84314223Y-92309913D01*
X84149077Y-92364637D01*
X84149066Y-92364642D01*
X84001000Y-92455971D01*
X83995334Y-92460452D01*
X83994369Y-92459232D01*
X83940467Y-92488666D01*
X83914109Y-92491500D01*
X77379891Y-92491500D01*
X77312852Y-92471815D01*
X77298699Y-92460410D01*
X77298666Y-92460452D01*
X77292999Y-92455971D01*
X77144933Y-92364642D01*
X77144927Y-92364639D01*
X77144925Y-92364638D01*
X77144922Y-92364637D01*
X76979776Y-92309913D01*
X76877855Y-92299500D01*
X76877848Y-92299500D01*
X76291152Y-92299500D01*
X76291144Y-92299500D01*
X76189223Y-92309913D01*
X76024077Y-92364637D01*
X76024066Y-92364642D01*
X75876000Y-92455971D01*
X75875996Y-92455974D01*
X75752974Y-92578996D01*
X75752971Y-92579000D01*
X75661642Y-92727066D01*
X75661637Y-92727077D01*
X75606913Y-92892223D01*
X75596500Y-92994144D01*
X75596500Y-93264429D01*
X75591769Y-93296324D01*
X75591780Y-93296327D01*
X75591736Y-93296543D01*
X75591162Y-93300420D01*
X75590591Y-93302299D01*
X75571120Y-93500000D01*
X75590591Y-93697697D01*
X75590591Y-93697699D01*
X75590592Y-93697701D01*
X75591161Y-93699578D01*
X75591736Y-93703456D01*
X75591780Y-93703674D01*
X75591769Y-93703676D01*
X75596500Y-93735571D01*
X75596500Y-94005855D01*
X75606913Y-94107776D01*
X75661637Y-94272922D01*
X75661642Y-94272933D01*
X75752971Y-94420999D01*
X75752974Y-94421003D01*
X75875996Y-94544025D01*
X75876000Y-94544028D01*
X76024066Y-94635357D01*
X76024069Y-94635358D01*
X76024075Y-94635362D01*
X76189225Y-94690087D01*
X76291152Y-94700500D01*
X76291157Y-94700500D01*
X76877843Y-94700500D01*
X76877848Y-94700500D01*
X76979775Y-94690087D01*
X77144925Y-94635362D01*
X77293003Y-94544026D01*
X77293008Y-94544020D01*
X77298666Y-94539548D01*
X77299630Y-94540767D01*
X77353533Y-94511334D01*
X77379891Y-94508500D01*
X83914109Y-94508500D01*
X83981148Y-94528185D01*
X83995300Y-94539589D01*
X83995334Y-94539548D01*
X84001000Y-94544028D01*
X84149066Y-94635357D01*
X84149069Y-94635358D01*
X84149075Y-94635362D01*
X84314225Y-94690087D01*
X84416152Y-94700500D01*
X84416157Y-94700500D01*
X85002843Y-94700500D01*
X85002848Y-94700500D01*
X85104775Y-94690087D01*
X85269925Y-94635362D01*
X85418003Y-94544026D01*
X85541026Y-94421003D01*
X85541458Y-94420301D01*
X85541881Y-94419921D01*
X85545507Y-94415336D01*
X85546290Y-94415955D01*
X85593402Y-94373575D01*
X85662364Y-94362349D01*
X85726448Y-94390188D01*
X85748342Y-94415455D01*
X85748493Y-94415336D01*
X85751143Y-94418687D01*
X85752540Y-94420299D01*
X85752972Y-94420999D01*
X85752975Y-94421004D01*
X85875996Y-94544025D01*
X85876000Y-94544028D01*
X86024066Y-94635357D01*
X86024069Y-94635358D01*
X86024075Y-94635362D01*
X86189225Y-94690087D01*
X86291152Y-94700500D01*
X86291157Y-94700500D01*
X86877843Y-94700500D01*
X86877848Y-94700500D01*
X86979775Y-94690087D01*
X87144925Y-94635362D01*
X87293003Y-94544026D01*
X87293008Y-94544020D01*
X87298666Y-94539548D01*
X87299630Y-94540767D01*
X87353533Y-94511334D01*
X87379891Y-94508500D01*
X93914109Y-94508500D01*
X93981148Y-94528185D01*
X93995300Y-94539589D01*
X93995334Y-94539548D01*
X94001000Y-94544028D01*
X94149066Y-94635357D01*
X94149069Y-94635358D01*
X94149075Y-94635362D01*
X94314225Y-94690087D01*
X94416152Y-94700500D01*
X94416157Y-94700500D01*
X95002843Y-94700500D01*
X95002848Y-94700500D01*
X95104775Y-94690087D01*
X95269925Y-94635362D01*
X95418003Y-94544026D01*
X95541026Y-94421003D01*
X95541458Y-94420301D01*
X95541881Y-94419921D01*
X95545507Y-94415336D01*
X95546290Y-94415955D01*
X95593402Y-94373575D01*
X95662364Y-94362349D01*
X95726448Y-94390188D01*
X95748342Y-94415455D01*
X95748493Y-94415336D01*
X95751143Y-94418687D01*
X95752540Y-94420299D01*
X95752972Y-94420999D01*
X95752975Y-94421004D01*
X95875996Y-94544025D01*
X95876000Y-94544028D01*
X96024066Y-94635357D01*
X96024069Y-94635358D01*
X96024075Y-94635362D01*
X96189225Y-94690087D01*
X96291152Y-94700500D01*
X96291157Y-94700500D01*
X96877843Y-94700500D01*
X96877848Y-94700500D01*
X96979775Y-94690087D01*
X97144925Y-94635362D01*
X97293003Y-94544026D01*
X97293008Y-94544020D01*
X97298666Y-94539548D01*
X97299630Y-94540767D01*
X97353533Y-94511334D01*
X97379891Y-94508500D01*
X103914109Y-94508500D01*
X103981148Y-94528185D01*
X103995300Y-94539589D01*
X103995334Y-94539548D01*
X104001000Y-94544028D01*
X104149066Y-94635357D01*
X104149069Y-94635358D01*
X104149075Y-94635362D01*
X104314225Y-94690087D01*
X104416152Y-94700500D01*
X104416157Y-94700500D01*
X105002843Y-94700500D01*
X105002848Y-94700500D01*
X105104775Y-94690087D01*
X105269925Y-94635362D01*
X105418003Y-94544026D01*
X105541026Y-94421003D01*
X105541458Y-94420301D01*
X105541881Y-94419921D01*
X105545507Y-94415336D01*
X105546290Y-94415955D01*
X105593402Y-94373575D01*
X105662364Y-94362349D01*
X105726448Y-94390188D01*
X105748342Y-94415455D01*
X105748493Y-94415336D01*
X105751143Y-94418687D01*
X105752540Y-94420299D01*
X105752972Y-94420999D01*
X105752975Y-94421004D01*
X105875996Y-94544025D01*
X105876000Y-94544028D01*
X106024066Y-94635357D01*
X106024069Y-94635358D01*
X106024075Y-94635362D01*
X106189225Y-94690087D01*
X106291152Y-94700500D01*
X106291157Y-94700500D01*
X106877843Y-94700500D01*
X106877848Y-94700500D01*
X106979775Y-94690087D01*
X107144925Y-94635362D01*
X107293003Y-94544026D01*
X107293008Y-94544020D01*
X107298666Y-94539548D01*
X107299630Y-94540767D01*
X107353533Y-94511334D01*
X107379891Y-94508500D01*
X113914109Y-94508500D01*
X113981148Y-94528185D01*
X113995300Y-94539589D01*
X113995334Y-94539548D01*
X114001000Y-94544028D01*
X114043312Y-94570127D01*
X114090037Y-94622075D01*
X114101258Y-94691037D01*
X114073415Y-94755119D01*
X114065896Y-94763346D01*
X111377063Y-97452181D01*
X111315740Y-97485666D01*
X111289382Y-97488500D01*
X107376230Y-97488500D01*
X107309191Y-97468815D01*
X107296475Y-97458568D01*
X107296319Y-97458766D01*
X107290658Y-97454290D01*
X107290656Y-97454288D01*
X107141334Y-97362186D01*
X106974797Y-97307001D01*
X106974795Y-97307000D01*
X106872010Y-97296500D01*
X106246998Y-97296500D01*
X106246980Y-97296501D01*
X106144203Y-97307000D01*
X106144200Y-97307001D01*
X105977668Y-97362185D01*
X105977663Y-97362187D01*
X105828342Y-97454289D01*
X105734681Y-97547951D01*
X105673358Y-97581436D01*
X105603666Y-97576452D01*
X105559319Y-97547951D01*
X105465657Y-97454289D01*
X105465656Y-97454288D01*
X105316334Y-97362186D01*
X105149797Y-97307001D01*
X105149795Y-97307000D01*
X105047010Y-97296500D01*
X104421998Y-97296500D01*
X104421980Y-97296501D01*
X104319203Y-97307000D01*
X104319200Y-97307001D01*
X104152668Y-97362185D01*
X104152663Y-97362187D01*
X104003342Y-97454289D01*
X103879289Y-97578342D01*
X103787187Y-97727663D01*
X103787186Y-97727666D01*
X103732001Y-97894203D01*
X103732001Y-97894204D01*
X103732000Y-97894204D01*
X103721500Y-97996983D01*
X103721500Y-98032403D01*
X103701815Y-98099442D01*
X103685181Y-98120084D01*
X102945085Y-98860181D01*
X102883762Y-98893666D01*
X102857404Y-98896500D01*
X94552597Y-98896500D01*
X94485558Y-98876815D01*
X94439803Y-98824011D01*
X94429859Y-98754853D01*
X94433936Y-98736505D01*
X94433937Y-98736502D01*
X94463908Y-98637701D01*
X94483380Y-98440000D01*
X94463908Y-98242299D01*
X94406241Y-98052197D01*
X94406238Y-98052193D01*
X94406238Y-98052190D01*
X94312596Y-97876998D01*
X94312593Y-97876995D01*
X94283806Y-97841918D01*
X94266704Y-97821078D01*
X94186568Y-97723431D01*
X94033004Y-97597406D01*
X94033001Y-97597403D01*
X93857809Y-97503761D01*
X93857803Y-97503759D01*
X93667701Y-97446092D01*
X93667699Y-97446091D01*
X93667697Y-97446091D01*
X93470000Y-97426620D01*
X93272300Y-97446091D01*
X93150098Y-97483161D01*
X93114103Y-97488500D01*
X82376230Y-97488500D01*
X82309191Y-97468815D01*
X82296475Y-97458568D01*
X82296319Y-97458766D01*
X82290658Y-97454290D01*
X82290656Y-97454288D01*
X82141334Y-97362186D01*
X81974797Y-97307001D01*
X81974795Y-97307000D01*
X81872010Y-97296500D01*
X81246998Y-97296500D01*
X81246980Y-97296501D01*
X81144203Y-97307000D01*
X81144200Y-97307001D01*
X80977668Y-97362185D01*
X80977663Y-97362187D01*
X80828342Y-97454289D01*
X80734681Y-97547951D01*
X80673358Y-97581436D01*
X80603666Y-97576452D01*
X80559319Y-97547951D01*
X80465657Y-97454289D01*
X80465656Y-97454288D01*
X80316334Y-97362186D01*
X80149797Y-97307001D01*
X80149795Y-97307000D01*
X80047010Y-97296500D01*
X79421998Y-97296500D01*
X79421980Y-97296501D01*
X79319203Y-97307000D01*
X79319200Y-97307001D01*
X79152668Y-97362185D01*
X79152663Y-97362187D01*
X79003342Y-97454289D01*
X78879289Y-97578342D01*
X78787187Y-97727663D01*
X78787186Y-97727666D01*
X78732001Y-97894203D01*
X78732001Y-97894204D01*
X78732000Y-97894204D01*
X78721500Y-97996983D01*
X78721500Y-98032403D01*
X78701815Y-98099442D01*
X78685181Y-98120084D01*
X77945085Y-98860181D01*
X77883762Y-98893666D01*
X77857404Y-98896500D01*
X63613596Y-98896500D01*
X63546557Y-98876815D01*
X63500802Y-98824011D01*
X63490858Y-98754853D01*
X63519883Y-98691297D01*
X63525915Y-98684819D01*
X64137303Y-98073431D01*
X67260444Y-94950288D01*
X67264913Y-94946238D01*
X67301068Y-94916568D01*
X67427095Y-94763004D01*
X67495321Y-94635362D01*
X67520739Y-94587808D01*
X67520739Y-94587807D01*
X67520741Y-94587804D01*
X67563732Y-94446082D01*
X67578409Y-94397700D01*
X67597880Y-94200000D01*
X67593299Y-94153481D01*
X67593000Y-94147401D01*
X67593000Y-93450456D01*
X67578408Y-93302299D01*
X67577838Y-93300420D01*
X67577263Y-93296543D01*
X67577220Y-93296327D01*
X67577230Y-93296324D01*
X67572500Y-93264429D01*
X67572500Y-92994157D01*
X67572499Y-92994144D01*
X67562087Y-92892225D01*
X67507362Y-92727075D01*
X67507358Y-92727069D01*
X67507357Y-92727066D01*
X67416028Y-92579000D01*
X67416025Y-92578996D01*
X67293003Y-92455974D01*
X67292999Y-92455971D01*
X67144933Y-92364642D01*
X67144927Y-92364639D01*
X67144925Y-92364638D01*
X67144922Y-92364637D01*
X66979776Y-92309913D01*
X66877855Y-92299500D01*
X66877848Y-92299500D01*
X66291152Y-92299500D01*
X66291144Y-92299500D01*
X66189223Y-92309913D01*
X66024077Y-92364637D01*
X66024066Y-92364642D01*
X65876000Y-92455971D01*
X65875996Y-92455974D01*
X65752974Y-92578996D01*
X65752971Y-92579000D01*
X65752538Y-92579703D01*
X65752114Y-92580083D01*
X65748493Y-92584664D01*
X65747710Y-92584045D01*
X65700590Y-92626428D01*
X65631628Y-92637649D01*
X65567546Y-92609806D01*
X65545657Y-92584544D01*
X65545507Y-92584664D01*
X65542859Y-92581315D01*
X65541462Y-92579703D01*
X65541028Y-92579000D01*
X65541025Y-92578996D01*
X65418003Y-92455974D01*
X65417999Y-92455971D01*
X65269933Y-92364642D01*
X65269927Y-92364639D01*
X65269925Y-92364638D01*
X65269922Y-92364637D01*
X65104776Y-92309913D01*
X65002855Y-92299500D01*
X65002848Y-92299500D01*
X64416152Y-92299500D01*
X64416144Y-92299500D01*
X64314223Y-92309913D01*
X64149077Y-92364637D01*
X64149066Y-92364642D01*
X64001000Y-92455971D01*
X63995334Y-92460452D01*
X63994369Y-92459232D01*
X63940467Y-92488666D01*
X63914109Y-92491500D01*
X57379891Y-92491500D01*
X57312852Y-92471815D01*
X57298699Y-92460410D01*
X57298666Y-92460452D01*
X57292999Y-92455971D01*
X57144933Y-92364642D01*
X57144927Y-92364639D01*
X57144925Y-92364638D01*
X57144922Y-92364637D01*
X56979776Y-92309913D01*
X56877855Y-92299500D01*
X56877848Y-92299500D01*
X56291152Y-92299500D01*
X56291144Y-92299500D01*
X56189223Y-92309913D01*
X56024077Y-92364637D01*
X56024066Y-92364642D01*
X55876000Y-92455971D01*
X55875996Y-92455974D01*
X55752974Y-92578996D01*
X55752971Y-92579000D01*
X55661642Y-92727066D01*
X55661637Y-92727077D01*
X55606913Y-92892223D01*
X55596500Y-92994144D01*
X55596500Y-93264429D01*
X55591769Y-93296324D01*
X55591780Y-93296327D01*
X55591736Y-93296543D01*
X55591162Y-93300420D01*
X55590591Y-93302299D01*
X55571120Y-93500000D01*
X55590591Y-93697697D01*
X55590591Y-93697699D01*
X55590592Y-93697701D01*
X55591161Y-93699578D01*
X55591736Y-93703456D01*
X55591780Y-93703674D01*
X55591769Y-93703676D01*
X55596500Y-93735571D01*
X55596500Y-94005855D01*
X55606913Y-94107776D01*
X55661637Y-94272922D01*
X55661642Y-94272933D01*
X55752971Y-94420999D01*
X55752974Y-94421003D01*
X55875996Y-94544025D01*
X55876000Y-94544028D01*
X56024066Y-94635357D01*
X56024069Y-94635358D01*
X56024075Y-94635362D01*
X56189225Y-94690087D01*
X56291152Y-94700500D01*
X56291157Y-94700500D01*
X56877843Y-94700500D01*
X56877848Y-94700500D01*
X56979775Y-94690087D01*
X57144925Y-94635362D01*
X57293003Y-94544026D01*
X57293008Y-94544020D01*
X57298666Y-94539548D01*
X57299630Y-94540767D01*
X57353533Y-94511334D01*
X57379891Y-94508500D01*
X63914109Y-94508500D01*
X63981148Y-94528185D01*
X63995300Y-94539589D01*
X63995334Y-94539548D01*
X64001000Y-94544028D01*
X64149066Y-94635357D01*
X64149069Y-94635358D01*
X64149075Y-94635362D01*
X64314225Y-94690087D01*
X64375774Y-94696374D01*
X64440464Y-94722769D01*
X64480616Y-94779949D01*
X64483480Y-94849760D01*
X64450852Y-94907413D01*
X61906085Y-97452181D01*
X61844762Y-97485666D01*
X61818404Y-97488500D01*
X57376230Y-97488500D01*
X57309191Y-97468815D01*
X57296475Y-97458568D01*
X57296319Y-97458766D01*
X57290658Y-97454290D01*
X57290656Y-97454288D01*
X57141334Y-97362186D01*
X56974797Y-97307001D01*
X56974795Y-97307000D01*
X56872010Y-97296500D01*
X56246998Y-97296500D01*
X56246980Y-97296501D01*
X56144203Y-97307000D01*
X56144200Y-97307001D01*
X55977668Y-97362185D01*
X55977663Y-97362187D01*
X55828342Y-97454289D01*
X55734681Y-97547951D01*
X55673358Y-97581436D01*
X55603666Y-97576452D01*
X55559319Y-97547951D01*
X55465657Y-97454289D01*
X55465656Y-97454288D01*
X55316334Y-97362186D01*
X55149797Y-97307001D01*
X55149795Y-97307000D01*
X55047010Y-97296500D01*
X54421998Y-97296500D01*
X54421980Y-97296501D01*
X54319203Y-97307000D01*
X54319200Y-97307001D01*
X54152668Y-97362185D01*
X54152663Y-97362187D01*
X54003342Y-97454289D01*
X53879289Y-97578342D01*
X53787187Y-97727663D01*
X53787186Y-97727666D01*
X53732001Y-97894203D01*
X53732001Y-97894204D01*
X53732000Y-97894204D01*
X53721500Y-97996983D01*
X53721500Y-98732411D01*
X53721202Y-98738479D01*
X53721120Y-98739313D01*
X53721120Y-98739318D01*
X53721202Y-98740153D01*
X53721500Y-98746224D01*
X53721500Y-98997000D01*
X53721501Y-98997019D01*
X53732000Y-99099796D01*
X53732001Y-99099799D01*
X53757850Y-99177804D01*
X53787186Y-99266334D01*
X53879288Y-99415656D01*
X54003344Y-99539712D01*
X54104761Y-99602266D01*
X54152668Y-99631815D01*
X54170121Y-99637598D01*
X54196699Y-99646404D01*
X54245378Y-99676430D01*
X55149878Y-100580930D01*
X55153958Y-100585432D01*
X55183611Y-100621565D01*
X55183612Y-100621566D01*
X55183614Y-100621568D01*
X55319030Y-100732701D01*
X55337178Y-100747595D01*
X55337180Y-100747596D01*
X55337184Y-100747599D01*
X55512373Y-100841239D01*
X55512375Y-100841239D01*
X55512378Y-100841241D01*
X55702481Y-100898908D01*
X55702480Y-100898908D01*
X55720206Y-100900653D01*
X55900182Y-100918380D01*
X55934104Y-100915038D01*
X55946697Y-100913799D01*
X55952778Y-100913500D01*
X78273902Y-100913500D01*
X78279982Y-100913799D01*
X78294011Y-100915180D01*
X78326500Y-100918380D01*
X78524201Y-100898909D01*
X78714304Y-100841241D01*
X78747622Y-100823432D01*
X78889504Y-100747595D01*
X79043068Y-100621568D01*
X79072738Y-100585413D01*
X79076788Y-100580944D01*
X79525663Y-100132070D01*
X79586982Y-100098588D01*
X79656674Y-100103572D01*
X79701021Y-100132073D01*
X80149878Y-100580930D01*
X80153958Y-100585432D01*
X80183611Y-100621565D01*
X80183612Y-100621566D01*
X80183614Y-100621568D01*
X80319030Y-100732701D01*
X80337178Y-100747595D01*
X80337180Y-100747596D01*
X80337184Y-100747599D01*
X80512373Y-100841239D01*
X80512375Y-100841239D01*
X80512378Y-100841241D01*
X80702481Y-100898908D01*
X80702480Y-100898908D01*
X80720206Y-100900653D01*
X80900182Y-100918380D01*
X80934104Y-100915038D01*
X80946697Y-100913799D01*
X80952778Y-100913500D01*
X92414463Y-100913500D01*
X92481502Y-100933185D01*
X92527257Y-100985989D01*
X92537201Y-101055147D01*
X92523821Y-101095953D01*
X92493760Y-101152191D01*
X92436091Y-101342300D01*
X92416620Y-101540000D01*
X92436091Y-101737699D01*
X92493760Y-101927808D01*
X92587401Y-102102998D01*
X92587405Y-102103005D01*
X92713431Y-102256568D01*
X92724494Y-102265647D01*
X92763828Y-102323393D01*
X92765699Y-102393237D01*
X92729511Y-102453006D01*
X92666755Y-102483721D01*
X92645829Y-102485500D01*
X87379891Y-102485500D01*
X87312852Y-102465815D01*
X87298699Y-102454410D01*
X87298666Y-102454452D01*
X87292999Y-102449971D01*
X87144933Y-102358642D01*
X87144927Y-102358639D01*
X87144925Y-102358638D01*
X87142097Y-102357701D01*
X86979776Y-102303913D01*
X86877855Y-102293500D01*
X86877848Y-102293500D01*
X86291152Y-102293500D01*
X86291144Y-102293500D01*
X86189223Y-102303913D01*
X86024077Y-102358637D01*
X86024066Y-102358642D01*
X85876000Y-102449971D01*
X85875996Y-102449974D01*
X85752974Y-102572996D01*
X85752971Y-102573000D01*
X85752538Y-102573703D01*
X85752114Y-102574083D01*
X85748493Y-102578664D01*
X85747710Y-102578045D01*
X85700590Y-102620428D01*
X85631628Y-102631649D01*
X85567546Y-102603806D01*
X85545657Y-102578544D01*
X85545507Y-102578664D01*
X85542859Y-102575315D01*
X85541462Y-102573703D01*
X85541028Y-102573000D01*
X85541025Y-102572996D01*
X85418003Y-102449974D01*
X85417999Y-102449971D01*
X85269933Y-102358642D01*
X85269927Y-102358639D01*
X85269925Y-102358638D01*
X85267097Y-102357701D01*
X85104776Y-102303913D01*
X85002855Y-102293500D01*
X85002848Y-102293500D01*
X84416152Y-102293500D01*
X84416144Y-102293500D01*
X84314223Y-102303913D01*
X84149077Y-102358637D01*
X84149066Y-102358642D01*
X84001000Y-102449971D01*
X83995334Y-102454452D01*
X83994369Y-102453232D01*
X83940467Y-102482666D01*
X83914109Y-102485500D01*
X77379891Y-102485500D01*
X77312852Y-102465815D01*
X77298699Y-102454410D01*
X77298666Y-102454452D01*
X77292999Y-102449971D01*
X77144933Y-102358642D01*
X77144927Y-102358639D01*
X77144925Y-102358638D01*
X77142097Y-102357701D01*
X76979776Y-102303913D01*
X76877855Y-102293500D01*
X76877848Y-102293500D01*
X76291152Y-102293500D01*
X76291144Y-102293500D01*
X76189223Y-102303913D01*
X76024077Y-102358637D01*
X76024066Y-102358642D01*
X75876000Y-102449971D01*
X75875996Y-102449974D01*
X75752974Y-102572996D01*
X75752971Y-102573000D01*
X75752538Y-102573703D01*
X75752114Y-102574083D01*
X75748493Y-102578664D01*
X75747710Y-102578045D01*
X75700590Y-102620428D01*
X75631628Y-102631649D01*
X75567546Y-102603806D01*
X75545657Y-102578544D01*
X75545507Y-102578664D01*
X75542859Y-102575315D01*
X75541462Y-102573703D01*
X75541028Y-102573000D01*
X75541025Y-102572996D01*
X75418003Y-102449974D01*
X75417999Y-102449971D01*
X75269933Y-102358642D01*
X75269927Y-102358639D01*
X75269925Y-102358638D01*
X75267097Y-102357701D01*
X75104776Y-102303913D01*
X75002855Y-102293500D01*
X75002848Y-102293500D01*
X74416152Y-102293500D01*
X74416144Y-102293500D01*
X74314223Y-102303913D01*
X74149077Y-102358637D01*
X74149066Y-102358642D01*
X74001000Y-102449971D01*
X73995334Y-102454452D01*
X73994369Y-102453232D01*
X73940467Y-102482666D01*
X73914109Y-102485500D01*
X67379891Y-102485500D01*
X67312852Y-102465815D01*
X67298699Y-102454410D01*
X67298666Y-102454452D01*
X67292999Y-102449971D01*
X67144933Y-102358642D01*
X67144927Y-102358639D01*
X67144925Y-102358638D01*
X67142097Y-102357701D01*
X66979776Y-102303913D01*
X66877855Y-102293500D01*
X66877848Y-102293500D01*
X66291152Y-102293500D01*
X66291144Y-102293500D01*
X66189223Y-102303913D01*
X66024077Y-102358637D01*
X66024066Y-102358642D01*
X65876000Y-102449971D01*
X65875996Y-102449974D01*
X65752974Y-102572996D01*
X65752971Y-102573000D01*
X65752538Y-102573703D01*
X65752114Y-102574083D01*
X65748493Y-102578664D01*
X65747710Y-102578045D01*
X65700590Y-102620428D01*
X65631628Y-102631649D01*
X65567546Y-102603806D01*
X65545657Y-102578544D01*
X65545507Y-102578664D01*
X65542859Y-102575315D01*
X65541462Y-102573703D01*
X65541028Y-102573000D01*
X65541025Y-102572996D01*
X65418003Y-102449974D01*
X65417999Y-102449971D01*
X65269933Y-102358642D01*
X65269927Y-102358639D01*
X65269925Y-102358638D01*
X65267097Y-102357701D01*
X65104776Y-102303913D01*
X65002855Y-102293500D01*
X65002848Y-102293500D01*
X64416152Y-102293500D01*
X64416144Y-102293500D01*
X64314223Y-102303913D01*
X64149077Y-102358637D01*
X64149066Y-102358642D01*
X64001000Y-102449971D01*
X63995334Y-102454452D01*
X63994369Y-102453232D01*
X63940467Y-102482666D01*
X63914109Y-102485500D01*
X57379891Y-102485500D01*
X57312852Y-102465815D01*
X57298699Y-102454410D01*
X57298666Y-102454452D01*
X57292999Y-102449971D01*
X57144933Y-102358642D01*
X57144927Y-102358639D01*
X57144925Y-102358638D01*
X57142097Y-102357701D01*
X56979776Y-102303913D01*
X56877855Y-102293500D01*
X56877848Y-102293500D01*
X56291152Y-102293500D01*
X56291144Y-102293500D01*
X56189223Y-102303913D01*
X56024077Y-102358637D01*
X56024066Y-102358642D01*
X55876000Y-102449971D01*
X55875996Y-102449974D01*
X55752974Y-102572996D01*
X55752971Y-102573000D01*
X55661642Y-102721066D01*
X55661637Y-102721077D01*
X55606913Y-102886223D01*
X55596500Y-102988144D01*
X55596500Y-103258429D01*
X55591769Y-103290324D01*
X55591780Y-103290327D01*
X55591736Y-103290543D01*
X55591162Y-103294420D01*
X55590591Y-103296299D01*
X55571120Y-103494000D01*
X55590591Y-103691697D01*
X55590591Y-103691699D01*
X55590592Y-103691701D01*
X55591161Y-103693578D01*
X55591736Y-103697456D01*
X55591780Y-103697674D01*
X55591769Y-103697676D01*
X55596500Y-103729571D01*
X55596500Y-103999855D01*
X55606913Y-104101776D01*
X55661637Y-104266922D01*
X55661642Y-104266933D01*
X55752971Y-104414999D01*
X55752974Y-104415003D01*
X55875996Y-104538025D01*
X55876000Y-104538028D01*
X55944795Y-104580462D01*
X55991520Y-104632410D01*
X56002741Y-104701372D01*
X55974898Y-104765454D01*
X55916829Y-104804310D01*
X55879698Y-104810000D01*
X52724000Y-104810000D01*
X52656961Y-104790315D01*
X52611206Y-104737511D01*
X52600000Y-104686000D01*
X52600000Y-90643821D01*
X52619685Y-90576782D01*
X52672489Y-90531027D01*
X52723733Y-90519821D01*
X216144174Y-90171737D01*
X216211252Y-90191279D01*
G37*
%TD.AperFunction*%
%TD*%
M02*
