%TF.GenerationSoftware,KiCad,Pcbnew,7.0.8*%
%TF.CreationDate,2023-11-23T23:41:59+08:00*%
%TF.ProjectId,Brake_Light,4272616b-655f-44c6-9967-68742e6b6963,v1.0*%
%TF.SameCoordinates,Original*%
%TF.FileFunction,Copper,L2,Bot*%
%TF.FilePolarity,Positive*%
%FSLAX46Y46*%
G04 Gerber Fmt 4.6, Leading zero omitted, Abs format (unit mm)*
G04 Created by KiCad (PCBNEW 7.0.8) date 2023-11-23 23:41:59*
%MOMM*%
%LPD*%
G01*
G04 APERTURE LIST*
G04 Aperture macros list*
%AMRoundRect*
0 Rectangle with rounded corners*
0 $1 Rounding radius*
0 $2 $3 $4 $5 $6 $7 $8 $9 X,Y pos of 4 corners*
0 Add a 4 corners polygon primitive as box body*
4,1,4,$2,$3,$4,$5,$6,$7,$8,$9,$2,$3,0*
0 Add four circle primitives for the rounded corners*
1,1,$1+$1,$2,$3*
1,1,$1+$1,$4,$5*
1,1,$1+$1,$6,$7*
1,1,$1+$1,$8,$9*
0 Add four rect primitives between the rounded corners*
20,1,$1+$1,$2,$3,$4,$5,0*
20,1,$1+$1,$4,$5,$6,$7,0*
20,1,$1+$1,$6,$7,$8,$9,0*
20,1,$1+$1,$8,$9,$2,$3,0*%
G04 Aperture macros list end*
%TA.AperFunction,ComponentPad*%
%ADD10RoundRect,0.250000X-0.750000X0.600000X-0.750000X-0.600000X0.750000X-0.600000X0.750000X0.600000X0*%
%TD*%
%TA.AperFunction,ComponentPad*%
%ADD11O,2.000000X1.700000*%
%TD*%
%TA.AperFunction,ViaPad*%
%ADD12C,0.800000*%
%TD*%
%TA.AperFunction,Conductor*%
%ADD13C,0.254000*%
%TD*%
%TA.AperFunction,Conductor*%
%ADD14C,0.508000*%
%TD*%
G04 APERTURE END LIST*
D10*
%TO.P,J1,1,Pin_1*%
%TO.N,/GND*%
X206174000Y-96477000D03*
D11*
%TO.P,J1,2,Pin_2*%
%TO.N,/Vcc*%
X206174000Y-98977000D03*
%TD*%
D12*
%TO.N,Net-(D1-A)*%
X202013500Y-94720000D03*
X202013500Y-97330500D03*
%TO.N,Net-(D2-K)*%
X199010000Y-95380000D03*
X199050000Y-101300000D03*
%TO.N,Net-(D1-K)*%
X202690000Y-93360000D03*
X202740000Y-100860000D03*
%TO.N,/GND*%
X97790000Y-95504000D03*
X172466000Y-93599000D03*
X171577000Y-101346000D03*
X151765000Y-94742000D03*
X124587000Y-95377000D03*
X101600000Y-101981000D03*
X151765000Y-103251000D03*
X108712000Y-101854000D03*
%TO.N,Net-(D6-A)*%
X196342000Y-98552000D03*
X196469000Y-100584000D03*
%TO.N,Net-(D16-A)*%
X146558000Y-101854000D03*
X146431000Y-98425000D03*
%TO.N,Net-(D26-A)*%
X96266000Y-98425000D03*
X96520000Y-101981000D03*
%TD*%
D13*
%TO.N,Net-(D1-A)*%
X202013500Y-94720000D02*
X202013500Y-97330500D01*
%TO.N,Net-(D2-K)*%
X199050000Y-95420000D02*
X199010000Y-95380000D01*
X199050000Y-101300000D02*
X199050000Y-95420000D01*
%TO.N,Net-(D1-K)*%
X202740000Y-93410000D02*
X202690000Y-93360000D01*
X202740000Y-100860000D02*
X202740000Y-93410000D01*
D14*
%TO.N,/GND*%
X101600000Y-101981000D02*
X101600000Y-99314000D01*
X151765000Y-103251000D02*
X151765000Y-95123000D01*
X101600000Y-99314000D02*
X97790000Y-95504000D01*
X151765000Y-95123000D02*
X151765000Y-94742000D01*
X172466000Y-93599000D02*
X172466000Y-100457000D01*
X124587000Y-95377000D02*
X118110000Y-101854000D01*
X172466000Y-100457000D02*
X171577000Y-101346000D01*
X118110000Y-101854000D02*
X108712000Y-101854000D01*
D13*
%TO.N,Net-(D6-A)*%
X196342000Y-98552000D02*
X196342000Y-100457000D01*
X196342000Y-100457000D02*
X196469000Y-100584000D01*
%TO.N,Net-(D16-A)*%
X146431000Y-98425000D02*
X146431000Y-101727000D01*
X146431000Y-101727000D02*
X146558000Y-101854000D01*
%TO.N,Net-(D26-A)*%
X96266000Y-98425000D02*
X96266000Y-101727000D01*
X96266000Y-101727000D02*
X96520000Y-101981000D01*
%TD*%
M02*
