%TF.GenerationSoftware,KiCad,Pcbnew,7.0.8*%
%TF.CreationDate,2023-11-23T23:42:39+08:00*%
%TF.ProjectId,Brake_Light,4272616b-655f-44c6-9967-68742e6b6963,v1.0*%
%TF.SameCoordinates,Original*%
%TF.FileFunction,Drillmap*%
%TF.FilePolarity,Positive*%
%FSLAX45Y45*%
G04 Gerber Fmt 4.5, Leading zero omitted, Abs format (unit mm)*
G04 Created by KiCad (PCBNEW 7.0.8) date 2023-11-23 23:42:39*
%MOMM*%
%LPD*%
G01*
G04 APERTURE LIST*
%ADD10C,0.100000*%
%ADD11C,0.200000*%
G04 APERTURE END LIST*
D10*
X5000000Y-9000000D02*
X22000000Y-9000000D01*
X22000000Y-10500000D01*
X5000000Y-10500000D01*
X5000000Y-9000000D01*
X5170000Y-10400000D02*
G75*
G03*
X5170000Y-10400000I-70000J0D01*
G01*
X21970000Y-10400000D02*
G75*
G03*
X21970000Y-10400000I-70000J0D01*
G01*
X21970000Y-9100000D02*
G75*
G03*
X21970000Y-9100000I-70000J0D01*
G01*
X5170000Y-9100000D02*
G75*
G03*
X5170000Y-9100000I-70000J0D01*
G01*
D11*
X5255777Y-10816484D02*
X5255777Y-10616484D01*
X5255777Y-10616484D02*
X5303396Y-10616484D01*
X5303396Y-10616484D02*
X5331967Y-10626008D01*
X5331967Y-10626008D02*
X5351015Y-10645055D01*
X5351015Y-10645055D02*
X5360539Y-10664103D01*
X5360539Y-10664103D02*
X5370063Y-10702198D01*
X5370063Y-10702198D02*
X5370063Y-10730770D01*
X5370063Y-10730770D02*
X5360539Y-10768865D01*
X5360539Y-10768865D02*
X5351015Y-10787912D01*
X5351015Y-10787912D02*
X5331967Y-10806960D01*
X5331967Y-10806960D02*
X5303396Y-10816484D01*
X5303396Y-10816484D02*
X5255777Y-10816484D01*
X5455777Y-10816484D02*
X5455777Y-10683150D01*
X5455777Y-10721246D02*
X5465301Y-10702198D01*
X5465301Y-10702198D02*
X5474824Y-10692674D01*
X5474824Y-10692674D02*
X5493872Y-10683150D01*
X5493872Y-10683150D02*
X5512920Y-10683150D01*
X5579586Y-10816484D02*
X5579586Y-10683150D01*
X5579586Y-10616484D02*
X5570063Y-10626008D01*
X5570063Y-10626008D02*
X5579586Y-10635531D01*
X5579586Y-10635531D02*
X5589110Y-10626008D01*
X5589110Y-10626008D02*
X5579586Y-10616484D01*
X5579586Y-10616484D02*
X5579586Y-10635531D01*
X5703396Y-10816484D02*
X5684348Y-10806960D01*
X5684348Y-10806960D02*
X5674824Y-10787912D01*
X5674824Y-10787912D02*
X5674824Y-10616484D01*
X5808158Y-10816484D02*
X5789110Y-10806960D01*
X5789110Y-10806960D02*
X5779586Y-10787912D01*
X5779586Y-10787912D02*
X5779586Y-10616484D01*
X6036729Y-10816484D02*
X6036729Y-10616484D01*
X6036729Y-10616484D02*
X6103396Y-10759341D01*
X6103396Y-10759341D02*
X6170062Y-10616484D01*
X6170062Y-10616484D02*
X6170062Y-10816484D01*
X6351015Y-10816484D02*
X6351015Y-10711722D01*
X6351015Y-10711722D02*
X6341491Y-10692674D01*
X6341491Y-10692674D02*
X6322443Y-10683150D01*
X6322443Y-10683150D02*
X6284348Y-10683150D01*
X6284348Y-10683150D02*
X6265301Y-10692674D01*
X6351015Y-10806960D02*
X6331967Y-10816484D01*
X6331967Y-10816484D02*
X6284348Y-10816484D01*
X6284348Y-10816484D02*
X6265301Y-10806960D01*
X6265301Y-10806960D02*
X6255777Y-10787912D01*
X6255777Y-10787912D02*
X6255777Y-10768865D01*
X6255777Y-10768865D02*
X6265301Y-10749817D01*
X6265301Y-10749817D02*
X6284348Y-10740293D01*
X6284348Y-10740293D02*
X6331967Y-10740293D01*
X6331967Y-10740293D02*
X6351015Y-10730770D01*
X6446253Y-10683150D02*
X6446253Y-10883150D01*
X6446253Y-10692674D02*
X6465301Y-10683150D01*
X6465301Y-10683150D02*
X6503396Y-10683150D01*
X6503396Y-10683150D02*
X6522443Y-10692674D01*
X6522443Y-10692674D02*
X6531967Y-10702198D01*
X6531967Y-10702198D02*
X6541491Y-10721246D01*
X6541491Y-10721246D02*
X6541491Y-10778389D01*
X6541491Y-10778389D02*
X6531967Y-10797436D01*
X6531967Y-10797436D02*
X6522443Y-10806960D01*
X6522443Y-10806960D02*
X6503396Y-10816484D01*
X6503396Y-10816484D02*
X6465301Y-10816484D01*
X6465301Y-10816484D02*
X6446253Y-10806960D01*
X6627205Y-10797436D02*
X6636729Y-10806960D01*
X6636729Y-10806960D02*
X6627205Y-10816484D01*
X6627205Y-10816484D02*
X6617682Y-10806960D01*
X6617682Y-10806960D02*
X6627205Y-10797436D01*
X6627205Y-10797436D02*
X6627205Y-10816484D01*
X6627205Y-10692674D02*
X6636729Y-10702198D01*
X6636729Y-10702198D02*
X6627205Y-10711722D01*
X6627205Y-10711722D02*
X6617682Y-10702198D01*
X6617682Y-10702198D02*
X6627205Y-10692674D01*
X6627205Y-10692674D02*
X6627205Y-10711722D01*
M02*
