M48
; DRILL file {KiCad 7.0.8} date 2023 November 18, Saturday 18:44:16
; FORMAT={-:-/ absolute / inch / decimal}
; #@! TF.CreationDate,2023-11-18T18:44:16+08:00
; #@! TF.GenerationSoftware,Kicad,Pcbnew,7.0.8
; #@! TF.FileFunction,Plated,1,2,PTH
FMAT,2
INCH
; #@! TA.AperFunction,Plated,PTH,ViaDrill
T1C0.0157
; #@! TA.AperFunction,Plated,PTH,ComponentDrill
T2C0.0394
%
G90
G05
T1
X3.79Y-3.875
X3.8Y-4.015
X3.85Y-3.76
X4.0Y-4.015
X4.28Y-4.01
X4.905Y-3.755
X5.765Y-3.875
X5.77Y-4.01
X5.975Y-3.73
X5.975Y-4.065
X6.755Y-3.99
X6.79Y-3.685
X7.73Y-3.88
X7.735Y-3.96
X7.985Y-4.065
X8.195Y-3.685
X8.2Y-3.88
X8.2Y-4.08
T2
X8.4714Y-3.7983
X8.4714Y-3.8967
T0
M30
