%TF.GenerationSoftware,KiCad,Pcbnew,7.0.8*%
%TF.CreationDate,2023-11-18T18:44:21+08:00*%
%TF.ProjectId,Brake_Light,4272616b-655f-44c6-9967-68742e6b6963,v1.0*%
%TF.SameCoordinates,Original*%
%TF.FileFunction,Copper,L1,Top*%
%TF.FilePolarity,Positive*%
%FSLAX46Y46*%
G04 Gerber Fmt 4.6, Leading zero omitted, Abs format (unit mm)*
G04 Created by KiCad (PCBNEW 7.0.8) date 2023-11-18 18:44:21*
%MOMM*%
%LPD*%
G01*
G04 APERTURE LIST*
G04 Aperture macros list*
%AMRoundRect*
0 Rectangle with rounded corners*
0 $1 Rounding radius*
0 $2 $3 $4 $5 $6 $7 $8 $9 X,Y pos of 4 corners*
0 Add a 4 corners polygon primitive as box body*
4,1,4,$2,$3,$4,$5,$6,$7,$8,$9,$2,$3,0*
0 Add four circle primitives for the rounded corners*
1,1,$1+$1,$2,$3*
1,1,$1+$1,$4,$5*
1,1,$1+$1,$6,$7*
1,1,$1+$1,$8,$9*
0 Add four rect primitives between the rounded corners*
20,1,$1+$1,$2,$3,$4,$5,0*
20,1,$1+$1,$4,$5,$6,$7,0*
20,1,$1+$1,$6,$7,$8,$9,0*
20,1,$1+$1,$8,$9,$2,$3,0*%
G04 Aperture macros list end*
%TA.AperFunction,NonConductor*%
%ADD10C,0.200000*%
%TD*%
%TA.AperFunction,SMDPad,CuDef*%
%ADD11RoundRect,0.243750X-0.243750X-0.456250X0.243750X-0.456250X0.243750X0.456250X-0.243750X0.456250X0*%
%TD*%
%TA.AperFunction,SMDPad,CuDef*%
%ADD12RoundRect,0.250000X-0.262500X-0.450000X0.262500X-0.450000X0.262500X0.450000X-0.262500X0.450000X0*%
%TD*%
%TA.AperFunction,ComponentPad*%
%ADD13O,2.000000X1.700000*%
%TD*%
%TA.AperFunction,ComponentPad*%
%ADD14RoundRect,0.250000X-0.750000X0.600000X-0.750000X-0.600000X0.750000X-0.600000X0.750000X0.600000X0*%
%TD*%
%TA.AperFunction,ViaPad*%
%ADD15C,0.800000*%
%TD*%
%TA.AperFunction,Conductor*%
%ADD16C,0.254000*%
%TD*%
%TA.AperFunction,Conductor*%
%ADD17C,0.508000*%
%TD*%
G04 APERTURE END LIST*
D10*
X167132000Y-122995000D02*
X177038000Y-122995000D01*
X172085000Y-118042000D02*
X172085000Y-127948000D01*
D11*
%TO.P,D1,2,A*%
%TO.N,Net-(D1-A)*%
X206584500Y-103494000D03*
%TO.P,D1,1,K*%
%TO.N,Net-(D1-K)*%
X204709500Y-103494000D03*
%TD*%
%TO.P,D2,1,K*%
%TO.N,Net-(D2-K)*%
X204709500Y-93500000D03*
%TO.P,D2,2,A*%
%TO.N,Net-(D1-K)*%
X206584500Y-93500000D03*
%TD*%
D12*
%TO.P,R1,1*%
%TO.N,/Vcc*%
X204734500Y-98497000D03*
%TO.P,R1,2*%
%TO.N,Net-(D1-A)*%
X206559500Y-98497000D03*
%TD*%
D11*
%TO.P,D30,1,K*%
%TO.N,/GND*%
X54709500Y-103494000D03*
%TO.P,D30,2,A*%
%TO.N,Net-(D29-K)*%
X56584500Y-103494000D03*
%TD*%
%TO.P,D9,1,K*%
%TO.N,Net-(D10-A)*%
X164709500Y-103494000D03*
%TO.P,D9,2,A*%
%TO.N,Net-(D8-K)*%
X166584500Y-103494000D03*
%TD*%
%TO.P,D32,1,K*%
%TO.N,/GND*%
X54709500Y-93500000D03*
%TO.P,D32,2,A*%
%TO.N,Net-(D31-K)*%
X56584500Y-93500000D03*
%TD*%
%TO.P,D11,1,K*%
%TO.N,Net-(D11-K)*%
X164709500Y-93500000D03*
%TO.P,D11,2,A*%
%TO.N,Net-(D11-A)*%
X166584500Y-93500000D03*
%TD*%
D12*
%TO.P,R6,1*%
%TO.N,/Vcc*%
X79734500Y-98497000D03*
%TO.P,R6,2*%
%TO.N,Net-(D26-A)*%
X81559500Y-98497000D03*
%TD*%
D11*
%TO.P,D10,1,K*%
%TO.N,/GND*%
X154709500Y-103494000D03*
%TO.P,D10,2,A*%
%TO.N,Net-(D10-A)*%
X156584500Y-103494000D03*
%TD*%
%TO.P,D7,2,A*%
%TO.N,Net-(D6-K)*%
X186584500Y-103494000D03*
%TO.P,D7,1,K*%
%TO.N,Net-(D7-K)*%
X184709500Y-103494000D03*
%TD*%
D12*
%TO.P,R3,1*%
%TO.N,/Vcc*%
X154734500Y-98497000D03*
%TO.P,R3,2*%
%TO.N,Net-(D11-A)*%
X156559500Y-98497000D03*
%TD*%
D11*
%TO.P,D22,1,K*%
%TO.N,Net-(D22-K)*%
X104709500Y-93500000D03*
%TO.P,D22,2,A*%
%TO.N,Net-(D21-K)*%
X106584500Y-93500000D03*
%TD*%
D12*
%TO.P,R5,1*%
%TO.N,/Vcc*%
X104734500Y-98497000D03*
%TO.P,R5,2*%
%TO.N,Net-(D21-A)*%
X106559500Y-98497000D03*
%TD*%
D11*
%TO.P,D15,1,K*%
%TO.N,/GND*%
X124709500Y-93500000D03*
%TO.P,D15,2,A*%
%TO.N,Net-(D14-K)*%
X126584500Y-93500000D03*
%TD*%
%TO.P,D17,1,K*%
%TO.N,Net-(D17-K)*%
X134709500Y-103494000D03*
%TO.P,D17,2,A*%
%TO.N,Net-(D16-K)*%
X136584500Y-103494000D03*
%TD*%
%TO.P,D26,1,K*%
%TO.N,Net-(D26-K)*%
X94709500Y-103494000D03*
%TO.P,D26,2,A*%
%TO.N,Net-(D26-A)*%
X96584500Y-103494000D03*
%TD*%
%TO.P,D25,1,K*%
%TO.N,/GND*%
X74709500Y-93500000D03*
%TO.P,D25,2,A*%
%TO.N,Net-(D24-K)*%
X76584500Y-93500000D03*
%TD*%
%TO.P,D5,2,A*%
%TO.N,Net-(D4-K)*%
X176584500Y-93500000D03*
%TO.P,D5,1,K*%
%TO.N,/GND*%
X174709500Y-93500000D03*
%TD*%
%TO.P,D13,1,K*%
%TO.N,Net-(D13-K)*%
X144709500Y-93500000D03*
%TO.P,D13,2,A*%
%TO.N,Net-(D12-K)*%
X146584500Y-93500000D03*
%TD*%
%TO.P,D29,1,K*%
%TO.N,Net-(D29-K)*%
X64709500Y-103494000D03*
%TO.P,D29,2,A*%
%TO.N,Net-(D28-K)*%
X66584500Y-103494000D03*
%TD*%
%TO.P,D3,1,K*%
%TO.N,Net-(D3-K)*%
X194709500Y-93500000D03*
%TO.P,D3,2,A*%
%TO.N,Net-(D2-K)*%
X196584500Y-93500000D03*
%TD*%
%TO.P,D8,2,A*%
%TO.N,Net-(D7-K)*%
X176584500Y-103494000D03*
%TO.P,D8,1,K*%
%TO.N,Net-(D8-K)*%
X174709500Y-103494000D03*
%TD*%
D13*
%TO.P,J1,2,Pin_2*%
%TO.N,/Vcc*%
X215174000Y-98977000D03*
D14*
%TO.P,J1,1,Pin_1*%
%TO.N,/GND*%
X215174000Y-96477000D03*
%TD*%
D11*
%TO.P,D23,1,K*%
%TO.N,Net-(D23-K)*%
X94709500Y-93500000D03*
%TO.P,D23,2,A*%
%TO.N,Net-(D22-K)*%
X96584500Y-93500000D03*
%TD*%
%TO.P,D12,2,A*%
%TO.N,Net-(D11-K)*%
X156584500Y-93500000D03*
%TO.P,D12,1,K*%
%TO.N,Net-(D12-K)*%
X154709500Y-93500000D03*
%TD*%
%TO.P,D14,1,K*%
%TO.N,Net-(D14-K)*%
X134709500Y-93500000D03*
%TO.P,D14,2,A*%
%TO.N,Net-(D13-K)*%
X136584500Y-93500000D03*
%TD*%
%TO.P,D4,1,K*%
%TO.N,Net-(D4-K)*%
X184709500Y-93500000D03*
%TO.P,D4,2,A*%
%TO.N,Net-(D3-K)*%
X186584500Y-93500000D03*
%TD*%
%TO.P,D31,1,K*%
%TO.N,Net-(D31-K)*%
X64709500Y-93500000D03*
%TO.P,D31,2,A*%
%TO.N,Net-(D31-A)*%
X66584500Y-93500000D03*
%TD*%
%TO.P,D20,1,K*%
%TO.N,/GND*%
X104709500Y-103494000D03*
%TO.P,D20,2,A*%
%TO.N,Net-(D19-K)*%
X106584500Y-103494000D03*
%TD*%
%TO.P,D21,1,K*%
%TO.N,Net-(D21-K)*%
X114709500Y-93500000D03*
%TO.P,D21,2,A*%
%TO.N,Net-(D21-A)*%
X116584500Y-93500000D03*
%TD*%
%TO.P,D16,1,K*%
%TO.N,Net-(D16-K)*%
X144709500Y-103494000D03*
%TO.P,D16,2,A*%
%TO.N,Net-(D16-A)*%
X146584500Y-103494000D03*
%TD*%
%TO.P,D24,1,K*%
%TO.N,Net-(D24-K)*%
X84709500Y-93500000D03*
%TO.P,D24,2,A*%
%TO.N,Net-(D23-K)*%
X86584500Y-93500000D03*
%TD*%
%TO.P,D19,1,K*%
%TO.N,Net-(D19-K)*%
X114709500Y-103494000D03*
%TO.P,D19,2,A*%
%TO.N,Net-(D18-K)*%
X116584500Y-103494000D03*
%TD*%
%TO.P,D6,2,A*%
%TO.N,Net-(D6-A)*%
X196434500Y-103494000D03*
%TO.P,D6,1,K*%
%TO.N,Net-(D6-K)*%
X194559500Y-103494000D03*
%TD*%
%TO.P,D18,1,K*%
%TO.N,Net-(D18-K)*%
X124709500Y-103494000D03*
%TO.P,D18,2,A*%
%TO.N,Net-(D17-K)*%
X126584500Y-103494000D03*
%TD*%
%TO.P,D28,1,K*%
%TO.N,Net-(D28-K)*%
X74709500Y-103494000D03*
%TO.P,D28,2,A*%
%TO.N,Net-(D27-K)*%
X76584500Y-103494000D03*
%TD*%
D12*
%TO.P,R2,1*%
%TO.N,/Vcc*%
X179734500Y-98497000D03*
%TO.P,R2,2*%
%TO.N,Net-(D6-A)*%
X181559500Y-98497000D03*
%TD*%
%TO.P,R4,1*%
%TO.N,/Vcc*%
X129734500Y-98497000D03*
%TO.P,R4,2*%
%TO.N,Net-(D16-A)*%
X131559500Y-98497000D03*
%TD*%
%TO.P,R7,1*%
%TO.N,/Vcc*%
X54734500Y-98497000D03*
%TO.P,R7,2*%
%TO.N,Net-(D31-A)*%
X56559500Y-98497000D03*
%TD*%
D11*
%TO.P,D27,1,K*%
%TO.N,Net-(D27-K)*%
X84709500Y-103494000D03*
%TO.P,D27,2,A*%
%TO.N,Net-(D26-K)*%
X86584500Y-103494000D03*
%TD*%
D15*
%TO.N,Net-(D1-A)*%
X208280000Y-103632000D03*
X208280000Y-98552000D03*
%TO.N,Net-(D1-K)*%
X202819000Y-103251000D03*
X208153000Y-93599000D03*
%TO.N,Net-(D6-A)*%
X196469000Y-100584000D03*
X196342000Y-98552000D03*
%TO.N,Net-(D16-A)*%
X146558000Y-101854000D03*
X146431000Y-98425000D03*
%TO.N,Net-(D26-A)*%
X96520000Y-101981000D03*
X96266000Y-98425000D03*
%TO.N,/GND*%
X97790000Y-95504000D03*
X101600000Y-101981000D03*
X108712000Y-101854000D03*
X124587000Y-95377000D03*
X151765000Y-94742000D03*
X151765000Y-103251000D03*
X171577000Y-101346000D03*
X172466000Y-93599000D03*
%TD*%
D16*
%TO.N,Net-(D1-A)*%
X206559500Y-98497000D02*
X208225000Y-98497000D01*
X208280000Y-103632000D02*
X206722500Y-103632000D01*
X208225000Y-98497000D02*
X208280000Y-98552000D01*
X206722500Y-103632000D02*
X206584500Y-103494000D01*
%TO.N,Net-(D1-K)*%
X204466500Y-103251000D02*
X204709500Y-103494000D01*
X206584500Y-93500000D02*
X208054000Y-93500000D01*
X208054000Y-93500000D02*
X208153000Y-93599000D01*
X202819000Y-103251000D02*
X204466500Y-103251000D01*
%TO.N,Net-(D2-K)*%
X196584500Y-93500000D02*
X204709500Y-93500000D01*
%TO.N,Net-(D3-K)*%
X186584500Y-93500000D02*
X194709500Y-93500000D01*
%TO.N,Net-(D6-A)*%
X181559500Y-98497000D02*
X196287000Y-98497000D01*
X196287000Y-98497000D02*
X196342000Y-98552000D01*
X196469000Y-100584000D02*
X196434500Y-100618500D01*
X196434500Y-100618500D02*
X196434500Y-103494000D01*
%TO.N,Net-(D6-K)*%
X186584500Y-103494000D02*
X194559500Y-103494000D01*
%TO.N,Net-(D4-K)*%
X176584500Y-93500000D02*
X184709500Y-93500000D01*
%TO.N,Net-(D7-K)*%
X176584500Y-103494000D02*
X184709500Y-103494000D01*
%TO.N,Net-(D8-K)*%
X166584500Y-103494000D02*
X174709500Y-103494000D01*
%TO.N,Net-(D10-A)*%
X156584500Y-103494000D02*
X164709500Y-103494000D01*
%TO.N,Net-(D11-A)*%
X156559500Y-98497000D02*
X161587500Y-98497000D01*
X161587500Y-98497000D02*
X166584500Y-93500000D01*
%TO.N,Net-(D11-K)*%
X156584500Y-93500000D02*
X164709500Y-93500000D01*
%TO.N,Net-(D12-K)*%
X146584500Y-93500000D02*
X154709500Y-93500000D01*
%TO.N,Net-(D13-K)*%
X136584500Y-93500000D02*
X144709500Y-93500000D01*
%TO.N,Net-(D14-K)*%
X126584500Y-93500000D02*
X134709500Y-93500000D01*
%TO.N,Net-(D16-K)*%
X136584500Y-103494000D02*
X144709500Y-103494000D01*
%TO.N,Net-(D16-A)*%
X131559500Y-98497000D02*
X146359000Y-98497000D01*
X146359000Y-98497000D02*
X146431000Y-98425000D01*
X146558000Y-103467500D02*
X146584500Y-103494000D01*
X146558000Y-101854000D02*
X146558000Y-103467500D01*
%TO.N,Net-(D17-K)*%
X126584500Y-103494000D02*
X134709500Y-103494000D01*
%TO.N,Net-(D18-K)*%
X116584500Y-103494000D02*
X124709500Y-103494000D01*
%TO.N,Net-(D21-A)*%
X106559500Y-98497000D02*
X111587500Y-98497000D01*
X111587500Y-98497000D02*
X116584500Y-93500000D01*
%TO.N,Net-(D21-K)*%
X106584500Y-93500000D02*
X114709500Y-93500000D01*
%TO.N,Net-(D22-K)*%
X96584500Y-93500000D02*
X104709500Y-93500000D01*
%TO.N,Net-(D23-K)*%
X86584500Y-93500000D02*
X94709500Y-93500000D01*
%TO.N,Net-(D24-K)*%
X76584500Y-93500000D02*
X84709500Y-93500000D01*
%TO.N,Net-(D19-K)*%
X106584500Y-103494000D02*
X114709500Y-103494000D01*
%TO.N,Net-(D26-K)*%
X86584500Y-103494000D02*
X94709500Y-103494000D01*
%TO.N,Net-(D26-A)*%
X81559500Y-98497000D02*
X96194000Y-98497000D01*
X96520000Y-101981000D02*
X96520000Y-103429500D01*
X96194000Y-98497000D02*
X96266000Y-98425000D01*
X96520000Y-103429500D02*
X96584500Y-103494000D01*
%TO.N,Net-(D27-K)*%
X76584500Y-103494000D02*
X84709500Y-103494000D01*
%TO.N,Net-(D28-K)*%
X66584500Y-103494000D02*
X74709500Y-103494000D01*
%TO.N,Net-(D29-K)*%
X56584500Y-103494000D02*
X64709500Y-103494000D01*
%TO.N,Net-(D31-A)*%
X56559500Y-98497000D02*
X61587500Y-98497000D01*
X61587500Y-98497000D02*
X66584500Y-93500000D01*
%TO.N,Net-(D31-K)*%
X56584500Y-93500000D02*
X64709500Y-93500000D01*
D17*
%TO.N,/GND*%
X54709500Y-93500000D02*
X53768000Y-94441500D01*
X53768000Y-102552500D02*
X54709500Y-103494000D01*
X53768000Y-94441500D02*
X53768000Y-102552500D01*
X74709500Y-93500000D02*
X73030500Y-91821000D01*
X73030500Y-91821000D02*
X56388500Y-91821000D01*
X56388500Y-91821000D02*
X54709500Y-93500000D01*
X104709500Y-103494000D02*
X103113000Y-103494000D01*
X103113000Y-103494000D02*
X101600000Y-101981000D01*
X97790000Y-95504000D02*
X76713500Y-95504000D01*
X76713500Y-95504000D02*
X74709500Y-93500000D01*
X108712000Y-101854000D02*
X106349500Y-101854000D01*
X124709500Y-93500000D02*
X124709500Y-95254500D01*
X124709500Y-95254500D02*
X124587000Y-95377000D01*
X106349500Y-101854000D02*
X104709500Y-103494000D01*
X125951500Y-94742000D02*
X124709500Y-93500000D01*
X151765000Y-94742000D02*
X125951500Y-94742000D01*
X154709500Y-103494000D02*
X152008000Y-103494000D01*
X152008000Y-103494000D02*
X151765000Y-103251000D01*
X171577000Y-101346000D02*
X156857500Y-101346000D01*
X156857500Y-101346000D02*
X154709500Y-103494000D01*
X172565000Y-93500000D02*
X172466000Y-93599000D01*
X174709500Y-93500000D02*
X172565000Y-93500000D01*
%TO.N,/Vcc*%
X79734500Y-98497000D02*
X78580500Y-99651000D01*
X78580500Y-99651000D02*
X55888500Y-99651000D01*
X55888500Y-99651000D02*
X54734500Y-98497000D01*
X104734500Y-98497000D02*
X103580500Y-99651000D01*
X103580500Y-99651000D02*
X80888500Y-99651000D01*
X80888500Y-99651000D02*
X79734500Y-98497000D01*
X129734500Y-98497000D02*
X128580500Y-99651000D01*
X128580500Y-99651000D02*
X105888500Y-99651000D01*
X105888500Y-99651000D02*
X104734500Y-98497000D01*
X154734500Y-98497000D02*
X153580500Y-99651000D01*
X153580500Y-99651000D02*
X130888500Y-99651000D01*
X130888500Y-99651000D02*
X129734500Y-98497000D01*
X179734500Y-98497000D02*
X178580500Y-99651000D01*
X178580500Y-99651000D02*
X155888500Y-99651000D01*
X155888500Y-99651000D02*
X154734500Y-98497000D01*
X204734500Y-98497000D02*
X203580500Y-99651000D01*
X203580500Y-99651000D02*
X180888500Y-99651000D01*
X180888500Y-99651000D02*
X179734500Y-98497000D01*
X215174000Y-98977000D02*
X214500000Y-99651000D01*
X214500000Y-99651000D02*
X205888500Y-99651000D01*
X205888500Y-99651000D02*
X204734500Y-98497000D01*
%TO.N,/GND*%
X215174000Y-96477000D02*
X177686500Y-96477000D01*
X177686500Y-96477000D02*
X174709500Y-93500000D01*
%TD*%
M02*
